<svg width="74" height="74" viewBox="0 0 74 74" fill="none" xmlns="http://www.w3.org/2000/svg">
<path d="M0.735352 17.081C0.735352 7.64744 8.38278 0 17.8164 0H56.1844C65.6179 0 73.2654 7.64743 73.2654 17.081V56.0914C73.2654 65.525 65.6179 73.1724 56.1843 73.1724H17.8164C8.38277 73.1724 0.735352 65.525 0.735352 56.0914V17.081Z" fill="url(#paint0_linear_1166_528)" fill-opacity="0.6"/>
<path d="M60.0552 32.9336C59.0122 30.9396 57.049 29.6205 55.147 28.3015C54.5949 27.9333 54.0734 27.5652 53.5519 27.1971C55.0857 23.4239 55.147 19.3133 53.5825 16.3684C52.3248 14.0063 50.2082 12.5952 47.4473 12.2578C43.0606 11.7363 38.7966 14.8959 36.0051 17.2887C34.686 18.4237 33.4896 19.6508 32.4159 20.9085C31.7104 19.8348 30.6674 18.9759 29.4097 18.4851C27.6611 17.8409 25.7592 17.9022 24.164 18.6384C21.8326 15.6935 18.4583 14.4665 14.0715 15.0493L14.4703 18.0863C17.4459 17.6875 19.624 18.301 21.2498 19.9882C18.7957 18.9759 16.0041 19.0372 12.9365 20.2336L14.0409 23.0865C16.5563 22.1049 18.7037 22.1048 20.5442 23.0251C19.9921 25.0804 20.3295 27.3812 21.6179 29.099C22.8143 30.6635 24.5935 31.8599 26.7408 32.5348C26.7102 32.7188 26.6795 32.9336 26.6488 33.1176C26.3114 36.0012 26.9249 38.7927 28.336 40.9401C30.0232 43.5169 32.4159 45.3574 34.7167 47.1673C35.0848 47.4434 35.4222 47.7195 35.7903 47.9956C37.5695 49.4067 39.5942 51.0019 40.6372 53.0265C41.8029 55.3272 41.0973 57.7506 40.2997 59.4072L42.9379 60.9716L43.306 60.4808C45.484 57.4132 47.6927 54.2229 48.8891 50.5111C49.4719 48.7012 49.6867 46.8299 49.6253 44.9893C50.0855 45.02 50.5456 45.0507 50.9751 45.0507C54.5949 45.0507 57.7545 43.7316 59.5644 41.3082C61.3743 38.9154 61.5584 35.7864 60.0552 32.9336ZM27.4464 29.5592C26.0046 29.0683 24.8389 28.3014 24.072 27.2585C22.9983 25.8167 23.1824 23.4853 24.4708 22.1048C25.3911 21.1539 26.9556 20.8471 28.336 21.3379C29.2563 21.6754 30.1766 22.657 30.2993 23.7C29.0416 25.6326 28.0906 27.5959 27.4464 29.5592ZM45.9135 49.5908C45.4533 51.0019 44.8091 52.3516 44.0729 53.6707C43.9195 52.9651 43.6741 52.2903 43.3367 51.6461C43.0299 51.0632 42.6618 50.511 42.2937 49.9896C43.6434 49.284 44.7785 48.241 45.576 46.8912L42.9379 45.3268C42.263 46.4618 41.2814 47.2287 40.0543 47.5968C39.4408 47.0446 38.7966 46.5231 38.1831 46.0323C41.312 44.6519 43.1833 42.0444 43.7661 40.2345L40.8519 39.2835C40.5451 40.2652 38.8579 43.026 35.2688 43.7316C34.3792 43.026 33.4896 42.2898 32.7227 41.4922C36.2198 40.5106 38.1831 37.5964 38.7966 35.8785L35.913 34.8355C35.8517 34.9889 34.5019 38.5473 30.606 38.7314C29.8085 37.2589 29.5017 35.3877 29.7164 33.4551C29.7164 33.3323 29.7471 33.2097 29.7778 33.1176C30.606 33.179 31.4036 33.2403 32.2012 33.271C34.1952 33.363 36.0664 33.4551 37.907 33.9766C41.0053 34.8355 43.5207 36.8294 45.0545 39.6517C46.6497 42.6273 46.9871 46.2471 45.9135 49.5908ZM57.0796 39.4983C55.8833 41.0934 53.1837 42.4739 49.1345 41.891C48.8277 40.6026 48.3369 39.3449 47.7234 38.1792C45.7908 34.6514 42.6004 32.1053 38.7046 31.0316C36.5572 30.4488 34.4099 30.3261 32.3239 30.2341C31.7104 30.2034 31.0969 30.1727 30.4833 30.142C31.7717 26.4609 34.4099 22.7184 37.9683 19.6507C39.3181 18.4851 43.4901 14.8959 47.0485 15.3254C48.797 15.5401 50.0855 16.3684 50.8524 17.8102C51.834 19.6814 51.8953 22.3809 51.0671 25.0191C50.2388 24.0375 49.564 22.9024 49.2572 21.4607L46.2509 22.1355C47.2632 26.7063 50.6683 29.007 53.3985 30.8783C55.055 32.0133 56.6195 33.0869 57.325 34.3753C58.3067 36.1546 58.2147 38.0258 57.0796 39.4983Z" fill="#00D198"/>
<defs>
<linearGradient id="paint0_linear_1166_528" x1="37.0004" y1="0" x2="37.0004" y2="73.1724" gradientUnits="userSpaceOnUse">
<stop stop-color="#3F3B3B"/>
<stop offset="1" stop-color="#2C2828"/>
</linearGradient>
</defs>
</svg>
