<svg width="65" height="65" viewBox="0 0 65 65" fill="none" xmlns="http://www.w3.org/2000/svg">
<g clip-path="url(#clip0_136_41667)">
<path d="M61.5695 61.891C62.0977 61.891 62.5166 61.8728 62.9537 61.891C63.8826 61.9457 64.5018 62.5649 64.4836 63.3845C64.4654 64.1859 63.8643 64.7687 62.9537 64.8233C62.7534 64.8415 62.553 64.8233 62.3345 64.8233C42.4278 64.8233 22.5211 64.8233 2.61449 64.8233C2.26844 64.8233 1.9224 64.8233 1.59457 64.7505C0.938905 64.6048 0.483584 64.0402 0.465371 63.3845C0.447158 62.7106 0.902479 62.0914 1.59457 61.9639C2.14095 61.8728 2.72377 61.891 3.37943 61.8364C3.37943 61.5632 3.37943 61.29 3.37943 61.035C3.37943 54.2416 3.37943 47.4482 3.37943 40.6548C3.37943 39.0521 3.78011 38.6514 5.38284 38.6514C9.88142 38.6514 14.38 38.6514 18.8786 38.6514C20.372 38.6514 20.8274 39.1067 20.8274 40.6184C20.8274 47.4118 20.8274 54.2052 20.8274 60.9986C20.8274 61.2718 20.8274 61.545 20.8274 61.8546C21.8108 61.8546 22.7215 61.8546 23.7232 61.8546C23.7232 61.5814 23.7232 61.3264 23.7232 61.0532C23.7232 51.3276 23.7232 41.6019 23.7232 31.8762C23.7232 30.3646 24.1603 29.9275 25.672 29.9275C30.2252 29.9275 34.7602 29.9275 39.3134 29.9275C40.7158 29.9275 41.1893 30.401 41.1893 31.8216C41.1893 41.5473 41.1893 51.2729 41.1893 60.9986C41.1893 61.2718 41.1893 61.545 41.1893 61.8546C42.1546 61.8546 43.0653 61.8546 44.0852 61.8546C44.0852 61.5632 44.0852 61.29 44.0852 60.9986C44.0852 48.4499 44.0852 35.9013 44.0852 23.3526C44.0852 23.0794 44.067 22.8062 44.1034 22.533C44.1945 21.7135 44.7226 21.2035 45.5604 21.1853C50.405 21.1671 55.2497 21.1671 60.0761 21.1853C60.9867 21.1853 61.4967 21.7317 61.5331 22.6423C61.5513 22.8973 61.5331 23.1341 61.5331 23.389C61.5331 35.8831 61.5331 48.3953 61.5331 60.8893C61.5695 61.199 61.5695 61.4904 61.5695 61.891ZM58.6373 61.8546C58.6373 49.2513 58.6373 36.6844 58.6373 24.1176C54.7579 24.1176 50.9332 24.1176 47.0903 24.1176C47.0903 36.7027 47.0903 49.2695 47.0903 61.8546C50.9514 61.8546 54.7761 61.8546 58.6373 61.8546ZM38.2753 61.8546C38.2753 52.1654 38.2753 42.4943 38.2753 32.8415C34.3959 32.8415 30.5712 32.8415 26.7101 32.8415C26.7101 42.5308 26.7101 52.1654 26.7101 61.8546C30.5894 61.8546 34.4141 61.8546 38.2753 61.8546ZM17.8951 61.8546C17.8951 55.043 17.8951 48.3042 17.8951 41.5837C14.0157 41.5837 10.191 41.5837 6.36634 41.5837C6.36634 48.3589 6.36634 55.0976 6.36634 61.8546C10.2093 61.8546 14.034 61.8546 17.8951 61.8546Z" fill="white"/>
<path d="M58.9847 3.71922C58.7479 3.71922 58.493 3.71922 58.2562 3.71922C56.0342 3.71922 53.794 3.73743 51.5721 3.71922C50.3154 3.70101 49.5869 2.60824 50.115 1.60653C50.3882 1.07836 50.8618 0.805164 51.4446 0.805164C55.2875 0.786951 59.1304 0.786951 62.9551 0.805164C64.0479 0.805164 64.6489 1.62474 64.3939 2.6993C63.4651 6.54222 62.4998 10.3669 61.5163 14.1916C61.2977 15.0476 60.5146 15.5029 59.7679 15.3026C58.9483 15.084 58.5112 14.3191 58.7297 13.4449C59.2215 11.4415 59.7314 9.43806 60.2232 7.43465C60.296 7.17967 60.3507 6.90647 60.4417 6.50579C59.4218 7.34358 58.5294 8.10852 57.6187 8.83704C43.3217 20.3476 27.1668 27.9605 9.17253 31.5849C6.89592 32.0402 4.61932 32.3863 2.32449 32.7687C1.37743 32.9327 0.648911 32.4227 0.503209 31.5667C0.375718 30.7653 0.903892 30.0914 1.83275 29.9093C5.876 29.108 9.9739 28.4887 13.9807 27.5052C29.4252 23.6441 43.3034 16.6321 55.6882 6.6697C56.8174 5.75906 57.9284 4.81199 59.0393 3.88314C59.0211 3.8285 59.0029 3.77386 58.9847 3.71922Z" fill="white"/>
</g>
<defs>
<clipPath id="clip0_136_41667">
<rect width="64" height="64.0364" fill="white" transform="translate(0.5 0.787598)"/>
</clipPath>
</defs>
</svg>
