<svg width="148" height="51" viewBox="0 0 148 51" fill="none" xmlns="http://www.w3.org/2000/svg">
<rect x="1.44339" y="1.58489" width="145.943" height="47.8302" rx="7.9717" fill="#0C0D10"/>
<rect x="1.44339" y="1.58489" width="145.943" height="47.8302" rx="7.9717" stroke="#A6A6A6" stroke-width="1.22642"/>
<path d="M100.815 24.5198V27.3295H99.0536V29.1721H100.815V35.433C100.815 37.5708 101.782 38.4259 104.215 38.4259C104.643 38.4259 105.05 38.375 105.406 38.314V36.4917C105.101 36.5222 104.907 36.5426 104.571 36.5426C103.482 36.5426 103.004 36.0336 103.004 34.8731V29.1721H105.406V27.3295H103.004V24.5198H100.815Z" fill="white"/>
<path d="M111.604 38.5787C114.841 38.5787 116.827 36.4103 116.827 32.8167C116.827 29.2434 114.831 27.0648 111.604 27.0648C108.367 27.0648 106.372 29.2434 106.372 32.8167C106.372 36.4103 108.357 38.5787 111.604 38.5787ZM111.604 36.6342C109.7 36.6342 108.632 35.2395 108.632 32.8167C108.632 30.4141 109.7 29.0093 111.604 29.0093C113.498 29.0093 114.577 30.4141 114.577 32.8167C114.577 35.2294 113.498 36.6342 111.604 36.6342Z" fill="white"/>
<path d="M118.525 38.3649H120.714V31.819C120.714 30.2614 121.885 29.2129 123.544 29.2129C123.931 29.2129 124.582 29.2841 124.766 29.3452V27.187C124.531 27.1259 124.114 27.0954 123.788 27.0954C122.343 27.0954 121.111 27.8894 120.795 28.9787H120.632V27.2786H118.525V38.3649Z" fill="white"/>
<path d="M130.2 28.9278C131.819 28.9278 132.878 30.0578 132.928 31.7986H127.329C127.451 30.068 128.581 28.9278 130.2 28.9278ZM132.918 35.3719C132.511 36.2372 131.605 36.7157 130.282 36.7157C128.531 36.7157 127.401 35.4839 127.329 33.5394V33.4173H135.158V32.6538C135.158 29.1721 133.295 27.0648 130.21 27.0648C127.085 27.0648 125.1 29.3147 125.1 32.8574C125.1 36.4001 127.044 38.5787 130.22 38.5787C132.755 38.5787 134.527 37.357 135.026 35.3719H132.918Z" fill="white"/>
<path d="M86.4613 34.2709C86.6301 36.9932 88.8987 38.7342 92.2752 38.7342C95.8838 38.7342 98.1418 36.9088 98.1418 33.9966C98.1418 31.7069 96.8545 30.4407 93.7313 29.7127L92.0536 29.3011C90.0699 28.8369 89.268 28.2143 89.268 27.1275C89.268 25.7558 90.5131 24.859 92.3807 24.859C94.1533 24.859 95.3773 25.7347 95.5989 27.1381H97.8991C97.7619 24.5741 95.5039 22.7698 92.4123 22.7698C89.0886 22.7698 86.8728 24.5741 86.8728 27.2858C86.8728 29.5227 88.1284 30.8522 90.8824 31.4959L92.845 31.9707C94.8603 32.4455 95.7466 33.1419 95.7466 34.3025C95.7466 35.6531 94.3538 36.6344 92.4546 36.6344C90.4181 36.6344 89.0042 35.7164 88.8037 34.2709H86.4613Z" fill="white"/>
<path d="M63.7882 27.0954C62.2815 27.0954 60.9784 27.8487 60.3065 29.1111H60.1436V27.2786H58.0363V42.0501H60.2251V36.6851H60.3982C60.9784 37.8559 62.2306 38.5481 63.8085 38.5481C66.6081 38.5481 68.3896 36.339 68.3896 32.8167C68.3896 29.2943 66.6081 27.0954 63.7882 27.0954ZM63.1672 36.5833C61.3347 36.5833 60.1844 35.1377 60.1844 32.8268C60.1844 30.5057 61.3347 29.0602 63.1774 29.0602C65.0301 29.0602 66.1398 30.4752 66.1398 32.8167C66.1398 35.1683 65.0301 36.5833 63.1672 36.5833Z" fill="white"/>
<path d="M76.0484 27.0954C74.5417 27.0954 73.2386 27.8487 72.5668 29.1111H72.4039V27.2786H70.2966V42.0501H72.4853V36.6851H72.6584C73.2386 37.8559 74.4908 38.5481 76.0687 38.5481C78.8683 38.5481 80.6498 36.339 80.6498 32.8167C80.6498 29.2943 78.8683 27.0954 76.0484 27.0954ZM75.4274 36.5833C73.595 36.5833 72.4446 35.1377 72.4446 32.8268C72.4446 30.5057 73.595 29.0602 75.4376 29.0602C77.2904 29.0602 78.4 30.4752 78.4 32.8167C78.4 35.1683 77.2904 36.5833 75.4274 36.5833Z" fill="white"/>
<path d="M54.1094 38.3649H56.6206L51.1233 23.1391H48.5804L43.0831 38.3649H45.5099L46.9133 34.3236H52.7166L54.1094 38.3649ZM49.7305 25.9036H49.9099L52.1151 32.34H47.5147L49.7305 25.9036Z" fill="white"/>
<path d="M44.5533 11.6549V18.9999H47.2052C49.3939 18.9999 50.6614 17.651 50.6614 15.3045C50.6614 12.9936 49.3838 11.6549 47.2052 11.6549H44.5533ZM45.6934 12.6932H47.078C48.5999 12.6932 49.5008 13.6604 49.5008 15.3197C49.5008 17.0046 48.6152 17.9615 47.078 17.9615H45.6934V12.6932Z" fill="white"/>
<path d="M54.5431 19.1068C56.1617 19.1068 57.1543 18.0226 57.1543 16.2258C57.1543 14.4391 56.1567 13.3499 54.5431 13.3499C52.9244 13.3499 51.9268 14.4391 51.9268 16.2258C51.9268 18.0226 52.9194 19.1068 54.5431 19.1068ZM54.5431 18.1346C53.5912 18.1346 53.0568 17.4372 53.0568 16.2258C53.0568 15.0245 53.5912 14.3221 54.5431 14.3221C55.4899 14.3221 56.0294 15.0245 56.0294 16.2258C56.0294 17.4321 55.4899 18.1346 54.5431 18.1346Z" fill="white"/>
<path d="M65.6069 13.4568H64.5126L63.5251 17.6866H63.4386L62.2984 13.4568H61.2498L60.1096 17.6866H60.0282L59.0356 13.4568H57.926L59.453 18.9999H60.5779L61.7181 14.9176H61.8046L62.9499 18.9999H64.085L65.6069 13.4568Z" fill="white"/>
<path d="M66.8672 18.9999H67.9616V15.7575C67.9616 14.8922 68.4757 14.3526 69.285 14.3526C70.0944 14.3526 70.4812 14.7954 70.4812 15.6862V18.9999H71.5756V15.4113C71.5756 14.093 70.8935 13.3499 69.6566 13.3499C68.8218 13.3499 68.2721 13.7214 68.0023 14.3373H67.9209V13.4568H66.8672V18.9999Z" fill="white"/>
<path d="M73.2991 18.9999H74.3935V11.2935H73.2991V18.9999Z" fill="white"/>
<path d="M78.5093 19.1068C80.128 19.1068 81.1206 18.0226 81.1206 16.2258C81.1206 14.4391 80.1229 13.3499 78.5093 13.3499C76.8907 13.3499 75.893 14.4391 75.893 16.2258C75.893 18.0226 76.8856 19.1068 78.5093 19.1068ZM78.5093 18.1346C77.5575 18.1346 77.023 17.4372 77.023 16.2258C77.023 15.0245 77.5575 14.3221 78.5093 14.3221C79.4561 14.3221 79.9956 15.0245 79.9956 16.2258C79.9956 17.4321 79.4561 18.1346 78.5093 18.1346Z" fill="white"/>
<path d="M84.3813 18.1702C83.7857 18.1702 83.3531 17.88 83.3531 17.3812C83.3531 16.8926 83.6992 16.633 84.4627 16.5821L85.8167 16.4955V16.9587C85.8167 17.6459 85.2059 18.1702 84.3813 18.1702ZM84.1013 19.0915C84.8292 19.0915 85.4349 18.7759 85.7658 18.2211H85.8523V18.9999H86.906V15.2128C86.906 14.0421 86.1221 13.3499 84.7325 13.3499C83.4752 13.3499 82.5794 13.9607 82.4674 14.9125H83.5261C83.6483 14.5206 84.0708 14.2966 84.6816 14.2966C85.4298 14.2966 85.8167 14.6275 85.8167 15.2128V15.6913L84.3151 15.7778C82.9968 15.8593 82.2536 16.4345 82.2536 17.4321C82.2536 18.4451 83.0324 19.0915 84.1013 19.0915Z" fill="white"/>
<path d="M90.6197 19.0915C91.3832 19.0915 92.0297 18.7301 92.3605 18.1244H92.447V18.9999H93.4956V11.2935H92.4012V14.3373H92.3198C92.0195 13.7265 91.3781 13.3651 90.6197 13.3651C89.2199 13.3651 88.319 14.4748 88.319 16.2258C88.319 17.9819 89.2097 19.0915 90.6197 19.0915ZM90.9302 14.3475C91.8464 14.3475 92.4216 15.0754 92.4216 16.2309C92.4216 17.3914 91.8515 18.1091 90.9302 18.1091C90.0038 18.1091 89.449 17.4016 89.449 16.2258C89.449 15.0601 90.0089 14.3475 90.9302 14.3475Z" fill="white"/>
<path d="M100.592 19.1068C102.211 19.1068 103.203 18.0226 103.203 16.2258C103.203 14.4391 102.206 13.3499 100.592 13.3499C98.9736 13.3499 97.9759 14.4391 97.9759 16.2258C97.9759 18.0226 98.9685 19.1068 100.592 19.1068ZM100.592 18.1346C99.6404 18.1346 99.1059 17.4372 99.1059 16.2258C99.1059 15.0245 99.6404 14.3221 100.592 14.3221C101.539 14.3221 102.079 15.0245 102.079 16.2258C102.079 17.4321 101.539 18.1346 100.592 18.1346Z" fill="white"/>
<path d="M104.652 18.9999H105.746V15.7575C105.746 14.8922 106.261 14.3526 107.07 14.3526C107.879 14.3526 108.266 14.7954 108.266 15.6862V18.9999H109.36V15.4113C109.36 14.093 108.678 13.3499 107.441 13.3499C106.607 13.3499 106.057 13.7214 105.787 14.3373H105.706V13.4568H104.652V18.9999Z" fill="white"/>
<path d="M114.401 12.0773V13.4822H113.52V14.4035H114.401V17.5339C114.401 18.6028 114.884 19.0304 116.101 19.0304C116.315 19.0304 116.518 19.005 116.696 18.9744V18.0633C116.544 18.0786 116.447 18.0887 116.279 18.0887C115.734 18.0887 115.495 17.8342 115.495 17.254V14.4035H116.696V13.4822H115.495V12.0773H114.401Z" fill="white"/>
<path d="M118.165 18.9999H119.26V15.7626C119.26 14.9227 119.758 14.3577 120.654 14.3577C121.428 14.3577 121.84 14.8056 121.84 15.6913V18.9999H122.935V15.4215C122.935 14.1032 122.207 13.3549 121.026 13.3549C120.191 13.3549 119.606 13.7265 119.336 14.3475H119.249V11.2935H118.165V18.9999Z" fill="white"/>
<path d="M126.883 14.2813C127.692 14.2813 128.221 14.8463 128.247 15.7168H125.447C125.508 14.8514 126.073 14.2813 126.883 14.2813ZM128.242 17.5034C128.038 17.936 127.585 18.1753 126.923 18.1753C126.048 18.1753 125.483 17.5594 125.447 16.5872V16.5261H129.361V16.1443C129.361 14.4035 128.43 13.3499 126.888 13.3499C125.325 13.3499 124.332 14.4748 124.332 16.2461C124.332 18.0175 125.305 19.1068 126.893 19.1068C128.16 19.1068 129.046 18.496 129.295 17.5034H128.242Z" fill="white"/>
<path d="M31.2073 25.8688C31.2338 23.8072 32.341 21.8565 34.0974 20.7767C32.9893 19.1942 31.1334 18.1909 29.2026 18.1305C27.1431 17.9143 25.1466 19.3628 24.0971 19.3628C23.0273 19.3628 21.4115 18.1519 19.6716 18.1877C17.4036 18.261 15.2893 19.5504 14.1859 21.5332C11.814 25.6398 13.5833 31.675 15.8553 34.9945C16.9921 36.6199 18.3206 38.4355 20.059 38.3712C21.7601 38.3006 22.3955 37.2864 24.4489 37.2864C26.4832 37.2864 27.0793 38.3712 28.8529 38.3302C30.6783 38.3006 31.8284 36.6976 32.9252 35.0567C33.742 33.8986 34.3705 32.6185 34.7875 31.264C32.6423 30.3567 31.2098 28.198 31.2073 25.8688Z" fill="white"/>
<path d="M27.8571 15.9475C28.8524 14.7527 29.3427 13.217 29.224 11.6665C27.7034 11.8262 26.2989 12.5529 25.2901 13.7019C24.3038 14.8245 23.7904 16.3331 23.8875 17.8243C25.4086 17.84 26.9039 17.133 27.8571 15.9475Z" fill="white"/>
</svg>
