<svg width="65" height="65" viewBox="0 0 65 65" fill="none" xmlns="http://www.w3.org/2000/svg">
<g clip-path="url(#clip0_136_41673)">
<path d="M37.7297 54.1954C38.5807 57.227 39.4139 60.2053 40.2472 63.2192C41.3818 63.2192 42.481 63.2192 43.5801 63.2192C44.2361 63.2192 44.5907 63.5028 44.6084 63.9992C44.6084 64.4956 44.2538 64.797 43.6156 64.797C34.8754 64.797 26.1353 64.797 17.3951 64.797C16.7569 64.797 16.3668 64.4779 16.4023 63.9815C16.4555 63.3787 16.8632 63.1837 17.4306 63.2015C18.3879 63.2192 19.3275 63.2192 20.2848 63.1837C20.4799 63.1837 20.799 62.9887 20.8522 62.8292C21.6677 59.9926 22.4655 57.1383 23.2987 54.1776C22.9796 54.1776 22.7314 54.1776 22.4832 54.1776C16.9519 54.1776 11.4206 54.1776 5.88928 54.1776C2.55632 54.1776 0.570721 52.192 0.570721 48.8591C0.570721 37.9029 0.623906 26.9466 0.535264 16.0081C0.517535 12.8347 2.69814 10.335 6.01338 10.53C6.22612 10.5477 6.45659 10.53 6.79344 10.53C6.79344 10.2641 6.79344 10.0336 6.79344 9.80313C6.79344 8.45576 6.77571 7.10839 6.81116 5.76102C6.81116 3.0131 8.99177 0.86795 11.7397 0.814764C12.3425 0.797036 12.9275 0.814764 13.5303 0.814764C25.3375 0.814764 37.1624 0.814764 48.9696 0.814764C51.5225 0.814764 53.5258 2.32169 54.0932 4.69731C54.2173 5.22917 54.235 5.79648 54.2527 6.34607C54.2704 7.71116 54.2527 9.07626 54.2527 10.5477C54.6427 10.5477 54.9973 10.5477 55.3342 10.5477C58.3657 10.5655 60.4222 12.6042 60.44 15.6181C60.4577 19.9793 60.4577 24.3405 60.44 28.7017C60.44 29.1627 60.5463 29.4818 60.9009 29.7832C65.6876 34.0912 65.7231 41.4486 60.9718 45.8275C60.5818 46.1998 60.44 46.5544 60.44 47.0862C60.44 48.2386 60.3513 49.3732 60.3159 50.5256C60.3159 50.756 60.3868 51.0042 60.4577 51.2347C61.5569 54.6918 62.656 58.1311 63.7375 61.5882C64.1807 63.0064 63.4538 64.3361 62.071 64.7084C60.7768 65.063 59.5535 64.3538 59.0926 62.9533C58.2416 60.2763 57.3729 57.617 56.5574 54.9222C56.3801 54.3372 56.1497 54.1599 55.5114 54.1599C49.856 54.1954 44.1829 54.1776 38.5275 54.1776C38.297 54.1954 38.0488 54.1954 37.7297 54.1954ZM45.2643 44.7993C45.0516 44.4801 44.9098 44.3206 44.7857 44.1256C40.1585 37.6015 43.9524 28.4535 51.8416 27.1594C52.5508 27.0353 52.6749 26.8048 52.6749 26.1666C52.6571 19.5716 52.6571 12.9765 52.6571 6.38152C52.6571 3.77543 51.292 2.41033 48.7037 2.41033C36.5596 2.41033 24.4156 2.44579 12.2716 2.37487C10.0378 2.37487 8.30036 3.89953 8.31809 6.32834C8.389 17.8519 8.37127 29.3754 8.31809 40.899C8.30036 43.1505 9.8782 44.817 12.2361 44.817C22.9619 44.7461 33.6876 44.7815 44.4134 44.7815C44.6616 44.7993 44.892 44.7993 45.2643 44.7993ZM56.8234 50.4369C56.6638 49.9051 56.4688 49.4441 56.3624 48.9477C56.256 48.4868 56.0256 48.4336 55.6001 48.5222C52.6217 49.0718 49.9092 48.4159 47.4095 46.7317C47.1258 46.5366 46.7358 46.4125 46.3812 46.4125C31.8616 46.3771 17.3596 46.3771 2.8577 46.3771C2.62723 46.3771 2.39676 46.3771 2.13083 46.3771C2.13083 47.2635 2.13083 48.0258 2.13083 48.8059C2.13083 51.3411 3.37183 52.5998 5.90701 52.5998C22.2704 52.5998 38.6339 52.5998 54.9973 52.5998C55.2455 52.5998 55.476 52.5998 55.7242 52.5998C55.5114 51.0397 55.5114 51.0397 56.8234 50.4369ZM62.922 37.8319C62.922 32.7439 58.7735 28.5776 53.6854 28.5599C48.5796 28.5422 44.3779 32.7261 44.3779 37.8319C44.3779 42.92 48.5973 47.1217 53.6854 47.104C58.7735 47.104 62.922 42.9378 62.922 37.8319ZM2.13083 44.7461C4.11643 44.7461 6.03111 44.7461 8.08762 44.7461C6.72252 43.2923 6.74025 41.5904 6.75798 39.8707C6.77571 30.9178 6.77571 21.9649 6.77571 13.012C6.77571 12.7283 6.77571 12.4624 6.77571 12.1965C3.58457 11.7178 2.07765 13.5793 2.09537 16.1145C2.18402 25.3688 2.13083 34.6408 2.13083 43.8951C2.13083 44.161 2.13083 44.427 2.13083 44.7461ZM36.0632 54.1954C32.4289 54.1954 28.83 54.1954 25.2311 54.2131C25.0893 54.2131 24.8765 54.4436 24.8233 54.6031C24.5574 55.4364 24.327 56.3051 24.0965 57.156C23.5469 59.1594 22.9796 61.145 22.4123 63.1837C27.8195 63.1837 33.1558 63.1837 38.5807 63.1837C37.7297 60.1699 36.8965 57.2092 36.0632 54.1954ZM54.2882 26.8225C55.8483 27.2657 57.3197 27.6912 58.8089 28.1167C58.8089 28.0458 58.8444 27.904 58.8444 27.7621C58.8444 23.7023 58.8444 19.6425 58.8444 15.5649C58.8444 15.1926 58.8089 14.8026 58.7026 14.4657C58.1707 12.7106 56.4156 11.8242 54.3059 12.2319C54.2882 17.1073 54.2882 22.0004 54.2882 26.8225ZM57.302 52.0325C57.7275 53.3799 58.1353 54.6386 58.543 55.8973C59.2344 58.0779 59.9258 60.2763 60.635 62.4569C60.8832 63.2192 61.6101 63.5028 62.0178 62.971C62.2128 62.7228 62.2483 62.2087 62.1596 61.8896C61.1491 58.5743 60.0854 55.2945 59.0394 51.997C58.9862 51.8552 58.933 51.7311 58.8621 51.5538C58.3125 51.6956 57.8339 51.8552 57.302 52.0325ZM57.692 47.9195C57.8871 48.5577 58.0643 49.0896 58.2594 49.6391C58.2948 49.7632 58.4366 49.8342 58.543 49.9405C58.6494 49.8164 58.8267 49.7101 58.8267 49.586C58.8621 48.8945 58.8444 48.2031 58.8444 47.4231C58.4189 47.6004 58.0821 47.7599 57.692 47.9195Z" fill="white"/>
<path d="M19.6658 34.1096C20.6232 33.9501 21.4032 33.8437 22.1478 33.7019C22.3074 33.6664 22.4847 33.5246 22.5733 33.4005C23.0697 32.5141 23.5306 31.6099 24.027 30.7235C24.2221 30.3866 24.1866 30.1739 23.9384 29.8548C23.1761 28.862 23.1229 27.5501 23.7611 26.4864C24.3993 25.4226 25.5872 24.8908 26.8281 25.0858C28.0514 25.2808 29.0619 26.1672 29.2392 27.4082C29.3279 28.0642 29.1506 28.7911 28.9556 29.447C28.8492 29.7839 28.796 29.9966 29.0619 30.2625C29.257 30.4753 29.3811 30.7589 29.6115 30.9185C29.8065 31.0603 30.0725 31.149 30.3207 31.1844C30.6043 31.2021 30.9057 31.0426 31.1716 31.1135C31.7921 31.2731 32.0581 30.9717 32.3417 30.493C33.5827 28.401 34.8592 26.3268 36.1534 24.1994C33.8132 22.1429 32.5899 19.5545 32.7318 16.4343C32.8381 14.0232 33.7955 11.9312 35.5151 10.2293C38.8658 6.91405 44.1312 6.59494 47.8719 9.50242C51.5772 12.3744 52.57 17.5334 50.2475 21.611C48.1201 25.334 42.9257 27.9401 37.4475 25.139C36.5611 26.5927 35.6747 28.0287 34.806 29.4825C34.3982 30.1384 34.0259 30.8121 33.6004 31.4681C33.3522 31.8404 33.3168 32.1063 33.5827 32.5141C34.2564 33.5423 34.2564 34.6592 33.6004 35.7052C32.9445 36.7512 31.9517 37.2298 30.7284 37.088C29.5229 36.9639 28.7074 36.2725 28.2464 35.1556C27.9096 34.3224 27.9628 33.4891 28.406 32.7268C28.6187 32.3545 28.5478 32.124 28.2996 31.8581C28.1401 31.6808 27.9805 31.4858 27.8564 31.2731C27.6437 30.9008 27.36 30.8298 26.97 30.9717C26.8459 31.0249 26.7041 31.078 26.58 31.0426C25.6935 30.7944 25.3921 31.3794 25.0908 32.0354C24.7716 32.7091 24.3993 33.365 24.027 34.021C23.8498 34.3224 23.832 34.5174 24.0802 34.8365C24.9667 35.9888 24.9312 37.4958 24.0625 38.5772C23.1583 39.6764 21.6691 40.0132 20.4104 39.3927C19.1517 38.7722 18.5135 37.4426 18.7971 36.0066C18.9035 35.5102 18.9035 35.5102 18.0703 34.9429C17.1129 35.5634 16.0669 35.7406 14.95 35.2797C14.8437 35.2265 14.5777 35.4215 14.4359 35.5634C13.4431 36.6271 12.4503 37.6908 11.4398 38.7545C11.3157 38.8786 11.1916 39.0204 11.0675 39.1445C10.5711 39.6587 10.1101 39.7296 9.75557 39.3927C9.38327 39.0382 9.41873 38.5772 9.8974 38.0631C10.9788 36.893 12.0603 35.7229 13.1949 34.606C13.5318 34.2515 13.6027 33.9855 13.4254 33.5246C12.9467 32.319 13.3545 30.9894 14.365 30.1739C15.3401 29.3761 16.7052 29.2875 17.7866 29.9257C18.8858 30.5816 19.4531 31.8581 19.2049 33.0991C19.0631 33.7196 19.0631 33.7196 19.6658 34.1096ZM41.9329 9.11239C37.6071 9.25422 34.1678 12.8177 34.2741 17.0725C34.3805 21.4692 37.9971 24.8376 42.447 24.7135C46.6309 24.5894 50.0348 20.9019 49.893 16.6293C49.7689 12.4276 46.1168 8.98829 41.9329 9.11239ZM24.9312 28.0465C24.9312 28.8088 25.534 29.447 26.2963 29.4647C27.0763 29.4825 27.7323 28.8265 27.7323 28.0465C27.7323 27.2487 27.0763 26.6105 26.2963 26.6282C25.534 26.6459 24.9312 27.2664 24.9312 28.0465ZM14.8437 32.5141C14.8437 33.2941 15.4287 33.9146 16.191 33.9501C16.9711 33.9855 17.6448 33.3296 17.6448 32.5495C17.6448 31.7695 16.9888 31.0958 16.2088 31.1135C15.4642 31.1135 14.8437 31.7517 14.8437 32.5141ZM31.0475 35.5102C31.8276 35.5102 32.4481 34.9074 32.4658 34.1273C32.4836 33.3473 31.8276 32.6736 31.0475 32.6736C30.3029 32.6736 29.647 33.3118 29.6293 34.0564C29.6115 34.8542 30.2675 35.5102 31.0475 35.5102ZM23.1406 36.7157C23.1583 35.9357 22.5733 35.3152 21.7932 35.2797C20.9955 35.2442 20.3395 35.8647 20.3218 36.6625C20.3041 37.4426 20.96 38.1163 21.7401 38.0985C22.5024 38.0985 23.1229 37.478 23.1406 36.7157Z" fill="white"/>
<path d="M17.5543 16.1848C19.008 16.1848 20.4795 16.1848 21.9332 16.1848C22.6424 16.1848 23.0147 16.4685 22.9792 17.0003C22.9437 17.6386 22.5005 17.7804 21.9687 17.7804C19.0435 17.7804 16.136 17.7804 13.2108 17.7804C12.5194 17.7804 12.1116 17.479 12.1648 16.9649C12.218 16.3444 12.6435 16.1848 13.193 16.1848C14.6291 16.1848 16.1005 16.1848 17.5543 16.1848Z" fill="white"/>
<path d="M17.5891 11.4348C19.0429 11.4348 20.5144 11.4348 21.9681 11.4348C22.6418 11.4348 22.9786 11.7007 22.9786 12.2149C22.9786 12.729 22.6418 13.0127 21.9858 13.0304C19.0429 13.0304 16.0999 13.0304 13.157 13.0304C12.5188 13.0304 12.1465 12.729 12.1465 12.2503C12.1465 11.7539 12.5011 11.4525 13.1393 11.4525C14.6285 11.4348 16.0999 11.4348 17.5891 11.4348Z" fill="white"/>
<path d="M61.5931 38.0101C61.5576 38.2583 61.5222 38.666 61.469 39.0915C61.3803 39.7829 61.0435 40.102 60.5294 40.0311C60.0152 39.9602 59.7848 39.5524 59.9089 38.861C60.1748 37.3009 59.8557 35.8649 59.0579 34.553C58.1892 33.1347 56.9482 32.2128 55.3349 31.7696C55.1931 31.7342 55.0335 31.6987 54.8917 31.6455C54.413 31.486 54.2003 31.1491 54.3421 30.6704C54.4662 30.1918 54.8385 30.0145 55.3172 30.1209C57.7637 30.6705 59.572 32.071 60.7421 34.3048C61.2917 35.3862 61.5576 36.5741 61.5931 38.0101Z" fill="white"/>
<path d="M41.2943 12.5505C41.2943 12.1959 41.2765 11.8236 41.2943 11.4513C41.3297 10.9727 41.5956 10.6536 42.092 10.6536C42.5884 10.6536 42.8544 10.9727 42.8721 11.4691C42.8898 11.8236 42.8721 12.1782 42.8721 12.5682C43.8472 12.9405 44.6272 13.5079 44.8754 14.5893C45.035 15.2984 44.8577 15.7771 44.3258 15.8658C43.6699 15.9899 43.4217 15.5998 43.333 15.0148C43.2444 14.5007 42.8544 14.217 42.3757 14.1284C41.8438 14.0397 41.3474 14.1284 41.0106 14.5893C40.7269 14.9616 40.7092 15.3516 41.1702 15.5998C41.7197 15.8835 42.2871 16.1317 42.8366 16.3976C43.0494 16.504 43.2798 16.6104 43.4926 16.7167C44.3258 17.1422 44.9641 17.745 44.9463 18.7555C44.9286 19.8192 44.379 20.617 43.4039 21.0248C42.9253 21.2198 42.8366 21.4857 42.8721 21.9289C42.8898 22.1062 42.8898 22.2835 42.8721 22.4608C42.8189 22.9217 42.5175 23.2585 42.092 23.1699C41.7907 23.1167 41.312 22.709 41.3474 22.5317C41.4715 21.5566 40.9397 21.1489 40.2305 20.6525C39.7519 20.3156 39.4859 19.6065 39.2732 19.0037C39.0959 18.525 39.3441 18.0641 39.9114 17.9754C40.4433 17.9045 40.6915 18.2236 40.8156 18.7378C41.0283 19.6774 42.0743 20.0674 42.8898 19.5356C43.5103 19.1278 43.5103 18.5428 42.8721 18.2059C42.2516 17.8691 41.5956 17.6031 40.9574 17.3018C40.0178 16.8586 39.2023 16.2912 39.2377 15.1034C39.2732 13.8802 39.9823 13.1178 41.0815 12.6746C41.1347 12.6214 41.1879 12.6037 41.2943 12.5505Z" fill="white"/>
</g>
<defs>
<clipPath id="clip0_136_41673">
<rect width="64" height="63.9823" fill="white" transform="translate(0.5 0.814697)"/>
</clipPath>
</defs>
</svg>
