<svg width="166" height="51" viewBox="0 0 166 51" fill="none" xmlns="http://www.w3.org/2000/svg">
<rect x="0.613208" y="1.58489" width="164.34" height="47.8302" rx="5.51887" fill="black"/>
<rect x="0.613208" y="1.58489" width="164.34" height="47.8302" rx="5.51887" stroke="#A6A6A6" stroke-width="1.22642"/>
<path d="M131.146 37.7641H133.435V22.432H131.146V37.7641ZM151.759 27.9552L149.135 34.6023H149.057L146.334 27.9552H143.869L147.953 37.2453L145.624 42.4135H148.011L154.303 27.9552H151.759ZM138.779 36.0227C138.031 36.0227 136.985 35.6476 136.985 34.7206C136.985 33.5373 138.288 33.0836 139.411 33.0836C140.417 33.0836 140.891 33.3002 141.502 33.5963C141.324 35.0167 140.102 36.0227 138.779 36.0227ZM139.057 27.6198C137.4 27.6198 135.684 28.3499 134.974 29.9673L137.005 30.8152C137.439 29.9673 138.247 29.6913 139.096 29.6913C140.279 29.6913 141.482 30.4008 141.502 31.6637V31.8213C141.088 31.5846 140.2 31.2296 139.115 31.2296C136.925 31.2296 134.697 32.4325 134.697 34.6813C134.697 36.7327 136.492 38.0544 138.503 38.0544C140.041 38.0544 140.891 37.364 141.422 36.555H141.502V37.7392H143.712V31.8605C143.712 29.1385 141.679 27.6198 139.057 27.6198ZM124.914 29.8216H121.659V24.5663H124.914C126.624 24.5663 127.596 25.9824 127.596 27.1939C127.596 28.382 126.624 29.8216 124.914 29.8216ZM124.855 22.432H119.371V37.7641H121.659V31.9554H124.855C127.391 31.9554 129.884 30.1196 129.884 27.1939C129.884 24.2688 127.391 22.432 124.855 22.432ZM94.953 36.0255C93.372 36.0255 92.0488 34.7014 92.0488 32.8843C92.0488 31.0462 93.372 29.7032 94.953 29.7032C96.5139 29.7032 97.7388 31.0462 97.7388 32.8843C97.7388 34.7014 96.5139 36.0255 94.953 36.0255ZM97.5807 28.8137H97.5016C96.9881 28.2014 95.9997 27.6481 94.7557 27.6481C92.1471 27.6481 89.7566 29.9404 89.7566 32.8843C89.7566 35.8081 92.1471 38.0803 94.7557 38.0803C95.9997 38.0803 96.9881 37.5269 97.5016 36.8951H97.5807V37.6453C97.5807 39.6416 96.5139 40.708 94.7949 40.708C93.3926 40.708 92.5232 39.7005 92.1672 38.8511L90.1719 39.6809C90.7444 41.0634 92.2654 42.7632 94.7949 42.7632C97.4825 42.7632 99.7547 41.1823 99.7547 37.3291V27.9643H97.5807V28.8137ZM101.336 37.7641H103.627V22.432H101.336V37.7641ZM107.005 32.7061C106.946 30.6906 108.567 29.6635 109.732 29.6635C110.642 29.6635 111.411 30.1181 111.669 30.7697L107.005 32.7061ZM114.118 30.9671C113.684 29.802 112.36 27.6481 109.653 27.6481C106.966 27.6481 104.733 29.7622 104.733 32.8642C104.733 35.7885 106.946 38.0803 109.91 38.0803C112.3 38.0803 113.684 36.6186 114.257 35.7687L112.479 34.583C111.886 35.4526 111.076 36.0255 109.91 36.0255C108.744 36.0255 107.914 35.4919 107.381 34.4447L114.355 31.5602L114.118 30.9671ZM58.552 29.2486V31.4614H63.8471C63.689 32.7061 63.2741 33.6149 62.6417 34.2472C61.8709 35.0175 60.6656 35.8675 58.552 35.8675C55.2918 35.8675 52.7432 33.2397 52.7432 29.9797C52.7432 26.7196 55.2918 24.0915 58.552 24.0915C60.3106 24.0915 61.5945 24.7832 62.543 25.6724L64.1044 24.1112C62.7802 22.8468 61.022 21.8787 58.552 21.8787C54.086 21.8787 50.3321 25.5143 50.3321 29.9797C50.3321 34.4447 54.086 38.0803 58.552 38.0803C60.9622 38.0803 62.7802 37.2899 64.2026 35.8081C65.6647 34.346 66.1194 32.2912 66.1194 30.6313C66.1194 30.1181 66.0795 29.6439 66.0005 29.2486H58.552ZM72.1393 36.0255C70.5584 36.0255 69.195 34.7215 69.195 32.8642C69.195 30.9872 70.5584 29.7032 72.1393 29.7032C73.7197 29.7032 75.0831 30.9872 75.0831 32.8642C75.0831 34.7215 73.7197 36.0255 72.1393 36.0255ZM72.1393 27.6481C69.2538 27.6481 66.903 29.8412 66.903 32.8642C66.903 35.8675 69.2538 38.0803 72.1393 38.0803C75.0238 38.0803 77.375 35.8675 77.375 32.8642C77.375 29.8412 75.0238 27.6481 72.1393 27.6481ZM83.5607 36.0255C81.9808 36.0255 80.6169 34.7215 80.6169 32.8642C80.6169 30.9872 81.9808 29.7032 83.5607 29.7032C85.1417 29.7032 86.5046 30.9872 86.5046 32.8642C86.5046 34.7215 85.1417 36.0255 83.5607 36.0255ZM83.5607 27.6481C80.6763 27.6481 78.3255 29.8412 78.3255 32.8642C78.3255 35.8675 80.6763 38.0803 83.5607 38.0803C86.4462 38.0803 88.797 35.8675 88.797 32.8642C88.797 29.8412 86.4462 27.6481 83.5607 27.6481Z" fill="white"/>
<path d="M54.5474 17.2026C53.4479 17.2026 52.5021 16.8157 51.7396 16.0533C50.9767 15.2904 50.5903 14.3352 50.5903 13.2244C50.5903 12.1137 50.9769 11.1602 51.7396 10.3955C52.5021 9.63302 53.4479 9.24626 54.5474 9.24626C55.1076 9.24626 55.6304 9.34301 56.13 9.54448C56.6298 9.74597 57.0387 10.0257 57.3608 10.3917L57.4367 10.4782L56.5789 11.3357L56.4932 11.2303C56.2796 10.9679 56.008 10.7641 55.6639 10.6159C55.321 10.4681 54.9454 10.3999 54.5474 10.3999C53.773 10.3999 53.1304 10.6629 52.5938 11.1975C52.5937 11.1976 52.5934 11.1976 52.5933 11.1978C52.0689 11.7432 51.8052 12.4073 51.8052 13.2245C51.8052 14.0423 52.0692 14.7065 52.5942 15.2521C53.1308 15.7865 53.7734 16.051 54.5474 16.051C55.2563 16.051 55.8427 15.8531 56.3037 15.4612H56.3039C56.7331 15.0966 56.9906 14.6038 57.0817 13.9756H54.4248V12.845H58.23L58.2463 12.9485C58.2775 13.1473 58.2995 13.3391 58.2995 13.5234C58.2995 14.5783 57.9779 15.4395 57.3469 16.073C56.6345 16.8281 55.6978 17.2026 54.5474 17.2026L54.5474 17.2026ZM87.5893 17.2026C86.488 17.2026 85.5533 16.8156 84.8006 16.0533C84.8005 16.0533 84.8005 16.0532 84.8004 16.0531C84.8003 16.053 84.8002 16.053 84.8001 16.0529C84.0464 15.2989 83.6724 14.3434 83.6724 13.2244C83.6724 12.1055 84.0464 11.15 84.8001 10.396C84.8002 10.3959 84.8002 10.3959 84.8004 10.3958L84.8006 10.3955C85.5533 9.63318 86.4881 9.24624 87.5893 9.24624C88.6883 9.24624 89.6233 9.63328 90.376 10.407C91.13 11.1609 91.5042 12.1145 91.5042 13.2244C91.5042 14.3434 91.1302 15.2988 90.3765 16.0528L90.3762 16.0531C89.6231 16.8158 88.6794 17.2026 87.5892 17.2026L87.5893 17.2026ZM59.3884 17.0378V9.41106H59.5111H63.9434V10.5647H60.5822V12.6591H63.6138V13.7897H60.5822V15.8861H63.9434V17.0378H59.3884ZM66.7311 17.0378V10.5647H64.6692V9.41106H69.9868V10.5647H69.8642H67.9249V17.0378H66.7311ZM73.3854 17.0378V9.41106H74.5792V9.5337V17.0378H73.3854ZM77.5844 17.0378V10.5647H75.5225V9.41106H80.8401V10.5647H80.7175H78.7782V17.0378H77.5844ZM92.5639 17.0378V9.41106H93.9101L97.3361 14.8959L97.3067 13.8547V9.41106H98.5005V17.0378H97.3191L93.7283 11.2758L93.7577 12.3164V12.318V17.0378H92.5639ZM87.5893 16.0509C88.3637 16.0509 88.9959 15.7868 89.5113 15.2531L89.512 15.2521L89.5127 15.2513C90.0355 14.7285 90.2912 14.0555 90.2912 13.2244C90.2912 12.3954 90.0353 11.7201 89.5127 11.1975L89.512 11.1967L89.5113 11.196C88.996 10.6623 88.3639 10.3998 87.5893 10.3998C86.8133 10.3998 86.1812 10.6619 85.6562 11.1955L85.6557 11.196C85.1427 11.7313 84.8873 12.3956 84.8873 13.2244C84.8873 14.0552 85.1426 14.7174 85.6557 15.2528L85.6562 15.2532C86.1813 15.787 86.8135 16.0509 87.5893 16.0509V16.0509Z" fill="white"/>
<path d="M25.4046 24.7927L12.3476 38.6512C12.3481 38.6541 12.3491 38.6565 12.3496 38.6594C12.75 40.1641 14.1244 41.2722 15.7557 41.2722C16.4078 41.2722 17.02 41.0959 17.545 40.7864L17.5867 40.762L32.2841 32.2811L25.4046 24.7927Z" fill="#EA4335"/>
<path d="M38.6145 22.433L38.602 22.4244L32.2567 18.746L25.1081 25.1072L32.2816 32.2798L38.5934 28.6379C39.7 28.0406 40.4512 26.874 40.4512 25.5287C40.4512 24.1932 39.71 23.0324 38.6145 22.433Z" fill="#FBBC04"/>
<path d="M12.3471 12.3485C12.2686 12.638 12.2274 12.9411 12.2274 13.256V37.7445C12.2274 38.0588 12.2681 38.363 12.3476 38.6514L25.854 25.1474L12.3471 12.3485Z" fill="#4285F4"/>
<path d="M25.5009 25.4998L32.2592 18.7434L17.5785 10.2319C17.0449 9.91226 16.4221 9.72781 15.7557 9.72781C14.1244 9.72781 12.7481 10.8378 12.3476 12.3445C12.3471 12.346 12.3471 12.3469 12.3471 12.3483L25.5009 25.4998Z" fill="#34A853"/>
</svg>
