<svg width="64" height="70" viewBox="0 0 64 70" fill="none" xmlns="http://www.w3.org/2000/svg">
<g clip-path="url(#clip0_136_41660)">
<path d="M18.9452 69.6149C18.364 69.2154 18.1824 68.6706 18.2369 67.9804C18.2732 67.599 18.2369 67.2177 18.2369 66.7455C17.9281 66.7455 17.6557 66.7455 17.4014 66.7455C12.1165 66.7455 6.8498 66.7455 1.5649 66.7455C0.329941 66.7455 -0.0151214 66.4004 0.00303977 65.1655C0.0393621 63.0769 -0.105927 60.9702 0.16649 58.918C0.711326 54.7954 2.85434 51.6717 6.57739 49.7284C6.63187 49.6921 6.68635 49.6376 6.77716 49.565C4.68862 48.0031 3.50815 45.9691 3.50815 43.3357C3.50815 41.2653 4.27092 39.4855 5.74197 38.0326C8.72041 35.0905 13.5513 35.145 16.5297 38.069C19.2357 40.7387 19.9803 46.0599 15.5308 49.5468C17.692 50.5457 19.3447 52.0894 20.6341 54.1416C22.2686 51.708 24.339 49.8737 27.0087 48.7296C21.07 44.8794 21.7965 37.7784 25.4105 34.4367C29.297 30.8408 35.4718 31.1314 38.9406 35.1813C42.2641 39.0497 41.8282 45.2608 36.7249 48.6388C39.4854 49.8011 41.6466 51.6172 43.2993 54.1416C44.5706 52.1076 46.2051 50.5639 48.4389 49.5287C46.0053 47.6036 44.843 45.17 45.3333 42.1008C45.6421 40.1393 46.6591 38.5593 48.2573 37.3607C51.5626 34.8726 56.2845 35.5082 58.8453 38.7228C61.188 41.6649 61.2244 46.5502 57.2108 49.5105C58.0098 50.0554 58.8453 50.5457 59.5717 51.145C62.314 53.4697 63.7306 56.4662 63.9122 60.0258C64.003 61.7875 63.9486 63.5673 63.9486 65.3289C63.9486 66.3278 63.549 66.7092 62.532 66.7092C57.2289 66.7092 51.9258 66.7092 46.6228 66.7092C46.3504 66.7092 46.078 66.7092 45.7874 66.7092C45.515 67.6899 46.1324 68.8885 45.0064 69.5786C36.3617 69.6149 27.6444 69.6149 18.9452 69.6149ZM43.4627 67.3266C43.4809 67.1632 43.5172 67.0361 43.5172 66.9089C43.5172 65.3289 43.5535 63.7307 43.4991 62.1507C43.4264 59.5718 42.6818 57.2109 41.2289 55.0678C38.4866 51.0542 33.801 49.111 29.3333 50.3459C24.7204 51.6172 22.0507 54.8499 20.8339 59.3902C20.2891 61.4606 20.4707 63.5673 20.4525 65.674C20.4525 66.2188 20.4525 66.7455 20.4525 67.3266C28.1892 67.3266 35.8169 67.3266 43.4627 67.3266ZM18.2187 64.4572C18.2369 64.2756 18.255 64.1303 18.255 64.0031C18.1824 61.5695 18.3822 59.1723 19.2902 56.8658C19.3447 56.7205 19.3265 56.5026 19.2539 56.3573C16.8566 50.9452 10.4094 49.0746 5.83278 52.8885C2.14606 55.9577 2.00077 60.1166 2.29135 64.4572C7.59441 64.4572 12.8612 64.4572 18.2187 64.4572ZM61.7692 64.439C61.7692 63.5491 61.751 62.7319 61.7692 61.9328C61.8055 60.2619 61.7147 58.6274 61.0791 57.0656C59.6262 53.4697 57.1018 51.2177 53.1245 50.9089C49.7647 50.6547 46.4593 52.7614 44.8793 56.0667C44.7522 56.3391 44.6614 56.7387 44.7703 57.0111C45.4605 58.9543 45.7874 60.9521 45.751 63.0043C45.7329 63.4765 45.751 63.9487 45.751 64.4572C51.1086 64.439 56.3935 64.439 61.7692 64.439ZM24.8839 40.9384C24.8657 44.6796 27.9713 47.7126 31.8214 47.7307C35.7079 47.7489 38.868 44.6978 38.8498 40.9384C38.8316 37.1972 35.7079 34.1643 31.8577 34.1643C28.0439 34.1643 24.902 37.1972 24.8839 40.9384ZM16.4934 43.372C16.4934 40.4662 14.078 38.0871 11.1358 38.0871C8.19373 38.0871 5.76013 40.4662 5.76013 43.3539C5.76013 46.2415 8.17557 48.6388 11.1177 48.6388C14.0598 48.6569 16.4934 46.2778 16.4934 43.372ZM47.4945 43.3902C47.4945 46.2778 49.9463 48.6569 52.8884 48.6569C55.8305 48.6388 58.2459 46.2597 58.2459 43.372C58.2459 40.4844 55.7942 38.1053 52.8521 38.1053C49.91 38.1053 47.4945 40.4844 47.4945 43.3902Z" fill="white"/>
<path d="M31.9997 0.000976562C39.7001 0.000976562 45.9838 6.35739 45.9838 14.1304C45.9838 21.9034 39.6819 28.2779 31.9997 28.2598C24.3176 28.2598 18.0156 21.8852 18.0156 14.1122C18.0156 6.35739 24.2994 0.000976562 31.9997 0.000976562ZM31.9816 2.25296C25.498 2.27112 20.2858 7.57419 20.2858 14.1485C20.2858 20.7047 25.5344 26.0259 32.0179 26.0078C38.5014 25.9896 43.7137 20.6866 43.7137 14.1122C43.6955 7.53787 38.447 2.2348 31.9816 2.25296Z" fill="white"/>
<path d="M35.1799 10.8985C36.6509 10.8985 38.0312 10.8985 39.4114 10.8985C40.5919 10.8985 40.9551 11.2617 40.9733 12.4422C40.9733 13.6227 40.9733 14.8031 40.9733 15.9836C40.9733 16.9825 40.5556 17.382 39.5567 17.4002C38.1401 17.4183 36.7054 17.4002 35.198 17.4002C35.198 18.1448 35.198 18.8531 35.198 19.5432C35.198 20.3786 35.2162 21.214 35.198 22.0494C35.1799 22.903 34.7803 23.2662 33.9267 23.2844C33.2003 23.3026 32.4738 23.2844 31.7474 23.2844C28.7326 23.3207 28.8053 23.3934 28.8416 20.3423C28.8598 19.3979 28.8416 18.4535 28.8416 17.382C28.0607 17.382 27.3161 17.382 26.5896 17.382C25.8632 17.382 25.1367 17.4002 24.4103 17.382C23.5022 17.3639 23.0845 16.9462 23.0664 16.0381C23.0482 14.7668 23.0482 13.4955 23.0664 12.2242C23.0845 11.3162 23.5022 10.8985 24.4103 10.8985C25.8087 10.8803 27.2253 10.8803 28.6237 10.8803C28.66 10.8803 28.7145 10.844 28.8416 10.8077C28.8416 9.62719 28.8416 8.4104 28.8416 7.1936C28.8416 5.05058 28.8961 4.99609 31.0028 4.99609C31.8564 4.99609 32.7281 4.99609 33.5817 4.99609C34.9074 4.99609 35.198 5.28667 35.198 6.64876C35.198 7.82924 35.198 9.00971 35.198 10.1902C35.1799 10.4081 35.1799 10.6261 35.1799 10.8985ZM32.946 21.0324C32.946 19.4706 32.946 17.9813 32.946 16.4921C32.946 15.5296 33.3456 15.1482 34.3081 15.13C34.5805 15.13 34.853 15.13 35.1254 15.13C36.2877 15.13 37.4682 15.13 38.6305 15.13C38.6305 14.4399 38.6305 13.8406 38.6305 13.1868C37.6135 13.1868 36.6509 13.1686 35.6884 13.1868C32.9097 13.2413 32.8916 13.1141 32.9279 10.4808C32.946 9.42742 32.9279 8.37407 32.9279 7.2844C32.2559 7.2844 31.6929 7.2844 31.0391 7.2844C31.0391 8.80994 31.0391 10.2992 31.0391 11.7884C31.0391 12.7872 30.6396 13.1868 29.6407 13.1868C28.7871 13.2049 27.9154 13.1868 27.0618 13.1868C26.4807 13.1868 25.8995 13.1868 25.3547 13.1868C25.3547 13.9132 25.3547 14.4944 25.3547 15.13C26.517 15.13 27.6248 15.13 28.7326 15.13C30.9665 15.13 31.0391 15.2027 31.0391 17.4002C31.0391 18.3082 31.0391 19.2163 31.0391 20.1244C31.0391 20.4331 31.0391 20.7418 31.0391 21.0506C31.7292 21.0324 32.2922 21.0324 32.946 21.0324Z" fill="white"/>
</g>
<defs>
<clipPath id="clip0_136_41660">
<rect width="64" height="69.6118" fill="white"/>
</clipPath>
</defs>
</svg>
