<svg width="220" height="38" viewBox="0 0 220 38" fill="none" xmlns="http://www.w3.org/2000/svg">
<path d="M36.4649 16.1866C35.6577 14.6435 34.1383 13.6227 32.6665 12.6019C32.2391 12.317 31.8355 12.0321 31.432 11.7472C32.619 8.82721 32.6664 5.64602 31.4557 3.36696C30.4824 1.53897 28.8443 0.446933 26.7077 0.185792C23.3128 -0.217791 20.0129 2.22744 17.8526 4.07917C16.8318 4.95755 15.9059 5.90717 15.075 6.88052C14.529 6.04961 13.7218 5.38488 12.7485 5.00504C11.3953 4.5065 9.92339 4.55398 8.6889 5.12374C6.88465 2.84469 4.27323 1.89508 0.878388 2.34614L1.18701 4.69642C3.4898 4.3878 5.17536 4.8626 6.43359 6.16831C4.53438 5.38489 2.37402 5.43236 0 6.35823L0.854647 8.56606C2.80134 7.80638 4.46315 7.80637 5.88755 8.51858C5.46023 10.1092 5.72137 11.8897 6.71846 13.2191C7.64433 14.4299 9.02126 15.3557 10.6831 15.878C10.6593 16.0205 10.6356 16.1867 10.6118 16.3291C10.3507 18.5607 10.8255 20.721 11.9176 22.3828C13.2233 24.377 15.075 25.8014 16.8555 27.2021C17.1404 27.4157 17.4015 27.6294 17.6864 27.8431C19.0633 28.9351 20.6302 30.1696 21.4374 31.7364C22.3395 33.5169 21.7935 35.3924 21.1762 36.6744L23.2179 37.8851L23.5027 37.5053C25.1883 35.1313 26.8976 32.6623 27.8235 29.7898C28.2745 28.3891 28.4407 26.9409 28.3932 25.5165C28.7493 25.5403 29.1054 25.564 29.4378 25.564C32.2391 25.564 34.6844 24.5432 36.085 22.6677C37.4857 20.816 37.6281 18.3945 36.4649 16.1866ZM11.2291 13.5752C10.1133 13.1954 9.21118 12.6019 8.61767 11.7947C7.78677 10.6789 7.92922 8.87468 8.92631 7.80637C9.63851 7.07043 10.8493 6.83303 11.9176 7.21287C12.6298 7.47401 13.342 8.2337 13.4369 9.04086C12.4636 10.5365 11.7276 12.0559 11.2291 13.5752ZM25.5207 29.0776C25.1646 30.1696 24.666 31.2142 24.0963 32.235C23.9776 31.689 23.7876 31.1667 23.5265 30.6681C23.2891 30.2171 23.0042 29.7898 22.7193 29.3862C23.7639 28.8401 24.6423 28.033 25.2595 26.9884L23.2179 25.7777C22.6956 26.6561 21.9359 27.2496 20.9863 27.5344C20.5115 27.1071 20.0129 26.7035 19.5381 26.3237C21.9596 25.2554 23.4078 23.2375 23.8589 21.8368L21.6035 21.1009C21.3661 21.8605 20.0604 23.9972 17.2828 24.5432C16.5944 23.9972 15.9059 23.4274 15.3124 22.8101C18.0188 22.0505 19.5381 19.7952 20.0129 18.4657L17.7814 17.6585C17.7339 17.7772 16.6893 20.5311 13.6743 20.6735C13.0571 19.534 12.8197 18.0859 12.9859 16.5902C12.9859 16.4953 13.0096 16.4003 13.0333 16.3291C13.6743 16.3766 14.2916 16.4241 14.9088 16.4478C16.4519 16.519 17.9001 16.5902 19.3245 16.9938C21.7222 17.6585 23.6689 19.2016 24.8559 21.3857C26.0904 23.6885 26.3516 26.4899 25.5207 29.0776ZM34.1621 21.267C33.2362 22.5015 31.1471 23.5698 28.0134 23.1188C27.776 22.1217 27.3961 21.1483 26.9213 20.2462C25.4257 17.5161 22.9567 15.5457 19.9417 14.7148C18.2799 14.2637 16.6181 14.1687 15.0038 14.0975C14.529 14.0738 14.0542 14.05 13.5794 14.0263C14.5765 11.1775 16.6181 8.28118 19.372 5.90716C20.4165 5.00504 23.6452 2.22744 26.399 2.55981C27.7522 2.72599 28.7493 3.36697 29.3428 4.48275C30.1025 5.9309 30.15 8.02003 29.509 10.0617C28.868 9.302 28.3457 8.42362 28.1083 7.30784L25.7818 7.83012C26.5652 11.3674 29.2004 13.1479 31.3133 14.5961C32.5952 15.4744 33.806 16.3053 34.352 17.3024C35.1117 18.6794 35.0405 20.1275 34.1621 21.267Z" fill="#00D198"/>
<path d="M60.5849 10.323H60.5612C60.2051 9.70577 59.7065 9.15973 59.113 8.70867C58.5195 8.25761 57.8548 7.9015 57.1188 7.64036C56.3829 7.37922 55.5995 7.26053 54.7923 7.26053C53.1542 7.26053 51.6823 7.64037 50.4004 8.37631C49.1184 9.11226 48.1213 10.1568 47.4091 11.4863C46.6969 12.8157 46.3171 14.3588 46.3171 16.1631C46.3171 17.5637 46.5307 18.822 46.9581 19.9852C47.3854 21.1485 47.9789 22.1456 48.786 22.9765C49.5695 23.8312 50.5428 24.4721 51.6586 24.9232C52.7981 25.3743 54.0564 25.5879 55.457 25.5879C57.2613 25.5879 58.8519 25.2081 60.2051 24.4484C61.5583 23.6887 62.6266 22.6204 63.3862 21.196C64.1459 19.7953 64.5258 18.1335 64.5258 16.2106V0.114746H60.5849V10.323ZM59.8964 19.463C59.4691 20.3414 58.8519 21.0061 58.0922 21.5046C57.3325 22.0032 56.4304 22.2406 55.4333 22.2406C54.4599 22.2406 53.5578 22.0032 52.7744 21.5046C51.991 21.0061 51.3737 20.3414 50.9464 19.463C50.5191 18.5846 50.3054 17.5875 50.3054 16.448C50.3054 15.3322 50.5191 14.3351 50.9464 13.4567C51.3737 12.5783 51.991 11.9136 52.7744 11.3913C53.5578 10.8928 54.4362 10.6316 55.4096 10.6316C56.4304 10.6316 57.3325 10.869 58.0922 11.3676C58.8519 11.8661 59.4691 12.5308 59.8964 13.4092C60.3238 14.2876 60.5374 15.2847 60.5374 16.4242C60.5612 17.5875 60.3475 18.5846 59.8964 19.463Z" fill="white"/>
<path d="M81.31 8.47124C80.0992 7.66407 78.5561 7.2605 76.6807 7.2605C75.0189 7.2605 73.547 7.64035 72.265 8.42377C70.983 9.2072 69.9859 10.2755 69.25 11.6524C68.5141 13.0294 68.158 14.6199 68.158 16.4242C68.158 18.1335 68.5615 19.6529 69.3924 20.9586C70.2233 22.2643 71.3629 23.3088 72.8348 24.0448C74.3066 24.7807 76.0397 25.1606 77.9864 25.1606H82.6869V21.7895H77.9864C77.013 21.7895 76.1109 21.6233 75.3037 21.3147C74.4966 21.006 73.8318 20.555 73.3096 19.9377C72.7873 19.3205 72.4549 18.5608 72.3125 17.6587H84.7286C84.7761 17.4925 84.7998 17.2788 84.8235 16.9702C84.8473 16.6616 84.8473 16.4004 84.8473 16.1868C84.8473 14.525 84.5624 13.0056 83.9689 11.6524C83.4229 10.3467 82.5207 9.2784 81.31 8.47124ZM72.2887 15.0235C72.36 14.4775 72.4787 13.9315 72.6923 13.3855C72.8822 12.8394 73.1671 12.3646 73.5232 11.9373C73.8793 11.51 74.3304 11.1776 74.8527 10.9165C75.375 10.6553 75.9922 10.5129 76.6807 10.5129C77.2742 10.5129 77.7965 10.6079 78.2475 10.774C78.6986 10.9402 79.1022 11.1776 79.4345 11.4625C79.7669 11.7474 80.0518 12.0797 80.2654 12.4833C80.4791 12.8632 80.6453 13.2905 80.7402 13.7178C80.8352 14.1451 80.9064 14.5962 80.9302 15.0235H72.2887Z" fill="white"/>
<path d="M101.323 8.30502C100.065 7.64029 98.6165 7.28418 96.9073 7.28418C95.2217 7.28418 93.7498 7.61655 92.4916 8.30502C91.2334 8.96974 90.26 9.8956 89.5715 11.0826C88.8831 12.2696 88.5507 13.5991 88.5507 15.1184V25.1843H92.4916V15.1422C92.4916 14.2401 92.6815 13.4566 93.0851 12.7919C93.4887 12.1272 94.011 11.5812 94.6994 11.2251C95.3641 10.8452 96.1001 10.6553 96.8835 10.6553C97.6907 10.6553 98.4266 10.8452 99.0914 11.2251C99.7561 11.6049 100.302 12.1272 100.729 12.7919C101.133 13.4566 101.347 14.2401 101.347 15.1422V25.1843H105.264V15.0947C105.264 13.5753 104.931 12.2459 104.243 11.0589C103.531 9.8956 102.557 8.96974 101.323 8.30502Z" fill="white"/>
<path d="M114.95 3.2959H111.033V7.68783H108.018V11.0589H111.033V20.2226C111.033 21.7657 111.484 22.9765 112.362 23.8549C113.24 24.757 114.451 25.1843 116.018 25.1843H120.363V21.8132H116.683C116.161 21.8132 115.733 21.647 115.425 21.3147C115.116 20.9823 114.95 20.555 114.95 20.0327V11.0352H120.41V7.66409H114.95V3.2959Z" fill="white"/>
<path d="M136.767 8.49494C135.366 7.68777 133.776 7.28418 131.995 7.28418C130.191 7.28418 128.577 7.68777 127.2 8.49494C125.799 9.3021 124.707 10.3941 123.9 11.7948C123.093 13.1717 122.689 14.7386 122.689 16.4479C122.689 18.1572 123.093 19.724 123.9 21.1009C124.707 22.4779 125.823 23.5937 127.2 24.4008C128.6 25.208 130.191 25.6116 131.995 25.6116C133.776 25.6116 135.366 25.208 136.767 24.4008C138.168 23.5937 139.26 22.5016 140.067 21.1009C140.874 19.724 141.278 18.1572 141.278 16.4479C141.278 14.7386 140.874 13.1717 140.067 11.7948C139.26 10.4179 138.168 9.3021 136.767 8.49494ZM136.672 19.3917C136.245 20.27 135.628 20.9585 134.82 21.4571C134.013 21.9793 133.087 22.2405 132.019 22.2405C130.927 22.2405 129.977 21.9793 129.194 21.4571C128.411 20.9348 127.793 20.2463 127.342 19.3679C126.891 18.4895 126.678 17.5162 126.678 16.4241C126.678 15.3321 126.891 14.335 127.342 13.4804C127.793 12.602 128.411 11.9135 129.194 11.415C129.977 10.8927 130.927 10.6315 132.019 10.6315C133.087 10.6315 134.037 10.8927 134.82 11.415C135.628 11.9373 136.245 12.6257 136.672 13.5041C137.099 14.3825 137.313 15.3558 137.313 16.4479C137.313 17.5399 137.099 18.5133 136.672 19.3917Z" fill="white"/>
<path d="M159.059 8.40019C157.801 7.66424 156.329 7.2844 154.643 7.2844C153.812 7.2844 153.053 7.40311 152.317 7.66425C151.581 7.92539 150.916 8.28149 150.323 8.73256C149.729 9.18362 149.254 9.72964 148.874 10.3469H148.851V0.162354H144.91V16.2582C144.91 18.1811 145.29 19.8429 146.049 21.2436C146.809 22.6443 147.877 23.7363 149.254 24.496C150.631 25.2557 152.198 25.6355 153.979 25.6355C155.403 25.6355 156.661 25.4219 157.777 24.9708C158.893 24.5197 159.842 23.8788 160.65 23.0241C161.433 22.1695 162.05 21.1724 162.478 20.0329C162.905 18.8696 163.119 17.6114 163.119 16.2107C163.119 14.4302 162.762 12.8633 162.027 11.5339C161.314 10.1807 160.317 9.13613 159.059 8.40019ZM158.489 19.4631C158.062 20.3415 157.445 21.0062 156.661 21.5048C155.878 22.0033 154.999 22.2407 153.979 22.2407C153.005 22.2407 152.103 22.0033 151.343 21.5048C150.56 21.0062 149.967 20.3415 149.515 19.4631C149.088 18.5847 148.874 17.5876 148.874 16.4481C148.874 15.3086 149.088 14.2877 149.515 13.4331C149.943 12.5547 150.56 11.89 151.343 11.3915C152.127 10.8929 153.005 10.6555 154.026 10.6555C155.023 10.6555 155.925 10.9166 156.685 11.4152C157.445 11.9137 158.062 12.6022 158.489 13.4806C158.917 14.359 159.13 15.3561 159.13 16.4718C159.13 17.5876 158.917 18.5847 158.489 19.4631Z" fill="white"/>
<path d="M179.025 8.47124C177.814 7.66407 176.271 7.2605 174.395 7.2605C172.733 7.2605 171.261 7.64035 169.98 8.42377C168.698 9.2072 167.7 10.2755 166.965 11.6524C166.229 13.0294 165.872 14.6199 165.872 16.4242C165.872 18.1335 166.276 19.6529 167.107 20.9586C167.938 22.2643 169.077 23.3088 170.549 24.0448C172.021 24.7807 173.754 25.1606 175.701 25.1606H180.401V21.7895H175.701C174.728 21.7895 173.825 21.6233 173.018 21.3147C172.211 21.006 171.546 20.555 171.024 19.9377C170.502 19.3205 170.169 18.5608 170.027 17.6587H182.443C182.491 17.4925 182.514 17.2788 182.538 16.9702C182.562 16.6616 182.562 16.4004 182.562 16.1868C182.562 14.525 182.277 13.0056 181.683 11.6524C181.137 10.3467 180.235 9.2784 179.025 8.47124ZM170.003 15.0235C170.074 14.4775 170.193 13.9315 170.407 13.3855C170.597 12.8394 170.882 12.3646 171.238 11.9373C171.594 11.51 172.045 11.1776 172.567 10.9165C173.089 10.6553 173.707 10.5129 174.395 10.5129C174.989 10.5129 175.511 10.6079 175.962 10.774C176.413 10.9402 176.817 11.1776 177.149 11.4625C177.481 11.7474 177.766 12.0797 177.98 12.4833C178.194 12.8632 178.36 13.2905 178.455 13.7178C178.55 14.1451 178.621 14.5962 178.645 15.0235H170.003Z" fill="white"/>
<path d="M198.444 8.47124C197.233 7.66407 195.69 7.2605 193.815 7.2605C192.153 7.2605 190.681 7.64035 189.399 8.42377C188.117 9.2072 187.12 10.2755 186.384 11.6524C185.648 13.0294 185.292 14.6199 185.292 16.4242C185.292 18.1335 185.695 19.6529 186.526 20.9586C187.357 22.2643 188.497 23.3088 189.969 24.0448C191.441 24.7807 193.174 25.1606 195.12 25.1606H199.821V21.7895H195.12C194.147 21.7895 193.245 21.6233 192.438 21.3147C191.63 21.006 190.966 20.555 190.443 19.9377C189.921 19.3205 189.589 18.5608 189.446 17.6587H201.862C201.91 17.4925 201.934 17.2788 201.957 16.9702C201.981 16.6616 201.981 16.4004 201.981 16.1868C201.981 14.525 201.696 13.0056 201.103 11.6524C200.557 10.3467 199.655 9.2784 198.444 8.47124ZM189.423 15.0235C189.494 14.4775 189.613 13.9315 189.826 13.3855C190.016 12.8394 190.301 12.3646 190.657 11.9373C191.013 11.51 191.464 11.1776 191.987 10.9165C192.509 10.6553 193.126 10.5129 193.815 10.5129C194.408 10.5129 194.93 10.6079 195.381 10.774C195.832 10.9402 196.236 11.1776 196.568 11.4625C196.901 11.7474 197.186 12.0797 197.399 12.4833C197.613 12.8632 197.779 13.2905 197.874 13.7178C197.969 14.1451 198.04 14.5962 198.064 15.0235H189.423Z" fill="white"/>
<path d="M219.288 16.8278C218.813 16.0443 218.148 15.4746 217.246 15.071C216.344 14.6911 215.276 14.4775 214.017 14.4775H210.694C210.124 14.4775 209.673 14.3113 209.317 13.9552C208.985 13.6228 208.795 13.2192 208.795 12.7444C208.795 12.2696 208.961 11.8661 209.317 11.5337C209.649 11.2013 210.1 11.0352 210.623 11.0352H218.386V7.66406H210.267C209.269 7.66406 208.367 7.90146 207.56 8.37627C206.753 8.85107 206.136 9.49205 205.661 10.2517C205.186 11.0352 204.949 11.8898 204.949 12.8157C204.949 13.9789 205.21 14.9523 205.708 15.712C206.207 16.4716 206.895 17.0414 207.774 17.4213C208.652 17.7774 209.626 17.9673 210.765 17.9673H214.184C214.563 17.9673 214.92 18.0622 215.204 18.2284C215.513 18.3946 215.727 18.632 215.893 18.8931C216.059 19.178 216.13 19.4867 216.13 19.8428C216.13 20.1514 216.035 20.4837 215.869 20.7686C215.703 21.0772 215.466 21.3146 215.157 21.4808C214.848 21.6708 214.492 21.7657 214.065 21.7657H205.637V25.1843H214.492C215.537 25.1843 216.486 24.9469 217.317 24.4483C218.148 23.9498 218.813 23.2851 219.288 22.4542C219.763 21.6233 220 20.7211 220 19.7715C220 18.5845 219.763 17.5874 219.288 16.8278Z" fill="white"/>
</svg>
