<svg width="367" height="367" viewBox="0 0 367 367" fill="none" xmlns="http://www.w3.org/2000/svg">
<path d="M67.0728 69.8775C67.1939 69.7344 67.337 69.6023 67.4691 69.4665C93.3353 43.7765 135.133 40.4735 168.508 50.955C184.825 56.0746 197.626 70.461 212.966 77.5992C218.071 79.9663 223.451 81.5261 229.334 81.6876C244.726 82.1096 259.102 71.9327 274.453 73.1034C294.051 74.5714 305.593 94.3894 308.383 112.005C312.985 141.134 299.655 172.74 283.06 196.012C273.951 208.798 263.7 220.601 253.865 232.8C246.235 242.294 241.207 256.655 251.296 266.52C264.691 279.611 268.813 250.64 284.605 257.253C323.921 273.713 319.437 309 310.511 324.106C302.364 337.923 286.656 347.194 270.64 348.504C268.098 348.713 265.542 348.713 262.999 348.504" stroke="#CCDDE2" stroke-width="1.9818" stroke-miterlimit="10"/>
<path d="M137.937 253.759C137.937 253.799 137.937 253.84 137.937 253.88C137.937 256.577 149.879 266.864 151.677 268.769" stroke="#CCDDE2" stroke-width="1.9818" stroke-miterlimit="10"/>
<path d="M100.778 348.371C97.156 348.492 93.7319 348.477 90.4803 348.345C52.8481 343.725 24.5413 268.769 68.8199 246.015" stroke="#CCDDE2" stroke-width="1.9818" stroke-miterlimit="10"/>
<path d="M143.46 154.114V78.171C143.457 75.9712 142.582 73.8621 141.027 72.3067C139.471 70.751 137.362 69.8761 135.162 69.8732H29.0993C26.9027 69.8809 24.7985 70.758 23.2469 72.313C21.6954 73.868 20.8227 75.9742 20.8198 78.171V228.747C20.8227 230.946 21.6984 233.053 23.2543 234.606C24.8103 236.159 26.9192 237.031 29.1177 237.031H135.181C136.209 237.038 137.23 236.842 138.183 236.454" stroke="black" stroke-width="1.9818" stroke-linecap="round" stroke-linejoin="round"/>
<path d="M132.906 74.955H31.375C27.601 74.955 24.5415 78.0146 24.5415 81.7885V225.139C24.5415 228.913 27.601 231.972 31.375 231.972H132.906C136.68 231.972 139.739 228.913 139.739 225.139V81.7885C139.739 78.0146 136.68 74.955 132.906 74.955Z" fill="#36C857"/>
<path d="M130.799 87.1074H34.74C32.853 87.1074 31.3232 88.6371 31.3232 90.5242V113.087C31.3232 114.974 32.853 116.504 34.74 116.504H130.799C132.686 116.504 134.215 114.974 134.215 113.087V90.5242C134.215 88.6371 132.686 87.1074 130.799 87.1074Z" fill="#36C857"/>
<path d="M82.1381 99.4901C83.8183 99.4901 85.1806 98.1278 85.1806 96.4477C85.1806 94.7672 83.8183 93.4053 82.1381 93.4053C80.458 93.4053 79.0957 94.7672 79.0957 96.4477C79.0957 98.1278 80.458 99.4901 82.1381 99.4901Z" fill="#D7E8F0"/>
<path d="M73.6459 110.207C73.6224 109.076 73.8246 107.953 74.2412 106.902C74.6573 105.85 75.2794 104.893 76.0703 104.086C76.8615 103.278 77.8058 102.636 78.8481 102.198C79.8904 101.76 81.0094 101.534 82.1401 101.534C83.2708 101.534 84.3898 101.76 85.4321 102.198C86.4744 102.636 87.4187 103.278 88.2099 104.086C89.0008 104.893 89.6229 105.85 90.039 106.902C90.4556 107.953 90.6578 109.076 90.6343 110.207H73.6459Z" fill="#D7E8F0"/>
<path d="M41.6143 129.628H121.617" stroke="white" stroke-width="1.9818" stroke-miterlimit="10"/>
<path d="M41.6143 137.504H121.617" stroke="white" stroke-width="1.9818" stroke-miterlimit="10"/>
<path d="M41.6143 188.216H121.617" stroke="white" stroke-width="1.9818" stroke-miterlimit="10"/>
<path d="M60.1953 195.662H103.035" stroke="white" stroke-width="1.9818" stroke-miterlimit="10"/>
<path d="M61.8875 167.267L55.5054 174.049C54.9879 174.599 54.3669 175.042 53.6781 175.352C52.9892 175.662 52.2464 175.834 51.4911 175.857C50.7362 175.88 49.9842 175.754 49.2778 175.486C48.5713 175.219 47.9246 174.814 47.3745 174.297C46.8244 173.779 46.3814 173.158 46.0713 172.469C45.7612 171.781 45.5898 171.038 45.5667 170.282C45.5435 169.528 45.6698 168.776 45.9373 168.069C46.2049 167.363 46.6093 166.716 47.1268 166.166L53.5052 159.384L61.8875 167.267Z" fill="#36C857"/>
<path d="M68.262 160.479L61.8798 167.268L53.4976 159.385L59.8834 152.599C60.9308 151.492 62.3742 150.844 63.8983 150.797C65.4221 150.75 66.9026 151.308 68.0161 152.35C69.1196 153.399 69.7645 154.842 69.8103 156.364C69.8566 157.886 69.3002 159.365 68.262 160.479Z" fill="#D7E8F0"/>
<path d="M93.0674 156.059C92.7958 154.745 95.4896 152.572 96.3704 152.099C99.6477 150.381 104.69 151.677 106.485 154.958C110.606 162.481 99.0275 173.205 93.049 175.855C92.3628 175.304 76.0056 163.069 79.837 155.237C83.6685 147.405 92.1169 151.383 93.0674 156.059Z" fill="#D7E8F0"/>
<path d="M80.7251 169.469H89.6395" stroke="white" stroke-width="1.9818" stroke-linecap="round" stroke-linejoin="round"/>
<path d="M85.1807 173.925V165.01" stroke="white" stroke-width="1.9818" stroke-linecap="round" stroke-linejoin="round"/>
<path d="M257.344 171.474C257.344 171.474 236.755 160.38 223.477 157.697C223.477 157.697 223.385 159.679 221.176 164.571C218.967 169.463 212.449 183.919 212.449 183.919L202.665 176.487L202.811 187.567L175.969 216.237L159.003 179.097L161.263 168.648L151.597 172.351L146.433 153.928C146.433 153.928 120.978 159.653 99.0532 177.295C77.1286 194.936 70.8493 222.436 68.8124 246.015C66.7756 269.595 69.2235 294.459 100.374 302.86C100.374 302.86 115.01 306.53 126.927 301.62C130.641 300.085 136.036 298.654 141.695 297.399L141.511 297.465C141.511 297.465 138.942 306.38 131.5 311.231C131.5 311.231 144.539 321.14 166.82 325.46C189.1 329.779 236.183 332.363 259.913 311.774C283.643 291.186 284.612 257.242 284.612 257.242C284.612 257.242 292.319 191.707 257.344 171.474ZM135.423 229.394C134.615 229.367 133.832 229.104 133.173 228.636C132.514 228.168 132.007 227.516 131.715 226.762C131.423 226.008 131.36 225.185 131.532 224.395C131.705 223.605 132.106 222.884 132.685 222.32C133.265 221.756 133.998 221.376 134.792 221.225C135.587 221.075 136.408 221.161 137.153 221.474C137.899 221.787 138.536 222.312 138.985 222.984C139.434 223.656 139.676 224.446 139.68 225.254C139.661 226.367 139.202 227.426 138.405 228.202C137.607 228.977 136.535 229.406 135.423 229.394ZM225.899 267.177C225.276 270.347 221.932 290.408 213.667 292.764C205.402 295.12 197.244 289.997 177.966 291.997C177.966 291.997 173.811 292.155 168.057 292.668C156.037 278.587 168.137 258.515 168.137 258.515C168.137 258.515 195.457 250.196 208.482 256.2C221.506 262.204 226.534 263.998 225.899 267.177Z" fill="#353642"/>
<path d="M248.826 322.706V348.506C207.171 348.506 150.815 348.44 110.1 348.389C109.597 335.111 108.804 304.565 112.173 304.349C116.486 304.084 121.048 301.321 126.31 307.604C131.573 313.887 153.604 325.125 184.465 327.767C215.326 330.409 241.35 323.139 247.13 319.994C247.134 319.998 248.826 316.981 248.826 322.706Z" fill="#353642"/>
<path d="M135.423 217.711C139.702 217.711 143.185 221.102 143.185 225.272C143.185 229.441 139.702 232.832 135.423 232.832C131.144 232.832 127.665 229.441 127.665 225.272C127.665 221.102 131.144 217.711 135.423 217.711ZM135.423 215.065C129.676 215.065 125.019 219.634 125.019 225.272C125.019 230.909 129.676 235.478 135.423 235.478C141.17 235.478 145.827 230.909 145.827 225.272C145.827 219.634 141.167 215.062 135.423 215.062V215.065Z" fill="white"/>
<path d="M187.97 169L181.298 176.498C181.079 176.674 180.827 176.803 180.557 176.879C180.286 176.955 180.003 176.974 179.725 176.937C179.447 176.9 179.179 176.807 178.938 176.663C178.697 176.52 178.487 176.328 178.322 176.101L173.628 166.001L182.766 158.739L187.97 169Z" fill="#36C857"/>
<path d="M183.739 173.748L186.568 185.114L178.311 195.6L172.145 181.925L176.714 172.662" fill="#36C857"/>
<path d="M211.843 92.3343C210.375 92.6646 209.091 93.8023 208.111 95.017C207.2 96.1562 206.429 97.4007 205.814 98.7237C205.814 98.7237 202.716 85.5117 201.41 74.0503C200.973 70.3216 199.666 68.3251 198.077 67.3196C194.8 65.2423 190.37 67.4627 190.37 67.4627L175.653 75.478C172.83 77.0337 169.722 78.0048 166.515 78.3332C165.017 78.5057 163.503 78.5057 162.005 78.3332C153.898 74.3256 153.78 58.5152 163.631 58.4051C163.927 58.6818 164.205 58.9773 164.464 59.2896C164.322 58.9982 164.19 58.7083 164.067 58.4198C164.618 58.4363 165.167 58.498 165.708 58.6033C166.515 58.7611 167.268 59.5942 167.77 60.1777C165.154 55.0985 167.943 48.698 173.099 46.7565C176.233 45.5785 179.738 45.8023 183.008 46.4923C183.526 46.5951 184.039 46.7162 184.557 46.8593C192.756 49.3329 199.934 53.6305 205.237 60.8053C211.95 69.8812 213.627 81.372 211.843 92.3343Z" fill="#2E2E2E"/>
<path d="M118.372 229.598C109.392 269.601 143.864 262.899 188.66 255.012C204.665 252.198 218.284 259.145 226.175 265.626" stroke="black" stroke-width="1.9818" stroke-linejoin="round"/>
<path d="M146.433 153.923C126.076 158.933 102.059 171.084 88.847 187.577C71.5503 209.138 67.928 237.808 68.3207 264.647C68.6877 290.869 96.165 308.981 121.106 303.314" stroke="black" stroke-width="1.9818" stroke-linejoin="round"/>
<path d="M156.977 144.128H156.992" stroke="black" stroke-width="1.9818" stroke-linejoin="round"/>
<path d="M228.377 231.074C228.377 231.074 229.111 248.43 226.175 265.627C224.843 273.477 222.747 281.294 219.477 287.416C218.599 289.033 217.309 290.389 215.738 291.346C214.166 292.303 212.369 292.828 210.53 292.866C207.176 292.927 203.823 292.793 200.485 292.466C171.719 289.765 144.76 295.692 125.099 302.206C123.778 302.639 122.45 303.006 121.114 303.307C133.515 314.559 165.418 335.361 225.738 326.34C306.845 314.229 281.496 207.127 281.496 207.127C279.294 195.589 272.417 184.876 264.148 176.762C254.783 167.587 236.623 161.52 224.277 157.678" stroke="black" stroke-width="1.9818" stroke-linejoin="round"/>
<path d="M180.894 137.514C180.894 137.514 156.217 133.11 159.524 104.006C160.992 91.0587 163.821 83.1388 166.497 78.3164" stroke="black" stroke-width="1.9818" stroke-linejoin="round"/>
<path d="M204.265 129.859C208.823 123.047 208.126 114.005 209.557 111.729C211.759 108.199 220.567 97.1849 215.282 93.2177C214.064 92.3038 212.9 92.1167 211.843 92.3295C208.287 93.1223 205.814 98.7186 205.814 98.7186C205.814 98.7186 202.72 85.507 201.41 74.0419C200.099 62.5768 190.367 67.4579 190.367 67.4579L175.65 75.4696C172.828 77.0286 169.719 78.0008 166.512 78.3281C164.833 78.5259 163.137 78.5124 161.462 78.2881C150.085 76.8201 149.351 55.2809 162.401 57.7361C163.209 57.8939 163.961 58.727 164.464 59.3105C161.843 54.2313 164.636 47.8308 169.793 45.8894C172.927 44.7113 176.432 44.9352 179.702 45.6251C189.912 47.7794 198.914 52.2307 205.237 60.8039C211.954 69.8871 213.634 81.3782 211.843 92.3405" stroke="black" stroke-width="1.9818" stroke-linejoin="round"/>
<path d="M177.811 110.18H172.523L172.868 105.989L174.281 89.0225" stroke="black" stroke-width="1.9818" stroke-linejoin="round"/>
<path d="M172.857 105.988H158.331C157.301 105.988 156.314 105.579 155.586 104.851C154.857 104.123 154.448 103.135 154.448 102.105V89.0254H179.001M179.001 89.0254V102.105C179.002 103.135 179.412 104.123 180.14 104.851C180.869 105.579 181.857 105.988 182.887 105.988H197.292C198.322 105.988 199.31 105.579 200.039 104.851C200.768 104.123 201.177 103.135 201.178 102.105V89.0254H179.001Z" stroke="black" stroke-width="1.9818" stroke-linejoin="round"/>
<path d="M177.812 115.238C177.812 115.238 181.559 116.559 185.746 110.166" stroke="black" stroke-width="1.9818" stroke-linejoin="round"/>
<path d="M175.818 217.521L203.167 187.17L202.668 176.483L212.126 184.634L224.277 157.692L224.31 157.622C221.339 155.872 218.566 153.803 216.042 151.453C214.879 150.362 213.778 149.222 212.739 148.033C211.512 146.64 210.367 145.177 209.311 143.651L208.456 142.443" stroke="black" stroke-width="1.9818" stroke-linejoin="round"/>
<path d="M193.758 175.433L188.128 167.678L182.124 159.766L194.726 152.14L208.467 142.443L212.728 148.033L214.159 149.915L210.684 154.367L183.544 189.203V189.218L178.41 195.6" stroke="black" stroke-width="1.9818" stroke-linejoin="round"/>
<path d="M167.437 171.021L182.117 159.776L164.082 141.753L157.249 148.197L178.406 195.61L175.819 217.524L159.007 179.095L161.256 168.65L151.589 172.342L145.978 154.114C152.428 151.625 158.259 147.764 163.069 142.799L164.089 141.742" stroke="black" stroke-width="1.9818" stroke-linejoin="round"/>
<path d="M188.128 168.999L181.445 176.497C181.226 176.673 180.974 176.803 180.704 176.878C180.434 176.954 180.151 176.974 179.873 176.937C179.595 176.9 179.328 176.806 179.087 176.663C178.846 176.519 178.637 176.328 178.472 176.101L173.774 166.001" stroke="black" stroke-width="1.9818" stroke-linejoin="round"/>
<path d="M183.896 173.748L186.73 185.114" stroke="black" stroke-width="1.9818" stroke-linejoin="round"/>
<path d="M176.872 172.662L172.303 181.925" stroke="black" stroke-width="1.9818" stroke-linejoin="round"/>
<path d="M208.456 142.444L204.265 129.845C203.124 131.443 201.654 132.779 199.953 133.76" stroke="black" stroke-width="1.9818" stroke-linejoin="round"/>
<path d="M166.97 129.845L164.089 141.743" stroke="black" stroke-width="1.9818" stroke-linejoin="round"/>
<path d="M186.891 99.603C187.957 99.603 188.821 98.7387 188.821 97.6726C188.821 96.6065 187.957 95.7422 186.891 95.7422C185.825 95.7422 184.96 96.6065 184.96 97.6726C184.96 98.7387 185.825 99.603 186.891 99.603Z" fill="black"/>
<path d="M170.057 99.603C171.123 99.603 171.987 98.7387 171.987 97.6726C171.987 96.6065 171.123 95.7422 170.057 95.7422C168.991 95.7422 168.126 96.6065 168.126 97.6726C168.126 98.7387 168.991 99.603 170.057 99.603Z" fill="black"/>
<path d="M223.955 157.81C223.955 157.81 236.939 162.793 225.276 182.945C221.606 189.265 219.617 193.009 218.6 195.152" stroke="black" stroke-width="1.9818" stroke-linejoin="round"/>
<path d="M196.404 239.522C196.404 239.522 191.328 237.25 191.482 235.852C191.637 234.454 201.847 201.061 208.937 196.737C216.027 192.414 220.571 196.143 220.571 196.143C220.571 196.143 227.456 199.871 225.382 209.608C223.309 219.344 210.61 242.601 210.61 242.601L205.63 240.898" stroke="black" stroke-width="1.9818" stroke-linejoin="round"/>
<path d="M141.515 155.321C141.515 155.321 134.139 179.543 135.643 215.616" stroke="black" stroke-width="1.9818" stroke-linejoin="round"/>
<path d="M135.466 235.885C141.553 235.855 146.463 231.081 146.435 225.221C146.406 219.361 141.449 214.636 135.362 214.665C129.275 214.695 124.365 219.469 124.393 225.329C124.422 231.188 129.379 235.915 135.466 235.885Z" stroke="black" stroke-width="1.9818" stroke-linejoin="round"/>
<path d="M248.841 348.507V319.136V318.384" stroke="black" stroke-width="1.9818" stroke-linejoin="round"/>
<path d="M110.353 348.4V304.327V304.313" stroke="black" stroke-width="1.9818" stroke-linejoin="round"/>
<path d="M57.6997 348.309C57.6997 348.309 79.4775 348.349 110.104 348.389C150.841 348.441 207.186 348.507 248.83 348.507C280.935 348.507 304.287 348.441 304.981 348.309" stroke="black" stroke-width="1.9818" stroke-linejoin="round"/>
<path d="M198.015 242.602C199.496 242.602 200.698 241.401 200.698 239.919C200.698 238.438 199.496 237.237 198.015 237.237C196.533 237.237 195.332 238.438 195.332 239.919C195.332 241.401 196.533 242.602 198.015 242.602Z" fill="white"/>
<path d="M204.294 243.122C205.776 243.122 206.977 241.921 206.977 240.44C206.977 238.958 205.776 237.757 204.294 237.757C202.813 237.757 201.611 238.958 201.611 240.44C201.611 241.921 202.813 243.122 204.294 243.122Z" fill="white"/>
<path d="M275.209 94.25L270.756 100.617L274.777 103.429L279.23 97.0623L275.209 94.25Z" fill="white"/>
<path d="M307.905 175.249C316.668 175.249 323.771 168.146 323.771 159.384C323.771 150.621 316.668 143.519 307.905 143.519C299.143 143.519 292.04 150.621 292.04 159.384C292.04 168.146 299.143 175.249 307.905 175.249Z" fill="#D7E8F0"/>
<path d="M302.801 160.291C305.62 160.291 307.906 158.006 307.906 155.186C307.906 152.367 305.62 150.081 302.801 150.081C299.981 150.081 297.696 152.367 297.696 155.186C297.696 158.006 299.981 160.291 302.801 160.291Z" fill="white"/>
<path d="M53.5051 319.388C62.2672 319.388 69.3705 312.285 69.3705 303.523C69.3705 294.76 62.2672 287.657 53.5051 287.657C44.7429 287.657 37.6396 294.76 37.6396 303.523C37.6396 312.285 44.7429 319.388 53.5051 319.388Z" fill="#D7E8F0"/>
<path d="M258.798 153.366C263.178 153.366 266.728 149.815 266.728 145.435C266.728 141.055 263.178 137.504 258.798 137.504C254.417 137.504 250.867 141.055 250.867 145.435C250.867 149.815 254.417 153.366 258.798 153.366Z" fill="#D7E8F0"/>
<path d="M49.5044 304.122C52.3237 304.122 54.6094 301.837 54.6094 299.017C54.6094 296.198 52.3237 293.912 49.5044 293.912C46.6851 293.912 44.3994 296.198 44.3994 299.017C44.3994 301.837 46.6851 304.122 49.5044 304.122Z" fill="white"/>
<path d="M315.994 314.882C320.375 314.882 323.925 311.331 323.925 306.951C323.925 302.571 320.375 299.021 315.994 299.021C311.614 299.021 308.063 302.571 308.063 306.951C308.063 311.331 311.614 314.882 315.994 314.882Z" fill="#D7E8F0"/>
<path d="M255.971 146.349C257.532 146.349 258.797 145.084 258.797 143.523C258.797 141.963 257.532 140.697 255.971 140.697C254.411 140.697 253.146 141.963 253.146 143.523C253.146 145.084 254.411 146.349 255.971 146.349Z" fill="white"/>
<path d="M312.695 307.281C313.783 307.281 314.666 306.399 314.666 305.311C314.666 304.222 313.783 303.34 312.695 303.34C311.606 303.34 310.724 304.222 310.724 305.311C310.724 306.399 311.606 307.281 312.695 307.281Z" fill="white"/>
<path d="M129.045 53.6811C133.425 53.6811 136.976 50.1304 136.976 45.7502C136.976 41.3701 133.425 37.8193 129.045 37.8193C124.664 37.8193 121.114 41.3701 121.114 45.7502C121.114 50.1304 124.664 53.6811 129.045 53.6811Z" fill="#D7E8F0"/>
<path d="M127.841 47.8707C129.402 47.8707 130.667 46.6056 130.667 45.0448C130.667 43.4839 129.402 42.2189 127.841 42.2189C126.281 42.2189 125.015 43.4839 125.015 45.0448C125.015 46.6056 126.281 47.8707 127.841 47.8707Z" fill="white"/>
<path d="M292.044 266.61C308.267 266.61 321.418 253.458 321.418 237.235C321.418 221.012 308.267 207.86 292.044 207.86C275.82 207.86 262.669 221.012 262.669 237.235C262.669 253.458 275.82 266.61 292.044 266.61Z" fill="white"/>
<path d="M292.044 259.858C304.538 259.858 314.666 249.73 314.666 237.236C314.666 224.742 304.538 214.614 292.044 214.614C279.55 214.614 269.422 224.742 269.422 237.236C269.422 249.73 279.55 259.858 292.044 259.858Z" fill="#36C857"/>
<path d="M291.765 232.656C291.497 231.342 294.187 229.17 295.086 228.696C298.367 226.979 303.406 228.274 305.205 231.555C309.322 239.079 297.744 249.806 291.769 252.452C291.079 251.902 274.722 239.666 278.557 231.834C282.392 224.002 290.818 227.984 291.765 232.656Z" fill="white"/>
</svg>
