<svg width="233" height="41" viewBox="0 0 233 41" fill="none" xmlns="http://www.w3.org/2000/svg">
<path d="M38.6196 17.5205C37.7648 15.8862 36.1556 14.8051 34.5967 13.7239C34.1442 13.4222 33.7167 13.1205 33.2893 12.8188C34.5465 9.72619 34.5967 6.35702 33.3144 3.94329C32.2836 2.00729 30.5487 0.850718 28.2858 0.574145C24.6904 0.146715 21.1955 2.73643 18.9075 4.69758C17.8264 5.62787 16.8458 6.63361 15.9658 7.66447C15.3875 6.78446 14.5326 6.08045 13.5018 5.67817C12.0686 5.15016 10.5098 5.20045 9.20234 5.80388C7.29147 3.39016 4.52574 2.38443 0.930293 2.86215L1.25715 5.35131C3.69602 5.02445 5.48118 5.52731 6.81376 6.91018C4.80232 6.08046 2.5143 6.13074 0 7.11132L0.905149 9.44961C2.96687 8.64504 4.72688 8.64503 6.23546 9.39932C5.78288 11.0839 6.05945 12.9696 7.11546 14.3776C8.09604 15.6599 9.55433 16.6405 11.3143 17.1936C11.2892 17.3445 11.2641 17.5205 11.2389 17.6714C10.9623 20.0348 11.4652 22.3228 12.6218 24.0828C14.0046 26.1948 15.9658 27.7034 17.8515 29.1868C18.1532 29.4131 18.4298 29.6394 18.7315 29.8657C20.1898 31.0223 21.8492 32.3297 22.7041 33.9891C23.6595 35.8749 23.0813 37.8612 22.4275 39.2189L24.5898 40.5012L24.8915 40.0989C26.6767 37.5846 28.487 34.9697 29.4676 31.9274C29.9453 30.444 30.1213 28.9103 30.071 27.4017C30.4482 27.4268 30.8253 27.452 31.1773 27.452C34.1442 27.452 36.7339 26.3708 38.2173 24.3845C39.7008 22.4234 39.8516 19.8588 38.6196 17.5205ZM11.8926 14.7548C10.7109 14.3525 9.75547 13.7239 9.1269 12.8691C8.24689 11.6873 8.39776 9.77647 9.45377 8.64503C10.2081 7.8656 11.4903 7.61417 12.6218 8.01646C13.3761 8.29303 14.1304 9.09761 14.2309 9.95247C13.2001 11.5365 12.4206 13.1456 11.8926 14.7548ZM27.0287 31.1731C26.6516 32.3297 26.1236 33.436 25.5201 34.5172C25.3944 33.9389 25.1933 33.3857 24.9167 32.8577C24.6653 32.38 24.3635 31.9274 24.0618 31.5C25.1681 30.9217 26.0984 30.0668 26.7521 28.9606L24.5898 27.6783C24.0367 28.6086 23.2321 29.2371 22.2264 29.5389C21.7235 29.0863 21.1955 28.6588 20.6927 28.2566C23.2572 27.1251 24.791 24.988 25.2687 23.5045L22.8801 22.7251C22.6287 23.5297 21.2458 25.7925 18.3041 26.3708C17.5749 25.7925 16.8458 25.1891 16.2172 24.5354C19.0835 23.7308 20.6927 21.3422 21.1955 19.9342L18.8321 19.0794C18.7818 19.2051 17.6755 22.1217 14.4824 22.2725C13.8286 21.0657 13.5772 19.5319 13.7532 17.9479C13.7532 17.8474 13.7784 17.7468 13.8035 17.6714C14.4824 17.7217 15.1361 17.7719 15.7898 17.7971C17.4241 17.8725 18.9578 17.9479 20.4664 18.3754C23.0058 19.0794 25.0676 20.7137 26.3247 23.0268C27.6321 25.4657 27.9087 28.4326 27.0287 31.1731ZM36.1807 22.9011C35.2002 24.2085 32.9876 25.34 29.6687 24.8623C29.4173 23.8062 29.015 22.7754 28.5121 21.82C26.9281 18.9285 24.3133 16.8417 21.1201 15.9616C19.3601 15.4839 17.6001 15.3834 15.8904 15.3079C15.3875 15.2828 14.8846 15.2576 14.3818 15.2325C15.4378 12.2153 17.6001 9.14789 20.5167 6.6336C21.623 5.67816 25.0424 2.73644 27.959 3.08844C29.3921 3.26444 30.4482 3.9433 31.0767 5.12502C31.8813 6.65874 31.9316 8.87132 31.2527 11.0336C30.5739 10.229 30.0207 9.29876 29.7693 8.11704L27.3053 8.67019C28.135 12.4165 30.9259 14.3022 33.1636 15.8359C34.5213 16.7662 35.8036 17.6462 36.3819 18.7022C37.1865 20.1605 37.111 21.6942 36.1807 22.9011Z" fill="#00D198"/>
<path d="M64.1649 11.3103H64.1398C63.7627 10.6565 63.2346 10.0782 62.6061 9.60053C61.9775 9.12281 61.2735 8.74566 60.4941 8.46909C59.7146 8.19252 58.8849 8.06681 58.03 8.06681C56.2952 8.06681 54.7363 8.4691 53.3786 9.24853C52.0209 10.028 50.9649 11.1343 50.2106 12.5423C49.4563 13.9503 49.054 15.5846 49.054 17.4954C49.054 18.9789 49.2803 20.3114 49.7329 21.5434C50.1854 22.7754 50.814 23.8315 51.6689 24.7115C52.4986 25.6166 53.5295 26.2955 54.7112 26.7732C55.918 27.2509 57.2506 27.4772 58.7341 27.4772C60.6449 27.4772 62.3295 27.0749 63.7627 26.2703C65.1958 25.4658 66.3272 24.3343 67.1318 22.8257C67.9364 21.3423 68.3387 19.5823 68.3387 17.5457V0.498779H64.1649V11.3103ZM63.4358 20.9903C62.9832 21.9206 62.3295 22.6246 61.5249 23.1526C60.7204 23.6806 59.7649 23.932 58.7089 23.932C57.678 23.932 56.7226 23.6806 55.8929 23.1526C55.0632 22.6246 54.4095 21.9206 53.9569 20.9903C53.5043 20.06 53.278 19.004 53.278 17.7971C53.278 16.6154 53.5043 15.5594 53.9569 14.6291C54.4095 13.6988 55.0632 12.9948 55.8929 12.4417C56.7226 11.9137 57.6529 11.6371 58.6838 11.6371C59.7649 11.6371 60.7204 11.8885 61.5249 12.4165C62.3295 12.9445 62.9832 13.6486 63.4358 14.5788C63.8884 15.5091 64.1146 16.5651 64.1146 17.772C64.1398 19.004 63.9135 20.06 63.4358 20.9903Z" fill="#252525"/>
<path d="M86.1147 9.34894C84.8324 8.49407 83.1981 8.06665 81.2118 8.06665C79.4518 8.06665 77.8929 8.46894 76.5352 9.29866C75.1775 10.1284 74.1215 11.2598 73.3421 12.7181C72.5626 14.1764 72.1855 15.861 72.1855 17.7718C72.1855 19.5821 72.6129 21.1913 73.4929 22.5742C74.3729 23.957 75.5798 25.0633 77.1386 25.8427C78.6975 26.6222 80.5329 27.0245 82.5947 27.0245H87.573V23.4542H82.5947C81.5638 23.4542 80.6084 23.2782 79.7535 22.9513C78.8987 22.6244 78.1946 22.1467 77.6415 21.493C77.0884 20.8393 76.7364 20.0347 76.5855 19.0793H89.7353C89.7856 18.9033 89.8107 18.677 89.8358 18.3501C89.861 18.0233 89.861 17.7467 89.861 17.5204C89.861 15.7604 89.5593 14.1513 88.9307 12.7181C88.3524 11.3352 87.397 10.2038 86.1147 9.34894ZM76.5604 16.2884C76.6358 15.7101 76.7615 15.1318 76.9878 14.5535C77.1889 13.9752 77.4906 13.4724 77.8678 13.0198C78.2449 12.5672 78.7226 12.2152 79.2758 11.9387C79.8289 11.6621 80.4827 11.5112 81.2118 11.5112C81.8404 11.5112 82.3935 11.6118 82.8713 11.7878C83.349 11.9638 83.7764 12.2152 84.1284 12.517C84.4804 12.8187 84.7821 13.1707 85.0084 13.5981C85.2347 14.0004 85.4107 14.453 85.5113 14.9055C85.6118 15.3581 85.6873 15.8358 85.7124 16.2884H76.5604Z" fill="#252525"/>
<path d="M107.31 9.17296C105.978 8.46895 104.444 8.0918 102.634 8.0918C100.849 8.0918 99.2896 8.44381 97.9571 9.17296C96.6245 9.87696 95.5936 10.8575 94.8645 12.1147C94.1353 13.3718 93.7833 14.7798 93.7833 16.389V27.0496H97.9571V16.4141C97.9571 15.4587 98.1582 14.629 98.5856 13.925C99.0131 13.221 99.5662 12.6427 100.295 12.2655C100.999 11.8633 101.779 11.6621 102.609 11.6621C103.463 11.6621 104.243 11.8633 104.947 12.2655C105.651 12.6678 106.229 13.221 106.682 13.925C107.109 14.629 107.335 15.4587 107.335 16.4141V27.0496H111.484V16.3638C111.484 14.7547 111.132 13.3467 110.403 12.0895C109.649 10.8575 108.618 9.87696 107.31 9.17296Z" fill="#252525"/>
<path d="M121.742 3.86768H117.594V8.51913H114.401V12.0894H117.594V21.7946C117.594 23.4289 118.071 24.7112 119.002 25.6415C119.932 26.5969 121.214 27.0495 122.874 27.0495H127.475V23.4792H123.578C123.025 23.4792 122.572 23.3032 122.245 22.9512C121.918 22.5992 121.742 22.1466 121.742 21.5935V12.0643H127.525V8.49399H121.742V3.86768Z" fill="#252525"/>
<path d="M144.849 9.3741C143.365 8.51924 141.681 8.0918 139.795 8.0918C137.884 8.0918 136.174 8.51924 134.716 9.3741C133.233 10.229 132.076 11.3855 131.221 12.869C130.366 14.3273 129.939 15.9867 129.939 17.797C129.939 19.6073 130.366 21.2667 131.221 22.725C132.076 24.1833 133.258 25.365 134.716 26.2199C136.2 27.0748 137.884 27.5022 139.795 27.5022C141.681 27.5022 143.365 27.0748 144.849 26.2199C146.332 25.365 147.489 24.2084 148.344 22.725C149.199 21.2667 149.626 19.6073 149.626 17.797C149.626 15.9867 149.199 14.3273 148.344 12.869C147.489 11.4107 146.332 10.229 144.849 9.3741ZM144.748 20.9147C144.296 21.845 143.642 22.5742 142.787 23.1022C141.932 23.6553 140.952 23.9319 139.82 23.9319C138.664 23.9319 137.658 23.6553 136.828 23.1022C135.998 22.549 135.345 21.8199 134.867 20.8896C134.389 19.9593 134.163 18.9284 134.163 17.7718C134.163 16.6153 134.389 15.5593 134.867 14.6541C135.345 13.7238 135.998 12.9947 136.828 12.4667C137.658 11.9135 138.664 11.637 139.82 11.637C140.952 11.637 141.957 11.9135 142.787 12.4667C143.642 13.0198 144.296 13.749 144.748 14.6793C145.201 15.6095 145.427 16.6404 145.427 17.797C145.427 18.9536 145.201 19.9844 144.748 20.9147Z" fill="#252525"/>
<path d="M168.458 9.27369C167.125 8.49426 165.566 8.09197 163.781 8.09197C162.901 8.09197 162.097 8.21769 161.317 8.49426C160.538 8.77083 159.834 9.14798 159.205 9.6257C158.577 10.1034 158.074 10.6817 157.672 11.3354H157.646V0.549072H153.473V17.596C153.473 19.6326 153.875 21.3926 154.68 22.876C155.484 24.3595 156.616 25.516 158.074 26.3206C159.532 27.1252 161.192 27.5275 163.077 27.5275C164.586 27.5275 165.919 27.3012 167.1 26.8235C168.282 26.3458 169.288 25.6669 170.143 24.7618C170.972 23.8566 171.626 22.8006 172.079 21.5937C172.531 20.3617 172.757 19.0292 172.757 17.5457C172.757 15.66 172.38 14.0006 171.601 12.5926C170.847 11.1594 169.791 10.0531 168.458 9.27369ZM167.855 20.9903C167.402 21.9206 166.748 22.6246 165.918 23.1526C165.089 23.6806 164.159 23.932 163.077 23.932C162.046 23.932 161.091 23.6806 160.286 23.1526C159.457 22.6246 158.828 21.9206 158.35 20.9903C157.898 20.06 157.672 19.004 157.672 17.7972C157.672 16.5903 157.898 15.5091 158.35 14.604C158.803 13.6737 159.457 12.9697 160.286 12.4417C161.116 11.9137 162.046 11.6623 163.128 11.6623C164.184 11.6623 165.139 11.9388 165.944 12.4668C166.748 12.9949 167.402 13.724 167.855 14.6543C168.307 15.5846 168.533 16.6406 168.533 17.8223C168.533 19.004 168.307 20.06 167.855 20.9903Z" fill="#252525"/>
<path d="M189.603 9.34894C188.321 8.49407 186.687 8.06665 184.7 8.06665C182.94 8.06665 181.382 8.46894 180.024 9.29866C178.666 10.1284 177.61 11.2598 176.831 12.7181C176.051 14.1764 175.674 15.861 175.674 17.7718C175.674 19.5821 176.101 21.1913 176.981 22.5742C177.861 23.957 179.068 25.0633 180.627 25.8427C182.186 26.6222 184.022 27.0245 186.083 27.0245H191.062V23.4542H186.083C185.052 23.4542 184.097 23.2782 183.242 22.9513C182.387 22.6244 181.683 22.1467 181.13 21.493C180.577 20.8393 180.225 20.0347 180.074 19.0793H193.224C193.274 18.9033 193.299 18.677 193.324 18.3501C193.35 18.0233 193.35 17.7467 193.35 17.5204C193.35 15.7604 193.048 14.1513 192.419 12.7181C191.841 11.3352 190.886 10.2038 189.603 9.34894ZM180.049 16.2884C180.124 15.7101 180.25 15.1318 180.476 14.5535C180.677 13.9752 180.979 13.4724 181.356 13.0198C181.733 12.5672 182.211 12.2152 182.764 11.9387C183.317 11.6621 183.971 11.5112 184.7 11.5112C185.329 11.5112 185.882 11.6118 186.36 11.7878C186.838 11.9638 187.265 12.2152 187.617 12.517C187.969 12.8187 188.271 13.1707 188.497 13.5981C188.723 14.0004 188.899 14.453 189 14.9055C189.1 15.3581 189.176 15.8358 189.201 16.2884H180.049Z" fill="#252525"/>
<path d="M210.17 9.34894C208.888 8.49407 207.254 8.06665 205.267 8.06665C203.507 8.06665 201.948 8.46894 200.591 9.29866C199.233 10.1284 198.177 11.2598 197.397 12.7181C196.618 14.1764 196.241 15.861 196.241 17.7718C196.241 19.5821 196.668 21.1913 197.548 22.5742C198.428 23.957 199.635 25.0633 201.194 25.8427C202.753 26.6222 204.588 27.0245 206.65 27.0245H211.628V23.4542H206.65C205.619 23.4542 204.664 23.2782 203.809 22.9513C202.954 22.6244 202.25 22.1467 201.697 21.493C201.144 20.8393 200.792 20.0347 200.641 19.0793H213.791C213.841 18.9033 213.866 18.677 213.891 18.3501C213.916 18.0233 213.916 17.7467 213.916 17.5204C213.916 15.7604 213.615 14.1513 212.986 12.7181C212.408 11.3352 211.452 10.2038 210.17 9.34894ZM200.616 16.2884C200.691 15.7101 200.817 15.1318 201.043 14.5535C201.244 13.9752 201.546 13.4724 201.923 13.0198C202.3 12.5672 202.778 12.2152 203.331 11.9387C203.884 11.6621 204.538 11.5112 205.267 11.5112C205.896 11.5112 206.449 11.6118 206.927 11.7878C207.404 11.9638 207.832 12.2152 208.184 12.517C208.536 12.8187 208.838 13.1707 209.064 13.5981C209.29 14.0004 209.466 14.453 209.567 14.9055C209.667 15.3581 209.743 15.8358 209.768 16.2884H200.616Z" fill="#252525"/>
<path d="M232.246 18.1993C231.743 17.3696 231.039 16.7662 230.083 16.3388C229.128 15.9365 227.997 15.7102 226.664 15.7102H223.144C222.541 15.7102 222.063 15.5342 221.686 15.157C221.334 14.805 221.133 14.3776 221.133 13.8747C221.133 13.3719 221.309 12.9444 221.686 12.5924C222.038 12.2404 222.515 12.0644 223.069 12.0644H231.29V8.49414H222.691C221.635 8.49414 220.68 8.74557 219.825 9.24843C218.97 9.75129 218.317 10.4301 217.814 11.2347C217.311 12.0644 217.059 12.9696 217.059 13.9502C217.059 15.1822 217.336 16.213 217.864 17.0176C218.392 17.8222 219.121 18.4256 220.051 18.8279C220.982 19.205 222.013 19.4062 223.219 19.4062H226.84C227.242 19.4062 227.619 19.5068 227.921 19.6828C228.248 19.8588 228.474 20.1102 228.65 20.3868C228.826 20.6885 228.902 21.0153 228.902 21.3925C228.902 21.7193 228.801 22.0714 228.625 22.3731C228.449 22.6999 228.198 22.9514 227.871 23.1274C227.544 23.3285 227.167 23.4291 226.714 23.4291H217.789V27.0497H227.167C228.273 27.0497 229.279 26.7982 230.159 26.2702C231.039 25.7422 231.743 25.0382 232.246 24.1582C232.749 23.2782 233 22.3228 233 21.3171C233 20.0599 232.749 19.0039 232.246 18.1993Z" fill="#252525"/>
</svg>
