<svg width="22" height="22" viewBox="0 0 22 22" fill="none" xmlns="http://www.w3.org/2000/svg">
<path d="M18.2838 8.0427L18.0191 8.65173C17.9777 8.75091 17.9079 8.83562 17.8185 8.89521C17.729 8.9548 17.624 8.98659 17.5165 8.98659C17.409 8.98659 17.304 8.9548 17.2146 8.89521C17.1251 8.83562 17.0553 8.75091 17.014 8.65173L16.7492 8.0427C16.2838 6.96529 15.4314 6.10145 14.3603 5.62163L13.5435 5.25685C13.4444 5.21127 13.3604 5.13824 13.3016 5.04641C13.2428 4.95458 13.2115 4.84781 13.2115 4.73874C13.2115 4.62968 13.2428 4.5229 13.3016 4.43107C13.3604 4.33924 13.4444 4.26621 13.5435 4.22063L14.3151 3.87738C15.4131 3.38389 16.2801 2.4881 16.7374 1.37453L17.0097 0.717075C17.0496 0.615233 17.1194 0.527799 17.2098 0.466172C17.3002 0.404544 17.4071 0.371582 17.5165 0.371582C17.6259 0.371582 17.7328 0.404544 17.8232 0.466172C17.9136 0.527799 17.9834 0.615233 18.0234 0.717075L18.2956 1.37345C18.7524 2.48723 19.619 3.38341 20.7169 3.87738L21.4896 4.22171C21.5883 4.26742 21.672 4.34044 21.7306 4.43215C21.7892 4.52387 21.8204 4.63044 21.8204 4.73928C21.8204 4.84813 21.7892 4.9547 21.7306 5.04641C21.672 5.13812 21.5883 5.21114 21.4896 5.25685L20.6717 5.62055C19.6008 6.10085 18.7487 6.96508 18.2838 8.0427ZM1.36717 2.52481H11.0598V4.67687H2.45083V19.7413H17.5165V11.1331H19.6688V20.8249C19.6685 21.1082 19.5558 21.3798 19.3555 21.5801C19.1551 21.7804 18.8835 21.8931 18.6002 21.8934H1.36717C1.08376 21.8934 0.811965 21.7808 0.611566 21.5804C0.411167 21.38 0.298584 21.1083 0.298584 20.8249V3.59331C0.298584 3.00364 0.777458 2.52481 1.36717 2.52481ZM8.50078 8.35152L13.7512 11.8508C13.8102 11.8901 13.8586 11.9433 13.8921 12.0058C13.9256 12.0684 13.9431 12.1382 13.9431 12.2091C13.9431 12.28 13.9256 12.3498 13.8921 12.4123C13.8586 12.4749 13.8102 12.5281 13.7512 12.5674L8.4997 16.0667C8.43495 16.1096 8.35978 16.1342 8.28218 16.1378C8.20458 16.1415 8.12744 16.1241 8.05893 16.0875C7.99042 16.0509 7.9331 15.9964 7.89305 15.9298C7.85299 15.8633 7.8317 15.7871 7.83143 15.7094V8.70876C7.83157 8.63091 7.85283 8.55456 7.89294 8.48783C7.93305 8.42111 7.9905 8.36651 8.05918 8.32985C8.12787 8.29319 8.20521 8.27585 8.28298 8.27966C8.36074 8.28348 8.43601 8.30831 8.50078 8.35152Z" fill="#1D5A49"/>
</svg>
