<svg width="267" height="102" viewBox="0 0 267 102" fill="none" xmlns="http://www.w3.org/2000/svg">
<g filter="url(#filter0_d_25_2250)">
<path d="M233.517 26.7959H33.3694C32.0976 26.7959 31.0667 27.8269 31.0667 29.0987V65.5069C31.0667 66.7787 32.0976 67.8097 33.3694 67.8097H233.517C234.789 67.8097 235.82 66.7787 235.82 65.5069V29.0987C235.82 27.8269 234.789 26.7959 233.517 26.7959Z" fill="#DEE6E4"/>
<path d="M47.7518 33.3203H38.9766C38.2114 33.3203 37.5911 33.9406 37.5911 34.7059V43.0192C37.5911 43.7844 38.2114 44.4047 38.9766 44.4047H47.7518C48.5171 44.4047 49.1374 43.7844 49.1374 43.0192V34.7059C49.1374 33.9406 48.5171 33.3203 47.7518 33.3203Z" fill="#009AFF"/>
<path d="M52.1471 40.8335C51.9071 40.8335 51.6854 40.7868 51.4807 40.6937C51.2805 40.6006 51.1156 40.4663 50.9868 40.2908L51.384 39.8125C51.4883 39.9558 51.6011 40.0633 51.723 40.1349C51.848 40.2065 51.9845 40.2424 52.131 40.2424C52.5213 40.2424 52.7169 40.0113 52.7169 39.5493V37.6042H51.3787V37.0185H53.4155V39.5116C53.4155 39.9558 53.3058 40.2871 53.0872 40.5057C52.8725 40.7242 52.5589 40.8335 52.1471 40.8335ZM55.9584 37.8782C56.1877 37.8782 56.3917 37.923 56.5711 38.0125C56.7536 38.1021 56.897 38.24 57.0013 38.4263C57.1049 38.6089 57.157 38.8454 57.157 39.1355V40.7797H56.4852V39.2215C56.4852 38.9671 56.4246 38.7773 56.3027 38.652C56.1846 38.5266 56.0175 38.4639 55.8027 38.4639C55.6455 38.4639 55.5052 38.4961 55.384 38.5606C55.2621 38.6251 55.167 38.7218 55.0988 38.8507C55.0343 38.9761 55.0021 39.1355 55.0021 39.3289V40.7797H54.3303V36.7928H55.0021V38.6842L54.8572 38.4477C54.9576 38.2651 55.1026 38.1254 55.292 38.0287C55.486 37.9283 55.7076 37.8782 55.9584 37.8782ZM59.3035 40.8173C59.0098 40.8173 58.7483 40.7546 58.519 40.6292C58.2897 40.5003 58.1087 40.3248 57.9768 40.1027C57.8441 39.8806 57.7774 39.628 57.7774 39.3451C57.7774 39.0586 57.8441 38.8059 57.9768 38.5875C58.1087 38.3654 58.2897 38.1917 58.519 38.0663C58.7483 37.9409 59.0098 37.8782 59.3035 37.8782C59.601 37.8782 59.8641 37.9409 60.0933 38.0663C60.3265 38.1917 60.5074 38.3636 60.6363 38.5821C60.7689 38.8006 60.8349 39.0549 60.8349 39.3451C60.8349 39.628 60.7689 39.8806 60.6363 40.1027C60.5074 40.3248 60.3265 40.5003 60.0933 40.6292C59.8641 40.7546 59.601 40.8173 59.3035 40.8173ZM59.3035 40.2424C59.4684 40.2424 59.6156 40.2065 59.7444 40.1349C59.8732 40.0633 59.9737 39.9594 60.045 39.8233C60.1202 39.6872 60.1578 39.5278 60.1578 39.3451C60.1578 39.1588 60.1202 38.9994 60.045 38.8668C59.9737 38.7308 59.8732 38.6269 59.7444 38.5553C59.6156 38.4836 59.4699 38.4477 59.3088 38.4477C59.144 38.4477 58.9975 38.4836 58.8687 38.5553C58.7429 38.6269 58.6424 38.7308 58.5673 38.8668C58.4921 38.9994 58.4545 39.1588 58.4545 39.3451C58.4545 39.5278 58.4921 39.6872 58.5673 39.8233C58.6424 39.9594 58.7429 40.0633 58.8687 40.1349C58.9975 40.2065 59.1424 40.2424 59.3035 40.2424ZM63.1056 37.8782C63.3349 37.8782 63.5389 37.923 63.7175 38.0125C63.9008 38.1021 64.0435 38.24 64.1478 38.4263C64.2513 38.6089 64.3034 38.8454 64.3034 39.1355V40.7797H63.6317V39.2215C63.6317 38.9671 63.5711 38.7773 63.4491 38.652C63.331 38.5266 63.1646 38.4639 62.9492 38.4639C62.792 38.4639 62.6524 38.4961 62.5304 38.5606C62.4085 38.6251 62.3134 38.7218 62.2459 38.8507C62.1807 38.9761 62.1485 39.1355 62.1485 39.3289V40.7797H61.4775V37.9105H62.1163V38.6842L62.0036 38.4477C62.1041 38.2651 62.249 38.1254 62.4392 38.0287C62.6324 37.9283 62.8548 37.8782 63.1056 37.8782ZM66.7053 40.7797V37.0185H68.3494C68.7574 37.0185 69.1155 37.0974 69.4238 37.255C69.7321 37.4126 69.9721 37.631 70.1439 37.9105C70.3157 38.1898 70.4016 38.5194 70.4016 38.8991C70.4016 39.2752 70.3157 39.6048 70.1439 39.8878C69.9721 40.1671 69.7321 40.3857 69.4238 40.5433C69.1155 40.7009 68.7574 40.7797 68.3494 40.7797H66.7053ZM67.4031 40.1887H68.3164C68.5994 40.1887 68.8433 40.1349 69.0473 40.0275C69.2551 39.92 69.4146 39.7696 69.5258 39.5761C69.6401 39.3827 69.6976 39.157 69.6976 38.8991C69.6976 38.6376 69.6401 38.4119 69.5258 38.2221C69.4146 38.0287 69.2551 37.8782 69.0473 37.7708C68.8433 37.6633 68.5994 37.6096 68.3164 37.6096H67.4031V40.1887ZM72.3693 40.8173C72.0756 40.8173 71.8141 40.7546 71.5848 40.6292C71.3555 40.5003 71.1745 40.3248 71.0419 40.1027C70.9092 39.8806 70.8433 39.628 70.8433 39.3451C70.8433 39.0586 70.9092 38.8059 71.0419 38.5875C71.1745 38.3654 71.3555 38.1917 71.5848 38.0663C71.8141 37.9409 72.0756 37.8782 72.3693 37.8782C72.6661 37.8782 72.9299 37.9409 73.1592 38.0663C73.3916 38.1917 73.5725 38.3636 73.7014 38.5821C73.8341 38.8006 73.9008 39.0549 73.9008 39.3451C73.9008 39.628 73.8341 39.8806 73.7014 40.1027C73.5725 40.3248 73.3916 40.5003 73.1592 40.6292C72.9299 40.7546 72.6661 40.8173 72.3693 40.8173ZM72.3693 40.2424C72.5342 40.2424 72.6807 40.2065 72.8095 40.1349C72.9384 40.0633 73.0388 39.9594 73.1109 39.8233C73.186 39.6872 73.2236 39.5278 73.2236 39.3451C73.2236 39.1588 73.186 38.9994 73.1109 38.8668C73.0388 38.7308 72.9384 38.6269 72.8095 38.5553C72.6807 38.4836 72.5357 38.4477 72.3747 38.4477C72.2098 38.4477 72.0626 38.4836 71.9337 38.5553C71.8087 38.6269 71.7083 38.7308 71.6331 38.8668C71.558 38.9994 71.5204 39.1588 71.5204 39.3451C71.5204 39.5278 71.558 39.6872 71.6331 39.8233C71.7083 39.9594 71.8087 40.0633 71.9337 40.1349C72.0626 40.2065 72.2075 40.2424 72.3693 40.2424ZM75.8915 40.8173C75.5725 40.8173 75.2934 40.7546 75.0534 40.6292C74.8164 40.5003 74.6323 40.3248 74.4997 40.1027C74.3708 39.8806 74.3064 39.628 74.3064 39.3451C74.3064 39.0586 74.3686 38.8059 74.4943 38.5875C74.6232 38.3654 74.7987 38.1917 75.0211 38.0663C75.2466 37.9409 75.5027 37.8782 75.7896 37.8782C76.0687 37.8782 76.3179 37.9392 76.5357 38.0609C76.7543 38.1827 76.9268 38.3546 77.0518 38.5767C77.1776 38.7988 77.2397 39.0603 77.2397 39.3612C77.2397 39.3898 77.2382 39.4221 77.2343 39.4579C77.2343 39.4937 77.2328 39.5278 77.229 39.56H74.8379V39.1141H76.8747L76.6116 39.2537C76.6147 39.089 76.5809 38.9439 76.5089 38.8185C76.4375 38.6931 76.3394 38.5947 76.2136 38.523C76.0917 38.4513 75.9506 38.4155 75.7896 38.4155C75.6247 38.4155 75.479 38.4513 75.354 38.523C75.232 38.5947 75.1354 38.6949 75.0641 38.8239C74.9958 38.9493 74.9621 39.0979 74.9621 39.2698V39.3773C74.9621 39.5493 75.0012 39.7015 75.0802 39.834C75.1584 39.9666 75.2696 40.0687 75.413 40.1403C75.5564 40.2119 75.7213 40.2477 75.9076 40.2477C76.0687 40.2477 76.2136 40.2227 76.3425 40.1725C76.4713 40.1223 76.5863 40.0436 76.6868 39.9362L77.0465 40.3499C76.9176 40.5003 76.7543 40.6167 76.5572 40.6991C76.3639 40.7779 76.1423 40.8173 75.8915 40.8173Z" fill="#375268"/>
<path d="M97.8478 36.0801H80.9732C80.6022 36.0801 80.3015 36.3808 80.3015 36.7518V40.9735C80.3015 41.3444 80.6022 41.6451 80.9732 41.6451H97.8478C98.2187 41.6451 98.5194 41.3444 98.5194 40.9735V36.7518C98.5194 36.3808 98.2187 36.0801 97.8478 36.0801Z" stroke="#DCE5EE" stroke-width="0.250234"/>
<mask id="mask0_25_2250" style="mask-type:luminance" maskUnits="userSpaceOnUse" x="80" y="37" width="5" height="4">
<path d="M84.6197 37.1356H80.9736V40.5897H84.6197V37.1356Z" fill="white"/>
</mask>
<g mask="url(#mask0_25_2250)">
<path d="M82.7965 40.3016C81.9575 40.3016 81.2773 39.6573 81.2773 38.8624C81.2773 38.0676 81.9575 37.4232 82.7965 37.4232C83.6354 37.4232 84.3157 38.0676 84.3157 38.8624C84.3157 39.6573 83.6354 40.3016 82.7965 40.3016ZM82.7965 40.0138C83.1186 40.0138 83.4276 39.8925 83.6554 39.6765C83.8831 39.4607 84.0112 39.1678 84.0112 38.8624C84.0112 38.5571 83.8831 38.2642 83.6554 38.0483C83.4276 37.8324 83.1186 37.7111 82.7965 37.7111C82.4736 37.7111 82.1646 37.8324 81.9368 38.0483C81.7091 38.2642 81.581 38.5571 81.581 38.8624C81.581 39.1678 81.7091 39.4607 81.9368 39.6765C82.1646 39.8925 82.4736 40.0138 82.7965 40.0138ZM82.7965 38.1428C82.8364 38.1428 82.8755 38.158 82.9039 38.185C82.9322 38.212 82.9483 38.2486 82.9483 38.2867V39.0064C82.9483 39.0445 82.9322 39.0811 82.9039 39.1081C82.8755 39.1351 82.8364 39.1502 82.7965 39.1502C82.7559 39.1502 82.7175 39.1351 82.6891 39.1081C82.66 39.0811 82.6447 39.0445 82.6447 39.0064V38.2867C82.6447 38.2486 82.66 38.212 82.6891 38.185C82.7175 38.158 82.7559 38.1428 82.7965 38.1428ZM82.7965 39.5821C82.7559 39.5821 82.7175 39.5669 82.6891 39.5399C82.66 39.5129 82.6447 39.4763 82.6447 39.4381C82.6447 39.3999 82.66 39.3634 82.6891 39.3364C82.7175 39.3094 82.7559 39.2942 82.7965 39.2942C82.8364 39.2942 82.8755 39.3094 82.9039 39.3364C82.9322 39.3634 82.9483 39.3999 82.9483 39.4381C82.9483 39.4763 82.9322 39.5129 82.9039 39.5399C82.8755 39.5669 82.8364 39.5821 82.7965 39.5821Z" fill="#85969F"/>
</g>
<path d="M85.2948 38.6596H86.2894V38.8316H85.2948V38.6596ZM85.3163 39.6295H85.1177V37.7489H86.4075V37.9208H85.3163V39.6295ZM86.7772 39.6295V38.2191H86.9681V39.6295H86.7772ZM86.8746 37.9074C86.8347 37.9074 86.8017 37.894 86.7749 37.8672C86.748 37.8402 86.7342 37.808 86.7342 37.7704C86.7342 37.7328 86.748 37.7014 86.7749 37.6764C86.8017 37.6495 86.8347 37.6361 86.8746 37.6361C86.9137 37.6361 86.9467 37.6486 86.9735 37.6737C87.0003 37.6988 87.0141 37.7301 87.0141 37.7677C87.0141 37.8071 87.0003 37.8402 86.9735 37.8672C86.949 37.894 86.9152 37.9074 86.8746 37.9074ZM87.4988 39.6295V38.2191H87.6821V38.6033L87.6629 38.5361C87.702 38.4286 87.7687 38.3471 87.8615 38.2916C87.9551 38.2343 88.0701 38.2057 88.2081 38.2057V38.391C88.2012 38.391 88.1936 38.391 88.1867 38.391C88.1798 38.3892 88.1721 38.3883 88.1652 38.3883C88.0164 38.3883 87.8999 38.434 87.8163 38.5254C87.7319 38.6149 87.6897 38.7429 87.6897 38.9095V39.6295H87.4988ZM88.9512 39.6429C88.8347 39.6429 88.7242 39.6268 88.6207 39.5946C88.5164 39.5606 88.4351 39.5185 88.3761 39.4683L88.462 39.3178C88.5195 39.3609 88.5924 39.3984 88.6821 39.4307C88.7718 39.4612 88.8661 39.4764 88.9643 39.4764C89.0985 39.4764 89.1951 39.4558 89.2542 39.4145C89.3132 39.3716 89.3431 39.3152 89.3431 39.2453C89.3431 39.1934 89.3262 39.1531 89.2917 39.1244C89.2595 39.094 89.2166 39.0716 89.1629 39.0573C89.1092 39.0412 89.0494 39.0277 88.9834 39.017C88.9167 39.0062 88.8508 38.9937 88.7841 38.9794C88.7196 38.965 88.6606 38.9445 88.6069 38.9175C88.5532 38.8889 88.5095 38.8504 88.475 38.8021C88.4428 38.7537 88.4267 38.6892 88.4267 38.6086C88.4267 38.5316 88.4482 38.4626 88.4911 38.4017C88.5348 38.3409 88.5969 38.2934 88.6798 38.2593C88.7633 38.2235 88.8661 38.2057 88.9858 38.2057C89.077 38.2057 89.1683 38.2182 89.2595 38.2432C89.3515 38.2665 89.4267 38.2978 89.4857 38.3373L89.4022 38.4904C89.3393 38.4475 89.2726 38.417 89.2005 38.3991C89.1292 38.3794 89.0571 38.3695 88.9858 38.3695C88.8585 38.3695 88.7649 38.3919 88.7035 38.4367C88.6445 38.4797 88.6154 38.5352 88.6154 38.6033C88.6154 38.657 88.6315 38.6991 88.6637 38.7295C88.6974 38.76 88.7411 38.7841 88.7948 38.8021C88.8508 38.8182 88.9106 38.8316 88.975 38.8423C89.041 38.8531 89.1069 38.8665 89.1713 38.8826C89.2373 38.897 89.2971 38.9175 89.3515 38.9445C89.4068 38.9695 89.4505 39.0062 89.4827 39.0546C89.5172 39.1011 89.5341 39.1629 89.5341 39.2399C89.5341 39.3224 89.5103 39.394 89.4643 39.4549C89.419 39.514 89.3531 39.5606 89.2649 39.5946C89.179 39.6268 89.0747 39.6429 88.9512 39.6429ZM90.3301 39.6429C90.1974 39.6429 90.0954 39.6071 90.0233 39.5355C89.952 39.4639 89.9159 39.3626 89.9159 39.2319V37.9074H90.1069V39.2211C90.1069 39.3035 90.1276 39.3672 90.1683 39.4119C90.212 39.4566 90.2726 39.479 90.3515 39.479C90.4351 39.479 90.5057 39.4549 90.5609 39.4065L90.6284 39.5435C90.5908 39.5776 90.5448 39.6027 90.4911 39.6188C90.439 39.6349 90.3853 39.6429 90.3301 39.6429ZM89.6637 38.3776V38.2191H90.5364V38.3776H89.6637ZM92.2534 39.6295L91.4205 37.7489H91.6353L92.4144 39.5194H92.2963L93.0808 37.7489H93.2825L92.4497 39.6295H92.2534ZM93.5072 39.6295V38.2191H93.6981V39.6295H93.5072ZM93.6038 37.9074C93.5647 37.9074 93.531 37.894 93.5041 37.8672C93.4773 37.8402 93.4642 37.808 93.4642 37.7704C93.4642 37.7328 93.4773 37.7014 93.5041 37.6764C93.531 37.6495 93.5647 37.6361 93.6038 37.6361C93.6429 37.6361 93.6759 37.6486 93.7035 37.6737C93.7303 37.6988 93.7434 37.7301 93.7434 37.7677C93.7434 37.8071 93.7303 37.8402 93.7035 37.8672C93.6782 37.894 93.6452 37.9074 93.6038 37.9074ZM94.6076 39.6429C94.4911 39.6429 94.3806 39.6268 94.2771 39.5946C94.1728 39.5606 94.0915 39.5185 94.0325 39.4683L94.1184 39.3178C94.1759 39.3609 94.2487 39.3984 94.3385 39.4307C94.4282 39.4612 94.5225 39.4764 94.6207 39.4764C94.7549 39.4764 94.8515 39.4558 94.9105 39.4145C94.9704 39.3716 94.9995 39.3152 94.9995 39.2453C94.9995 39.1934 94.9826 39.1531 94.9481 39.1244C94.9159 39.094 94.873 39.0716 94.8193 39.0573C94.7656 39.0412 94.7058 39.0277 94.6398 39.017C94.5731 39.0062 94.5072 38.9937 94.4405 38.9794C94.3761 38.965 94.317 38.9445 94.2633 38.9175C94.2096 38.8889 94.1659 38.8504 94.1314 38.8021C94.0992 38.7537 94.0831 38.6892 94.0831 38.6086C94.0831 38.5316 94.1046 38.4626 94.1483 38.4017C94.1912 38.3409 94.2533 38.2934 94.3362 38.2593C94.4205 38.2235 94.5225 38.2057 94.6422 38.2057C94.7334 38.2057 94.8247 38.2182 94.9159 38.2432C95.008 38.2665 95.0831 38.2978 95.1421 38.3373L95.0586 38.4904C94.9957 38.4475 94.929 38.417 94.8569 38.3991C94.7856 38.3794 94.7142 38.3695 94.6422 38.3695C94.5149 38.3695 94.4213 38.3919 94.3599 38.4367C94.3009 38.4797 94.2718 38.5352 94.2718 38.6033C94.2718 38.657 94.2879 38.6991 94.3201 38.7295C94.3538 38.76 94.3975 38.7841 94.4512 38.8021C94.5072 38.8182 94.567 38.8316 94.6314 38.8423C94.6981 38.8531 94.7633 38.8665 94.8277 38.8826C94.8937 38.897 94.9535 38.9175 95.0079 38.9445C95.0632 38.9695 95.1069 39.0062 95.1391 39.0546C95.1736 39.1011 95.1905 39.1629 95.1905 39.2399C95.1905 39.3224 95.1667 39.394 95.1207 39.4549C95.0754 39.514 95.0095 39.5606 94.9213 39.5946C94.8354 39.6268 94.7311 39.6429 94.6076 39.6429ZM95.5402 39.6295V38.2191H95.7311V39.6295H95.5402ZM95.6368 37.9074C95.5977 37.9074 95.5647 37.894 95.5379 37.8672C95.511 37.8402 95.4972 37.808 95.4972 37.7704C95.4972 37.7328 95.511 37.7014 95.5379 37.6764C95.5647 37.6495 95.5977 37.6361 95.6368 37.6361C95.6767 37.6361 95.7096 37.6486 95.7365 37.6737C95.7633 37.6988 95.7763 37.7301 95.7763 37.7677C95.7763 37.8071 95.7633 37.8402 95.7365 37.8672C95.7112 37.894 95.6782 37.9074 95.6368 37.9074ZM96.7081 39.6429C96.5754 39.6429 96.4734 39.6071 96.4013 39.5355C96.33 39.4639 96.294 39.3626 96.294 39.2319V37.9074H96.4849V39.2211C96.4849 39.3035 96.5056 39.3672 96.5463 39.4119C96.5892 39.4566 96.6506 39.479 96.7296 39.479C96.8131 39.479 96.8829 39.4549 96.9389 39.4065L97.0056 39.5435C96.968 39.5776 96.9228 39.6027 96.8691 39.6188C96.817 39.6349 96.7633 39.6429 96.7081 39.6429ZM96.0417 38.3776V38.2191H96.9144V38.3776H96.0417Z" fill="#85969F"/>
<mask id="mask1_25_2250" style="mask-type:luminance" maskUnits="userSpaceOnUse" x="100" y="38" width="10" height="10">
<path d="M109.079 38.8621H100.535V47.4064H109.079V38.8621Z" fill="white"/>
</mask>
<g mask="url(#mask1_25_2250)">
<path d="M104.807 42.4222C105.593 42.4222 106.231 41.7846 106.231 40.9982C106.231 40.2117 105.593 39.5741 104.807 39.5741C104.02 39.5741 103.383 40.2117 103.383 40.9982C103.383 41.7846 104.02 42.4222 104.807 42.4222Z" stroke="#DEE6E4" stroke-width="0.752823"/>
<path d="M107.655 45.0923C107.655 45.9771 107.655 46.6944 104.807 46.6944C101.958 46.6944 101.958 45.9771 101.958 45.0923C101.958 44.2076 103.234 43.4903 104.807 43.4903C106.379 43.4903 107.655 44.2076 107.655 45.0923Z" stroke="#DEE6E4" stroke-width="0.752823"/>
</g>
<path d="M37.5911 48.9144H229.295" stroke="#DCE5EE" stroke-width="0.250234"/>
<path d="M37.5964 55.9164L38.4561 54.0358H38.6524L39.5121 55.9164H39.3027L38.5128 54.1513H38.5934L37.8035 55.9164H37.5964ZM37.9346 55.414L37.9944 55.2528H39.0872L39.1463 55.414H37.9346ZM40.3717 56.451C40.2421 56.451 40.1187 56.4322 40.0006 56.3946C39.8825 56.357 39.7866 56.3033 39.713 56.2334L39.8096 56.0883C39.8763 56.1475 39.9576 56.194 40.0542 56.2281C40.1532 56.2639 40.2567 56.2817 40.3664 56.2817C40.545 56.2817 40.6769 56.2397 40.7613 56.1555C40.8449 56.0731 40.8871 55.9442 40.8871 55.7686V55.4167L40.9139 55.1749L40.8955 54.9331V54.506H41.078V55.7445C41.078 55.988 41.0182 56.1663 40.8978 56.2791C40.7797 56.3937 40.6041 56.451 40.3717 56.451ZM40.3364 55.8627C40.2022 55.8627 40.0811 55.8341 39.9737 55.7767C39.8664 55.7176 39.7812 55.6361 39.7184 55.5322C39.6578 55.4284 39.6271 55.3092 39.6271 55.1749C39.6271 55.0406 39.6578 54.9224 39.7184 54.8203C39.7812 54.7164 39.8664 54.6358 39.9737 54.5785C40.0811 54.5212 40.2022 54.4926 40.3364 54.4926C40.4622 54.4926 40.5749 54.5185 40.6754 54.5704C40.7751 54.6224 40.8549 54.6994 40.9139 54.8015C40.9729 54.9036 41.0029 55.0281 41.0029 55.1749C41.0029 55.3218 40.9729 55.4462 40.9139 55.5483C40.8549 55.6505 40.7751 55.7284 40.6754 55.7821C40.5749 55.8358 40.4622 55.8627 40.3364 55.8627ZM40.3556 55.6934C40.4592 55.6934 40.5512 55.6719 40.6317 55.6289C40.713 55.5841 40.7759 55.5232 40.8226 55.4462C40.8694 55.3675 40.8924 55.277 40.8924 55.1749C40.8924 55.0729 40.8694 54.9833 40.8226 54.9063C40.7759 54.8292 40.713 54.7693 40.6317 54.7262C40.5512 54.6815 40.4592 54.6591 40.3556 54.6591C40.2536 54.6591 40.1608 54.6815 40.0788 54.7262C39.9983 54.7693 39.9346 54.8292 39.8878 54.9063C39.8434 54.9833 39.8203 55.0729 39.8203 55.1749C39.8203 55.277 39.8434 55.3675 39.8878 55.4462C39.9346 55.5232 39.9983 55.5841 40.0788 55.6289C40.1608 55.6719 40.2536 55.6934 40.3556 55.6934ZM42.2076 55.9298C42.0611 55.9298 41.9323 55.8994 41.8211 55.8385C41.7099 55.7758 41.6233 55.6907 41.5604 55.5833C41.4975 55.474 41.466 55.3495 41.466 55.2098C41.466 55.0702 41.496 54.9466 41.555 54.8391C41.6156 54.7316 41.6984 54.6475 41.8019 54.5866C41.9078 54.5239 42.0259 54.4926 42.157 54.4926C42.2897 54.4926 42.407 54.523 42.509 54.5839C42.6125 54.643 42.6938 54.7272 42.7536 54.8364C42.8127 54.9439 42.8418 55.0683 42.8418 55.2098C42.8418 55.2188 42.841 55.2286 42.8395 55.2394C42.8395 55.2483 42.8395 55.2582 42.8395 55.2689H41.6118V55.1265H42.7375L42.6616 55.183C42.6616 55.0809 42.6394 54.9904 42.5949 54.9117C42.5519 54.8311 42.4929 54.7683 42.4177 54.7236C42.3426 54.6788 42.2552 54.6565 42.157 54.6565C42.0604 54.6565 41.9729 54.6788 41.8962 54.7236C41.8196 54.7683 41.759 54.8311 41.716 54.9117C41.6731 54.9923 41.6516 55.0844 41.6516 55.1883V55.2179C41.6516 55.3254 41.6754 55.4203 41.7214 55.5027C41.7697 55.5833 41.8364 55.6469 41.9208 55.6934C42.0067 55.7382 42.1041 55.7606 42.213 55.7606C42.2996 55.7606 42.3786 55.7453 42.4522 55.7149C42.5274 55.6844 42.5918 55.6379 42.6455 55.5752L42.7536 55.6988C42.6907 55.774 42.6117 55.8314 42.5166 55.8707C42.4239 55.9101 42.3211 55.9298 42.2076 55.9298ZM43.249 54.7854C43.2099 54.7854 43.1754 54.771 43.147 54.7424C43.1202 54.7137 43.1064 54.6788 43.1064 54.6376C43.1064 54.5946 43.1202 54.5597 43.147 54.5328C43.1754 54.506 43.2099 54.4926 43.249 54.4926C43.2881 54.4926 43.3219 54.506 43.3487 54.5328C43.3771 54.5597 43.3916 54.5946 43.3916 54.6376C43.3916 54.6788 43.3771 54.7137 43.3487 54.7424C43.3219 54.771 43.2881 54.7854 43.249 54.7854ZM43.249 55.9298C43.2099 55.9298 43.1754 55.9155 43.147 55.8869C43.1202 55.8582 43.1064 55.8232 43.1064 55.7821C43.1064 55.7391 43.1202 55.7041 43.147 55.6773C43.1754 55.6505 43.2099 55.637 43.249 55.637C43.2881 55.637 43.3219 55.6505 43.3487 55.6773C43.3771 55.7041 43.3916 55.7391 43.3916 55.7821C43.3916 55.8232 43.3771 55.8582 43.3487 55.8869C43.3219 55.9155 43.2881 55.9298 43.249 55.9298Z" fill="#85969F"/>
<path d="M37.7262 60.5183V60.3422L38.7308 59.3577C38.8236 59.2679 38.8926 59.1896 38.9386 59.1229C38.9846 59.0538 39.0153 58.9893 39.0314 58.9294C39.0475 58.8696 39.0559 58.8131 39.0559 58.7602C39.0559 58.6197 39.0076 58.5092 38.911 58.4286C38.8167 58.348 38.6755 58.3077 38.4892 58.3077C38.3466 58.3077 38.22 58.3296 38.1096 58.3733C38.0015 58.4171 37.9079 58.485 37.8297 58.5771L37.6533 58.4251C37.7476 58.3146 37.8688 58.2294 38.016 58.1695C38.1633 58.1096 38.3282 58.0797 38.5099 58.0797C38.6732 58.0797 38.8151 58.1062 38.9347 58.1592C39.0544 58.2098 39.1464 58.2846 39.2116 58.3837C39.2783 58.4827 39.3113 58.599 39.3113 58.7325C39.3113 58.8108 39.2998 58.888 39.2768 58.964C39.2561 59.04 39.217 59.1206 39.1594 59.2058C39.1042 59.2887 39.0222 59.3831 38.914 59.489L37.9923 60.394L37.9225 60.2973H39.4217V60.5183H37.7262ZM40.6525 60.5391C40.4593 60.5391 40.2921 60.5114 40.1518 60.4562C40.0137 60.4009 39.9071 60.3214 39.8304 60.2178C39.7568 60.1119 39.72 59.9875 39.72 59.8447C39.72 59.7066 39.7561 59.5891 39.8274 59.4924C39.901 59.3934 40.0068 59.3174 40.1449 59.2644C40.2852 59.2115 40.4547 59.185 40.6525 59.185C40.8488 59.185 41.0168 59.2115 41.1571 59.2644C41.2975 59.3174 41.4048 59.3934 41.4784 59.4924C41.5544 59.5891 41.5927 59.7066 41.5927 59.8447C41.5927 59.9875 41.5544 60.1119 41.4784 60.2178C41.4025 60.3214 41.2944 60.4009 41.1541 60.4562C41.013 60.5114 40.8465 60.5391 40.6525 60.5391ZM40.6525 60.3283C40.8673 60.3283 41.0337 60.2846 41.1541 60.1971C41.276 60.1096 41.3366 59.991 41.3366 59.8413C41.3366 59.6917 41.276 59.5742 41.1541 59.489C41.0337 59.4015 40.8673 59.3577 40.6525 59.3577C40.4386 59.3577 40.2714 59.4015 40.1518 59.489C40.0321 59.5742 39.9723 59.6917 39.9723 59.8413C39.9723 59.991 40.0321 60.1096 40.1518 60.1971C40.2714 60.2846 40.4386 60.3283 40.6525 60.3283ZM40.6525 59.3266C40.4731 59.3266 40.3205 59.3025 40.1932 59.2541C40.0689 59.2058 39.9739 59.1367 39.9071 59.0469C39.8397 58.9548 39.8067 58.8454 39.8067 58.7187C39.8067 58.5852 39.8412 58.4712 39.9102 58.3768C39.9815 58.28 40.0805 58.2063 40.207 58.1557C40.3343 58.105 40.4823 58.0797 40.6525 58.0797C40.8235 58.0797 40.9715 58.105 41.0981 58.1557C41.2277 58.2063 41.3274 58.28 41.3987 58.3768C41.47 58.4712 41.5061 58.5852 41.5061 58.7187C41.5061 58.8454 41.4723 58.9548 41.4056 59.0469C41.3389 59.1367 41.2415 59.2058 41.1119 59.2541C40.9853 59.3025 40.8327 59.3266 40.6525 59.3266ZM40.6525 59.1608C40.8419 59.1608 40.9892 59.1217 41.095 59.0434C41.2008 58.9651 41.2537 58.8603 41.2537 58.7291C41.2537 58.5909 41.1985 58.4839 41.0881 58.4079C40.98 58.3296 40.835 58.2904 40.6525 58.2904C40.4708 58.2904 40.3258 58.3296 40.2177 58.4079C40.1096 58.4839 40.0551 58.5898 40.0551 58.7256C40.0551 58.8592 40.1073 58.9651 40.2108 59.0434C40.3166 59.1217 40.4639 59.1608 40.6525 59.1608Z" fill="#1D2D39"/>
<path d="M70.8701 55.9164V54.0358H71.6355C71.8364 54.0358 72.0112 54.0761 72.1623 54.1567C72.3141 54.2355 72.4322 54.3456 72.5166 54.4871C72.6009 54.6286 72.6431 54.7916 72.6431 54.9761C72.6431 55.1606 72.6009 55.3235 72.5166 55.465C72.4322 55.6065 72.3141 55.7176 72.1623 55.7982C72.0112 55.877 71.8364 55.9164 71.6355 55.9164H70.8701ZM71.0687 55.7445H71.6247C71.7911 55.7445 71.9353 55.7122 72.0572 55.6478C72.1807 55.5814 72.2766 55.491 72.3448 55.3764C72.4131 55.26 72.4468 55.1265 72.4468 54.9761C72.4468 54.8239 72.4131 54.6904 72.3448 54.5758C72.2766 54.4612 72.1807 54.3716 72.0572 54.3071C71.9353 54.2409 71.7911 54.2078 71.6247 54.2078H71.0687V55.7445ZM73.9115 55.9325C73.7696 55.9325 73.6385 55.9092 73.5166 55.8626C73.3962 55.8143 73.2919 55.7472 73.2022 55.6612C73.1147 55.5734 73.0457 55.4722 72.9951 55.3576C72.9468 55.2412 72.923 55.114 72.923 54.9761C72.923 54.8382 72.9468 54.712 72.9951 54.5973C73.0457 54.4809 73.1147 54.3797 73.2022 54.2937C73.2919 54.206 73.3962 54.1388 73.5166 54.0923C73.6362 54.0439 73.7681 54.0197 73.9115 54.0197C74.0526 54.0197 74.1838 54.0439 74.3034 54.0923C74.4238 54.1388 74.5273 54.2051 74.6155 54.291C74.7044 54.377 74.7735 54.4782 74.8218 54.5946C74.8724 54.711 74.8977 54.8382 74.8977 54.9761C74.8977 55.114 74.8724 55.2412 74.8218 55.3576C74.7735 55.474 74.7044 55.5752 74.6155 55.6612C74.5273 55.7472 74.4238 55.8143 74.3034 55.8626C74.1838 55.9092 74.0526 55.9325 73.9115 55.9325ZM73.9115 55.7552C74.0242 55.7552 74.1278 55.7364 74.2229 55.6988C74.3195 55.6594 74.4031 55.6047 74.4729 55.5349C74.5442 55.4633 74.6002 55.3809 74.6393 55.2877C74.6791 55.1928 74.6983 55.089 74.6983 54.9761C74.6983 54.8633 74.6791 54.7603 74.6393 54.6672C74.6002 54.5722 74.5442 54.4898 74.4729 54.42C74.4031 54.3483 74.3195 54.2937 74.2229 54.2561C74.1278 54.2167 74.0242 54.197 73.9115 54.197C73.7988 54.197 73.6937 54.2167 73.5971 54.2561C73.5005 54.2937 73.4161 54.3483 73.3448 54.42C73.275 54.4898 73.219 54.5722 73.1776 54.6672C73.1385 54.7603 73.1186 54.8633 73.1186 54.9761C73.1186 55.0871 73.1385 55.1901 73.1776 55.285C73.219 55.38 73.275 55.4633 73.3448 55.5349C73.4161 55.6047 73.5005 55.6594 73.5971 55.6988C73.6937 55.7364 73.7988 55.7552 73.9115 55.7552ZM75.3433 55.9164V54.0358H76.1546C76.364 54.0358 76.5257 54.0779 76.6408 54.162C76.7573 54.2462 76.8149 54.3653 76.8149 54.5194C76.8149 54.6215 76.7911 54.7074 76.7428 54.7773C76.696 54.8472 76.6316 54.9 76.5495 54.9358C76.4682 54.9716 76.3801 54.9896 76.2834 54.9896L76.3287 54.9251C76.4491 54.9251 76.5518 54.9439 76.6377 54.9814C76.7259 55.0173 76.7934 55.0719 76.8417 55.1453C76.8908 55.217 76.9146 55.3065 76.9146 55.414C76.9146 55.5734 76.8555 55.697 76.7374 55.7847C76.6208 55.8725 76.4445 55.9164 76.2083 55.9164H75.3433ZM75.5419 55.7525H76.2052C76.3701 55.7525 76.4966 55.7248 76.5841 55.6692C76.6722 55.612 76.7159 55.5215 76.7159 55.3979C76.7159 55.2761 76.6722 55.1874 76.5841 55.1319C76.4966 55.0746 76.3701 55.0459 76.2052 55.0459H75.5204V54.8821H76.1408C76.2911 54.8821 76.4077 54.8535 76.4905 54.7961C76.5741 54.7388 76.6163 54.6537 76.6163 54.5409C76.6163 54.4262 76.5741 54.3412 76.4905 54.2857C76.4077 54.2284 76.2911 54.1997 76.1408 54.1997H75.5419V55.7525Z" fill="#85969F"/>
<path d="M71.216 60.5391C71.0802 60.5391 70.9529 60.5091 70.8325 60.4493C70.7152 60.3894 70.6209 60.3042 70.5496 60.1937L70.6983 60.021C70.7651 60.1177 70.8417 60.1914 70.9299 60.242C71.0174 60.2927 71.114 60.318 71.2198 60.318C71.5189 60.318 71.6692 60.1407 71.6692 59.7861V58.3215H70.7842V58.1004H71.9207V59.7757C71.9207 60.0313 71.8609 60.2224 71.7413 60.3491C71.624 60.4757 71.4491 60.5391 71.216 60.5391ZM73.7719 60.5183V60.1177L73.762 60.052V59.3819C73.762 59.2276 73.7183 59.109 73.6308 59.0261C73.5457 58.9432 73.4176 58.9018 73.2474 58.9018C73.1301 58.9018 73.0181 58.9213 72.9123 58.9605C72.8064 58.9996 72.7167 59.0515 72.6431 59.116L72.5319 58.9328C72.6247 58.8546 72.7351 58.7947 72.864 58.7533C72.9928 58.7095 73.1285 58.6876 73.2712 58.6876C73.5066 58.6876 73.6868 58.7463 73.8141 58.8638C73.943 58.9789 74.0074 59.1551 74.0074 59.3923V60.5183H73.7719ZM73.1469 60.5356C73.0112 60.5356 72.8923 60.5137 72.7911 60.47C72.6922 60.4239 72.6163 60.3618 72.5634 60.2835C72.5104 60.2029 72.4836 60.1108 72.4836 60.0071C72.4836 59.9127 72.5058 59.8275 72.5495 59.7515C72.5956 59.6732 72.6692 59.6111 72.7704 59.565C72.8739 59.5166 73.0127 59.4924 73.1853 59.4924H73.8103V59.6755H73.1922C73.0173 59.6755 72.8947 59.7066 72.8256 59.7687C72.7589 59.8309 72.7259 59.9081 72.7259 60.0002C72.7259 60.1039 72.7658 60.1868 72.8463 60.2489C72.9268 60.3111 73.0404 60.3422 73.1853 60.3422C73.3233 60.3422 73.4422 60.3111 73.5411 60.2489C73.6423 60.1845 73.7159 60.0923 73.762 59.9726L73.8172 60.1418C73.7712 60.2616 73.6907 60.3572 73.5756 60.4285C73.4629 60.4999 73.3195 60.5356 73.1469 60.5356ZM75.5986 58.6876C75.7466 58.6876 75.8755 58.7164 75.9859 58.774C76.0986 58.8292 76.186 58.9144 76.2481 59.0296C76.3126 59.1447 76.3448 59.2898 76.3448 59.4648V60.5183H76.1001V59.489C76.1001 59.2979 76.0518 59.1539 75.9544 59.0572C75.8601 58.9582 75.7267 58.9087 75.5541 58.9087C75.4253 58.9087 75.3126 58.9352 75.216 58.9881C75.1209 59.0388 75.0472 59.1136 74.9943 59.2127C74.9437 59.3094 74.9184 59.4268 74.9184 59.565V60.5183H74.673V58.7049H74.9084V59.2023L74.8701 59.109C74.9276 58.9778 75.0196 58.8753 75.1462 58.8016C75.2735 58.7256 75.4238 58.6876 75.5986 58.6876ZM77.7573 60.5356C77.6024 60.5356 77.4682 60.5068 77.3532 60.4493C77.2382 60.3917 77.1477 60.3053 77.0833 60.1902C77.0212 60.075 76.9905 59.9311 76.9905 59.7584V58.7049H77.2359V59.7308C77.2359 59.9242 77.2827 60.0704 77.377 60.1694C77.4736 60.2662 77.6086 60.3145 77.7811 60.3145C77.9076 60.3145 78.0173 60.2892 78.1093 60.2385C78.2037 60.1856 78.275 60.1096 78.3233 60.0105C78.3739 59.9115 78.3992 59.793 78.3992 59.6548V58.7049H78.6446V60.5183H78.4099V60.021L78.4475 60.1108C78.39 60.2443 78.3003 60.3491 78.1783 60.4251C78.0587 60.4987 77.9184 60.5356 77.7573 60.5356ZM80.4644 60.5183V60.1177L80.4544 60.052V59.3819C80.4544 59.2276 80.4107 59.109 80.3233 59.0261C80.2381 58.9432 80.1101 58.9018 79.9398 58.9018C79.8225 58.9018 79.7106 58.9213 79.6047 58.9605C79.4989 58.9996 79.4092 59.0515 79.3355 59.116L79.2244 58.9328C79.3164 58.8546 79.4276 58.7947 79.5564 58.7533C79.6852 58.7095 79.821 58.6876 79.9636 58.6876C80.199 58.6876 80.3792 58.7463 80.5058 58.8638C80.6354 58.9789 80.6998 59.1551 80.6998 59.3923V60.5183H80.4644ZM79.8394 60.5356C79.7037 60.5356 79.5848 60.5137 79.4835 60.47C79.3846 60.4239 79.3087 60.3618 79.2558 60.2835C79.2029 60.2029 79.176 60.1108 79.176 60.0071C79.176 59.9127 79.1983 59.8275 79.242 59.7515C79.288 59.6732 79.3616 59.6111 79.4629 59.565C79.5664 59.5166 79.7044 59.4924 79.8777 59.4924H80.5027V59.6755H79.8846C79.709 59.6755 79.5871 59.7066 79.5181 59.7687C79.4513 59.8309 79.4184 59.9081 79.4184 60.0002C79.4184 60.1039 79.4583 60.1868 79.5388 60.2489C79.6193 60.3111 79.732 60.3422 79.8777 60.3422C80.0158 60.3422 80.1339 60.3111 80.2336 60.2489C80.3348 60.1845 80.4084 60.0923 80.4544 59.9726L80.5096 60.1418C80.4636 60.2616 80.3831 60.3572 80.2681 60.4285C80.1553 60.4999 80.0119 60.5356 79.8394 60.5356ZM81.3654 60.5183V58.7049H81.6009V59.1989L81.5763 59.1125C81.6269 58.9743 81.7121 58.8696 81.8317 58.7982C81.9513 58.7245 82.1001 58.6876 82.2772 58.6876V58.9259C82.268 58.9259 82.2589 58.9259 82.2496 58.9259C82.2404 58.9236 82.2312 58.9225 82.222 58.9225C82.0311 58.9225 81.8816 58.9812 81.7734 59.0986C81.6653 59.2138 81.6108 59.3785 81.6108 59.5926V60.5183H81.3654ZM82.8163 61.2057C82.7312 61.2057 82.6492 61.1919 82.5709 61.1643C82.495 61.1366 82.4299 61.0952 82.3746 61.0399L82.4881 60.8568C82.5341 60.9006 82.584 60.934 82.6369 60.957C82.6921 60.9823 82.7535 60.995 82.8202 60.995C82.9007 60.995 82.9697 60.9719 83.0272 60.9259C83.087 60.8821 83.1438 60.8039 83.1967 60.691L83.3141 60.4251L83.3417 60.3871L84.0878 58.7049H84.3294L83.4206 60.7359C83.37 60.8534 83.314 60.9466 83.2519 61.0157C83.1921 61.0848 83.1262 61.1331 83.0548 61.1607C82.9835 61.1907 82.9038 61.2057 82.8163 61.2057ZM83.3003 60.5701L82.4644 58.7049H82.7197L83.459 60.3698L83.3003 60.5701ZM85.8378 60.5183V58.204L85.9482 58.3215H85.268V58.1004H86.0863V60.5183H85.8378ZM86.6783 61.0226L86.8301 60.3836L86.8577 60.5322C86.8048 60.5322 86.7603 60.5149 86.7235 60.4803C86.689 60.4458 86.6714 60.4009 86.6714 60.3456C86.6714 60.2904 86.689 60.2454 86.7235 60.2109C86.7603 60.1763 86.804 60.1591 86.8547 60.1591C86.9076 60.1591 86.9498 60.1775 86.982 60.2144C87.0165 60.2512 87.0341 60.295 87.0341 60.3456C87.0341 60.3641 87.0326 60.3825 87.0303 60.4009C87.028 60.4193 87.0234 60.4401 87.0165 60.4631C87.0096 60.4861 87.0004 60.5137 86.9889 60.546L86.8439 61.0226H86.6783ZM88.722 60.5183V58.204L88.8324 58.3215H88.1522V58.1004H88.9704V60.5183H88.722ZM90.3017 58.0797C90.5157 58.0797 90.6967 58.128 90.8439 58.2248C90.9912 58.3192 91.1031 58.4562 91.179 58.6358C91.2549 58.8154 91.2925 59.0331 91.2925 59.2887C91.2925 59.5604 91.2458 59.7895 91.1514 59.976C91.0594 60.1625 90.9306 60.303 90.7642 60.3974C90.5985 60.4918 90.406 60.5391 90.1875 60.5391C90.0793 60.5391 89.9758 60.5287 89.8769 60.508C89.7803 60.4872 89.6928 60.4539 89.6139 60.4078L89.7143 60.2075C89.7764 60.2489 89.8478 60.2789 89.9283 60.2973C90.0111 60.3134 90.097 60.3214 90.1844 60.3214C90.4444 60.3214 90.6514 60.2385 90.8056 60.0727C90.9628 59.9069 91.041 59.6594 91.041 59.3301C91.041 59.2771 91.0372 59.2138 91.0303 59.1401C91.0257 59.0664 91.0134 58.9927 90.9927 58.919L91.0786 58.9847C91.0556 59.1044 91.0065 59.2069 90.9306 59.2921C90.8562 59.375 90.7642 59.4383 90.6537 59.4821C90.5456 59.5259 90.4244 59.5477 90.291 59.5477C90.1323 59.5477 89.9904 59.5177 89.8661 59.4579C89.7442 59.398 89.6484 59.314 89.5793 59.2058C89.5103 59.0975 89.4758 58.9697 89.4758 58.8223C89.4758 58.6704 89.5119 58.5391 89.5832 58.4286C89.6545 58.3181 89.7527 58.2329 89.8769 58.173C90.0034 58.1108 90.1453 58.0797 90.3017 58.0797ZM90.3117 58.2904C90.1967 58.2904 90.0947 58.3123 90.0042 58.356C89.9168 58.3975 89.8477 58.4573 89.7971 58.5356C89.7465 58.6139 89.7212 58.7072 89.7212 58.8154C89.7212 58.9743 89.7757 59.1009 89.8838 59.1953C89.9942 59.2898 90.143 59.337 90.3293 59.337C90.4536 59.337 90.5617 59.314 90.6537 59.2679C90.748 59.2219 90.8209 59.1585 90.8715 59.0779C90.9244 58.9973 90.9513 58.9075 90.9513 58.8085C90.9513 58.7187 90.9267 58.6347 90.8784 58.5564C90.8301 58.4781 90.7588 58.4148 90.6645 58.3664C90.5701 58.3158 90.452 58.2904 90.3117 58.2904ZM92.5724 60.5391C92.3784 60.5391 92.212 60.5114 92.0717 60.4562C91.9329 60.4009 91.8263 60.3214 91.7503 60.2178C91.6767 60.1119 91.6399 59.9875 91.6399 59.8447C91.6399 59.7066 91.6752 59.5891 91.7465 59.4924C91.8201 59.3934 91.9259 59.3174 92.0648 59.2644C92.2051 59.2115 92.3738 59.185 92.5724 59.185C92.768 59.185 92.9359 59.2115 93.0762 59.2644C93.2174 59.3174 93.324 59.3934 93.3976 59.4924C93.4735 59.5891 93.5118 59.7066 93.5118 59.8447C93.5118 59.9875 93.4735 60.1119 93.3976 60.2178C93.3216 60.3214 93.2135 60.4009 93.0732 60.4562C92.9328 60.5114 92.7657 60.5391 92.5724 60.5391ZM92.5724 60.3283C92.7864 60.3283 92.9536 60.2846 93.0732 60.1971C93.1951 60.1096 93.2565 59.991 93.2565 59.8413C93.2565 59.6917 93.1951 59.5742 93.0732 59.489C92.9536 59.4015 92.7864 59.3577 92.5724 59.3577C92.3577 59.3577 92.1913 59.4015 92.0717 59.489C91.9513 59.5742 91.8915 59.6917 91.8915 59.8413C91.8915 59.991 91.9513 60.1096 92.0717 60.1971C92.1913 60.2846 92.3577 60.3283 92.5724 60.3283ZM92.5724 59.3266C92.393 59.3266 92.2396 59.3025 92.1131 59.2541C91.9888 59.2058 91.893 59.1367 91.8263 59.0469C91.7595 58.9548 91.7258 58.8454 91.7258 58.7187C91.7258 58.5852 91.7603 58.4712 91.8293 58.3768C91.9006 58.28 92.0003 58.2063 92.1269 58.1557C92.2534 58.105 92.4022 58.0797 92.5724 58.0797C92.7427 58.0797 92.8914 58.105 93.018 58.1557C93.1468 58.2063 93.2473 58.28 93.3186 58.3768C93.3899 58.4712 93.4252 58.5852 93.4252 58.7187C93.4252 58.8454 93.3922 58.9548 93.3255 59.0469C93.2588 59.1367 93.1606 59.2058 93.0318 59.2541C92.9053 59.3025 92.7519 59.3266 92.5724 59.3266ZM92.5724 59.1608C92.7611 59.1608 92.9083 59.1217 93.0141 59.0434C93.12 58.9651 93.1729 58.8603 93.1729 58.7291C93.1729 58.5909 93.1177 58.4839 93.0072 58.4079C92.8991 58.3296 92.7542 58.2904 92.5724 58.2904C92.3907 58.2904 92.245 58.3296 92.1368 58.4079C92.0287 58.4839 91.9743 58.5898 91.9743 58.7256C91.9743 58.8592 92.0264 58.9651 92.13 59.0434C92.2358 59.1217 92.383 59.1608 92.5724 59.1608ZM94.8201 60.5391C94.633 60.5391 94.4673 60.4907 94.3224 60.394C94.1775 60.295 94.0632 60.1545 93.9804 59.9726C93.8976 59.7884 93.8561 59.5673 93.8561 59.3094C93.8561 59.0515 93.8976 58.8315 93.9804 58.6496C94.0632 58.4654 94.1775 58.325 94.3224 58.2283C94.4673 58.1292 94.633 58.0797 94.8201 58.0797C95.0065 58.0797 95.1721 58.1292 95.317 58.2283C95.462 58.325 95.5762 58.4654 95.6591 58.6496C95.7442 58.8315 95.7871 59.0515 95.7871 59.3094C95.7871 59.5673 95.7442 59.7884 95.6591 59.9726C95.5762 60.1545 95.462 60.295 95.317 60.394C95.1721 60.4907 95.0065 60.5391 94.8201 60.5391ZM94.8201 60.3111C94.9628 60.3111 95.087 60.2731 95.1928 60.1971C95.2986 60.1188 95.3815 60.0059 95.4413 59.8586C95.5011 59.7089 95.531 59.5259 95.531 59.3094C95.531 59.0929 95.5011 58.911 95.4413 58.7636C95.3815 58.6139 95.2986 58.5011 95.1928 58.4251C95.087 58.3468 94.9628 58.3077 94.8201 58.3077C94.6813 58.3077 94.5586 58.3468 94.4505 58.4251C94.3424 58.5011 94.258 58.6139 94.1982 58.7636C94.1384 58.911 94.1085 59.0929 94.1085 59.3094C94.1085 59.5259 94.1384 59.7089 94.1982 59.8586C94.258 60.0059 94.3424 60.1188 94.4505 60.1971C94.5586 60.2731 94.6813 60.3111 94.8201 60.3111Z" fill="#1D2D39"/>
<path d="M123.78 55.9164V54.0358H124.484C124.643 54.0358 124.781 54.0618 124.895 54.1138C125.01 54.1639 125.097 54.2373 125.159 54.3341C125.221 54.4289 125.252 54.5445 125.252 54.6806C125.252 54.8131 125.221 54.9278 125.159 55.0245C125.097 55.1194 125.01 55.1928 124.895 55.2448C124.781 55.2967 124.643 55.3227 124.484 55.3227H123.89L123.979 55.2286V55.9164H123.78ZM123.979 55.2448L123.89 55.1481H124.478C124.666 55.1481 124.809 55.1078 124.906 55.0272C125.004 54.9448 125.054 54.8292 125.054 54.6806C125.054 54.5302 125.004 54.4138 124.906 54.3314C124.809 54.249 124.666 54.2078 124.478 54.2078H123.89L123.979 54.1138V55.2448ZM126.388 54.4926C126.503 54.4926 126.603 54.5149 126.689 54.5597C126.777 54.6027 126.845 54.669 126.893 54.7585C126.943 54.8481 126.968 54.9609 126.968 55.097V55.9164H126.777V55.1158C126.777 54.9672 126.74 54.8552 126.665 54.78C126.591 54.703 126.488 54.6645 126.353 54.6645C126.253 54.6645 126.165 54.6851 126.09 54.7262C126.017 54.7657 125.959 54.8239 125.918 54.9009C125.879 54.9761 125.859 55.0675 125.859 55.1749V55.9164H125.668V53.923H125.859V54.8928L125.821 54.8203C125.866 54.7182 125.938 54.6385 126.036 54.5812C126.135 54.5221 126.252 54.4926 126.388 54.4926ZM128.059 55.9298C127.922 55.9298 127.8 55.8994 127.691 55.8385C127.583 55.7759 127.498 55.6907 127.435 55.5833C127.373 55.474 127.341 55.3496 127.341 55.2098C127.341 55.0683 127.373 54.9439 127.435 54.8364C127.498 54.7289 127.583 54.6448 127.691 54.5839C127.798 54.523 127.921 54.4926 128.059 54.4926C128.198 54.4926 128.322 54.523 128.429 54.5839C128.538 54.6448 128.623 54.7289 128.685 54.8364C128.748 54.9439 128.778 55.0683 128.778 55.2098C128.778 55.3496 128.748 55.474 128.685 55.5833C128.623 55.6907 128.538 55.7759 128.429 55.8385C128.32 55.8994 128.196 55.9298 128.059 55.9298ZM128.059 55.7606C128.161 55.7606 128.251 55.7382 128.33 55.6934C128.409 55.6469 128.471 55.5824 128.515 55.5C128.562 55.4158 128.585 55.3191 128.585 55.2098C128.585 55.0988 128.562 55.0021 128.515 54.9197C128.471 54.8373 128.409 54.7737 128.33 54.7289C128.251 54.6824 128.162 54.6591 128.061 54.6591C127.961 54.6591 127.871 54.6824 127.793 54.7289C127.714 54.7737 127.651 54.8373 127.604 54.9197C127.558 55.0021 127.534 55.0988 127.534 55.2098C127.534 55.3191 127.558 55.4158 127.604 55.5C127.651 55.5824 127.714 55.6469 127.793 55.6934C127.871 55.7382 127.96 55.7606 128.059 55.7606ZM129.888 54.4926C130.003 54.4926 130.103 54.5149 130.189 54.5597C130.277 54.6027 130.345 54.669 130.393 54.7585C130.443 54.8481 130.468 54.9609 130.468 55.097V55.9164H130.277V55.1158C130.277 54.9672 130.24 54.8552 130.165 54.78C130.091 54.703 129.988 54.6645 129.853 54.6645C129.753 54.6645 129.665 54.6851 129.59 54.7262C129.516 54.7657 129.459 54.8239 129.418 54.9009C129.379 54.9761 129.359 55.0675 129.359 55.1749V55.9164H129.168V54.506H129.35V54.8928L129.321 54.8203C129.366 54.7182 129.438 54.6385 129.536 54.5812C129.635 54.5221 129.752 54.4926 129.888 54.4926ZM131.583 55.9298C131.435 55.9298 131.307 55.8994 131.195 55.8385C131.085 55.7759 130.998 55.6907 130.935 55.5833C130.873 55.474 130.841 55.3496 130.841 55.2098C130.841 55.0702 130.871 54.9466 130.93 54.8391C130.991 54.7316 131.073 54.6475 131.177 54.5866C131.283 54.5239 131.401 54.4926 131.531 54.4926C131.664 54.4926 131.781 54.523 131.883 54.5839C131.988 54.643 132.069 54.7272 132.128 54.8364C132.187 54.9439 132.217 55.0683 132.217 55.2098C132.217 55.2188 132.216 55.2286 132.214 55.2394C132.214 55.2483 132.214 55.2582 132.214 55.269H130.986V55.1266H132.112L132.037 55.183C132.037 55.0809 132.014 54.9904 131.969 54.9117C131.926 54.8311 131.867 54.7684 131.792 54.7236C131.717 54.6788 131.63 54.6565 131.531 54.6565C131.435 54.6565 131.348 54.6788 131.271 54.7236C131.194 54.7684 131.134 54.8311 131.091 54.9117C131.048 54.9923 131.027 55.0845 131.027 55.1884V55.2179C131.027 55.3254 131.05 55.4203 131.096 55.5027C131.145 55.5833 131.211 55.6469 131.295 55.6934C131.381 55.7382 131.478 55.7606 131.588 55.7606C131.674 55.7606 131.754 55.7453 131.827 55.7149C131.902 55.6845 131.967 55.6379 132.021 55.5752L132.128 55.6988C132.065 55.774 131.987 55.8314 131.892 55.8707C131.798 55.9101 131.695 55.9298 131.583 55.9298Z" fill="#85969F"/>
<path d="M124.572 60.5391C124.379 60.5391 124.212 60.5114 124.071 60.4562C123.933 60.4009 123.826 60.3214 123.75 60.2178C123.676 60.1119 123.64 59.9875 123.64 59.8447C123.64 59.7066 123.676 59.5891 123.747 59.4924C123.821 59.3934 123.926 59.3174 124.064 59.2644C124.205 59.2115 124.374 59.185 124.572 59.185C124.768 59.185 124.936 59.2115 125.077 59.2644C125.217 59.3174 125.324 59.3934 125.398 59.4924C125.474 59.5891 125.512 59.7066 125.512 59.8447C125.512 59.9875 125.474 60.1119 125.398 60.2178C125.322 60.3214 125.214 60.4009 125.073 60.4562C124.933 60.5114 124.766 60.5391 124.572 60.5391ZM124.572 60.3283C124.787 60.3283 124.953 60.2846 125.073 60.1971C125.196 60.1096 125.256 59.991 125.256 59.8413C125.256 59.6917 125.196 59.5742 125.073 59.489C124.953 59.4015 124.787 59.3577 124.572 59.3577C124.358 59.3577 124.191 59.4015 124.071 59.489C123.952 59.5742 123.892 59.6917 123.892 59.8413C123.892 59.991 123.952 60.1096 124.071 60.1971C124.191 60.2846 124.358 60.3283 124.572 60.3283ZM124.572 59.3266C124.393 59.3266 124.239 59.3025 124.113 59.2541C123.989 59.2058 123.893 59.1367 123.826 59.0469C123.759 58.9548 123.726 58.8454 123.726 58.7187C123.726 58.5852 123.761 58.4712 123.83 58.3768C123.901 58.28 124 58.2063 124.127 58.1557C124.253 58.105 124.402 58.0797 124.572 58.0797C124.743 58.0797 124.891 58.105 125.018 58.1557C125.147 58.2063 125.247 58.28 125.318 58.3768C125.39 58.4712 125.426 58.5852 125.426 58.7187C125.426 58.8454 125.392 58.9548 125.325 59.0469C125.259 59.1367 125.161 59.2058 125.032 59.2541C124.905 59.3025 124.752 59.3266 124.572 59.3266ZM124.572 59.1608C124.762 59.1608 124.909 59.1217 125.015 59.0434C125.12 58.9651 125.173 58.8603 125.173 58.7291C125.173 58.5909 125.118 58.4839 125.008 58.4079C124.9 58.3296 124.755 58.2904 124.572 58.2904C124.39 58.2904 124.245 58.3296 124.137 58.4079C124.029 58.4839 123.975 58.5898 123.975 58.7256C123.975 58.8592 124.027 58.9651 124.13 59.0434C124.236 59.1217 124.384 59.1608 124.572 59.1608ZM126.609 58.0797C126.824 58.0797 127.004 58.128 127.152 58.2248C127.299 58.3192 127.41 58.4562 127.487 58.6358C127.563 58.8154 127.601 59.0331 127.601 59.2887C127.601 59.5604 127.554 59.7895 127.459 59.976C127.367 60.1625 127.238 60.303 127.072 60.3974C126.906 60.4918 126.714 60.5391 126.495 60.5391C126.387 60.5391 126.284 60.5287 126.184 60.508C126.087 60.4872 126 60.4539 125.922 60.4078L126.022 60.2075C126.084 60.2489 126.156 60.2789 126.236 60.2973C126.319 60.3134 126.404 60.3214 126.492 60.3214C126.752 60.3214 126.959 60.2385 127.114 60.0727C127.27 59.9069 127.348 59.6594 127.348 59.3301C127.348 59.2771 127.345 59.2138 127.338 59.1401C127.334 59.0664 127.321 58.9927 127.3 58.919L127.387 58.9847C127.364 59.1044 127.314 59.2069 127.238 59.2921C127.164 59.375 127.072 59.4383 126.962 59.4821C126.854 59.5259 126.732 59.5477 126.599 59.5477C126.44 59.5477 126.298 59.5177 126.174 59.4579C126.052 59.398 125.956 59.314 125.887 59.2058C125.818 59.0975 125.784 58.9697 125.784 58.8223C125.784 58.6704 125.819 58.5391 125.891 58.4286C125.962 58.3181 126.06 58.2329 126.184 58.173C126.311 58.1108 126.453 58.0797 126.609 58.0797ZM126.62 58.2904C126.505 58.2904 126.402 58.3123 126.312 58.356C126.225 58.3975 126.156 58.4573 126.105 58.5356C126.055 58.6139 126.029 58.7072 126.029 58.8154C126.029 58.9743 126.083 59.1009 126.191 59.1953C126.302 59.2898 126.45 59.337 126.637 59.337C126.762 59.337 126.87 59.314 126.962 59.2679C127.056 59.2219 127.129 59.1585 127.179 59.0779C127.232 58.9973 127.258 58.9075 127.258 58.8085C127.258 58.7187 127.235 58.6347 127.186 58.5564C127.138 58.4781 127.067 58.4148 126.972 58.3664C126.877 58.3158 126.76 58.2904 126.62 58.2904ZM128.88 60.5391C128.686 60.5391 128.519 60.5114 128.379 60.4562C128.241 60.4009 128.134 60.3214 128.058 60.2178C127.984 60.1119 127.947 59.9875 127.947 59.8447C127.947 59.7066 127.983 59.5891 128.054 59.4924C128.128 59.3934 128.234 59.3174 128.372 59.2644C128.512 59.2115 128.682 59.185 128.88 59.185C129.076 59.185 129.244 59.2115 129.384 59.2644C129.525 59.3174 129.632 59.3934 129.706 59.4924C129.781 59.5891 129.82 59.7066 129.82 59.8447C129.82 59.9875 129.781 60.1119 129.706 60.2178C129.63 60.3214 129.522 60.4009 129.381 60.4562C129.24 60.5114 129.074 60.5391 128.88 60.5391ZM128.88 60.3283C129.094 60.3283 129.261 60.2846 129.381 60.1971C129.503 60.1096 129.564 59.991 129.564 59.8413C129.564 59.6917 129.503 59.5742 129.381 59.489C129.261 59.4015 129.094 59.3577 128.88 59.3577C128.666 59.3577 128.499 59.4015 128.379 59.489C128.259 59.5742 128.199 59.6917 128.199 59.8413C128.199 59.991 128.259 60.1096 128.379 60.1971C128.499 60.2846 128.666 60.3283 128.88 60.3283ZM128.88 59.3266C128.7 59.3266 128.548 59.3025 128.42 59.2541C128.296 59.2058 128.201 59.1367 128.134 59.0469C128.067 58.9548 128.034 58.8454 128.034 58.7187C128.034 58.5852 128.068 58.4712 128.137 58.3768C128.209 58.28 128.308 58.2063 128.434 58.1557C128.561 58.105 128.709 58.0797 128.88 58.0797C129.051 58.0797 129.199 58.105 129.325 58.1557C129.455 58.2063 129.554 58.28 129.626 58.3768C129.697 58.4712 129.733 58.5852 129.733 58.7187C129.733 58.8454 129.699 58.9548 129.633 59.0469C129.566 59.1367 129.469 59.2058 129.339 59.2541C129.212 59.3025 129.06 59.3266 128.88 59.3266ZM128.88 59.1608C129.069 59.1608 129.216 59.1217 129.322 59.0434C129.428 58.9651 129.481 58.8603 129.481 58.7291C129.481 58.5909 129.426 58.4839 129.315 58.4079C129.207 58.3296 129.062 58.2904 128.88 58.2904C128.698 58.2904 128.553 58.3296 128.445 58.4079C128.337 58.4839 128.282 58.5898 128.282 58.7256C128.282 58.8592 128.334 58.9651 128.438 59.0434C128.544 59.1217 128.691 59.1608 128.88 59.1608ZM131.083 60.5391C130.89 60.5391 130.722 60.5114 130.582 60.4562C130.443 60.4009 130.337 60.3214 130.261 60.2178C130.187 60.1119 130.15 59.9875 130.15 59.8447C130.15 59.7066 130.186 59.5891 130.257 59.4924C130.331 59.3934 130.436 59.3174 130.575 59.2644C130.716 59.2115 130.884 59.185 131.083 59.185C131.278 59.185 131.446 59.2115 131.587 59.2644C131.728 59.3174 131.834 59.3934 131.908 59.4924C131.984 59.5891 132.022 59.7066 132.022 59.8447C132.022 59.9875 131.984 60.1119 131.908 60.2178C131.832 60.3214 131.724 60.4009 131.584 60.4562C131.443 60.5114 131.276 60.5391 131.083 60.5391ZM131.083 60.3283C131.297 60.3283 131.464 60.2846 131.584 60.1971C131.706 60.1096 131.767 59.991 131.767 59.8413C131.767 59.6917 131.706 59.5742 131.584 59.489C131.464 59.4015 131.297 59.3577 131.083 59.3577C130.868 59.3577 130.702 59.4015 130.582 59.489C130.462 59.5742 130.402 59.6917 130.402 59.8413C130.402 59.991 130.462 60.1096 130.582 60.1971C130.702 60.2846 130.868 60.3283 131.083 60.3283ZM131.083 59.3266C130.903 59.3266 130.75 59.3025 130.623 59.2541C130.499 59.2058 130.403 59.1367 130.337 59.0469C130.27 58.9548 130.236 58.8454 130.236 58.7187C130.236 58.5852 130.271 58.4712 130.34 58.3768C130.411 58.28 130.511 58.2063 130.637 58.1557C130.764 58.105 130.913 58.0797 131.083 58.0797C131.253 58.0797 131.402 58.105 131.528 58.1557C131.657 58.2063 131.758 58.28 131.829 58.3768C131.9 58.4712 131.936 58.5852 131.936 58.7187C131.936 58.8454 131.903 58.9548 131.836 59.0469C131.769 59.1367 131.671 59.2058 131.542 59.2541C131.416 59.3025 131.262 59.3266 131.083 59.3266ZM131.083 59.1608C131.271 59.1608 131.419 59.1217 131.525 59.0434C131.63 58.9651 131.683 58.8603 131.683 58.7291C131.683 58.5909 131.628 58.4839 131.518 58.4079C131.41 58.3296 131.265 58.2904 131.083 58.2904C130.901 58.2904 130.755 58.3296 130.647 58.4079C130.539 58.4839 130.485 58.5898 130.485 58.7256C130.485 58.8592 130.537 58.9651 130.64 59.0434C130.746 59.1217 130.894 59.1608 131.083 59.1608ZM132.791 60.5183L133.834 58.2109L133.91 58.3215H132.415L132.543 58.2006V58.774H132.298V58.1004H134.073V58.2766L133.061 60.5183H132.791ZM135.255 60.5391C135.062 60.5391 134.895 60.5114 134.755 60.4562C134.617 60.4009 134.509 60.3214 134.433 60.2178C134.36 60.1119 134.323 59.9875 134.323 59.8447C134.323 59.7066 134.358 59.5891 134.429 59.4924C134.503 59.3934 134.61 59.3174 134.748 59.2644C134.888 59.2115 135.058 59.185 135.255 59.185C135.451 59.185 135.619 59.2115 135.759 59.2644C135.9 59.3174 136.007 59.3934 136.081 59.4924C136.156 59.5891 136.195 59.7066 136.195 59.8447C136.195 59.9875 136.156 60.1119 136.081 60.2178C136.005 60.3214 135.896 60.4009 135.756 60.4562C135.616 60.5114 135.449 60.5391 135.255 60.5391ZM135.255 60.3283C135.469 60.3283 135.636 60.2846 135.756 60.1971C135.878 60.1096 135.939 59.991 135.939 59.8413C135.939 59.6917 135.878 59.5742 135.756 59.489C135.636 59.4015 135.469 59.3577 135.255 59.3577C135.041 59.3577 134.874 59.4015 134.755 59.489C134.635 59.5742 134.575 59.6917 134.575 59.8413C134.575 59.991 134.635 60.1096 134.755 60.1971C134.874 60.2846 135.041 60.3283 135.255 60.3283ZM135.255 59.3266C135.076 59.3266 134.923 59.3025 134.796 59.2541C134.672 59.2058 134.576 59.1367 134.509 59.0469C134.442 58.9548 134.409 58.8454 134.409 58.7187C134.409 58.5852 134.443 58.4712 134.512 58.3768C134.584 58.28 134.683 58.2063 134.81 58.1557C134.936 58.105 135.085 58.0797 135.255 58.0797C135.426 58.0797 135.574 58.105 135.701 58.1557C135.83 58.2063 135.93 58.28 136.002 58.3768C136.073 58.4712 136.108 58.5852 136.108 58.7187C136.108 58.8454 136.075 58.9548 136.008 59.0469C135.942 59.1367 135.844 59.2058 135.715 59.2541C135.588 59.3025 135.435 59.3266 135.255 59.3266ZM135.255 59.1608C135.444 59.1608 135.591 59.1217 135.697 59.0434C135.804 58.9651 135.857 58.8603 135.857 58.7291C135.857 58.5909 135.801 58.4839 135.69 58.4079C135.582 58.3296 135.437 58.2904 135.255 58.2904C135.074 58.2904 134.928 58.3296 134.82 58.4079C134.712 58.4839 134.658 58.5898 134.658 58.7256C134.658 58.8592 134.709 58.9651 134.813 59.0434C134.919 59.1217 135.067 59.1608 135.255 59.1608ZM136.964 60.5183L138.007 58.2109L138.083 58.3215H136.587L136.715 58.2006V58.774H136.47V58.1004H138.245V58.2766L137.233 60.5183H136.964ZM139.428 60.5391C139.235 60.5391 139.067 60.5114 138.927 60.4562C138.789 60.4009 138.682 60.3214 138.606 60.2178C138.532 60.1119 138.495 59.9875 138.495 59.8447C138.495 59.7066 138.531 59.5891 138.602 59.4924C138.676 59.3934 138.782 59.3174 138.92 59.2644C139.061 59.2115 139.23 59.185 139.428 59.185C139.623 59.185 139.791 59.2115 139.932 59.2644C140.073 59.3174 140.179 59.3934 140.254 59.4924C140.33 59.5891 140.367 59.7066 140.367 59.8447C140.367 59.9875 140.33 60.1119 140.254 60.2178C140.177 60.3214 140.069 60.4009 139.929 60.4562C139.788 60.5114 139.621 60.5391 139.428 60.5391ZM139.428 60.3283C139.642 60.3283 139.809 60.2846 139.929 60.1971C140.051 60.1096 140.112 59.991 140.112 59.8413C140.112 59.6917 140.051 59.5742 139.929 59.489C139.809 59.4015 139.642 59.3577 139.428 59.3577C139.214 59.3577 139.047 59.4015 138.927 59.489C138.807 59.5742 138.748 59.6917 138.748 59.8413C138.748 59.991 138.807 60.1096 138.927 60.1971C139.047 60.2846 139.214 60.3283 139.428 60.3283ZM139.428 59.3266C139.248 59.3266 139.095 59.3025 138.969 59.2541C138.844 59.2058 138.748 59.1367 138.682 59.0469C138.615 58.9548 138.581 58.8454 138.581 58.7187C138.581 58.5852 138.617 58.4712 138.686 58.3768C138.757 58.28 138.856 58.2063 138.982 58.1557C139.109 58.105 139.258 58.0797 139.428 58.0797C139.598 58.0797 139.747 58.105 139.873 58.1557C140.002 58.2063 140.103 58.28 140.174 58.3768C140.245 58.4712 140.281 58.5852 140.281 58.7187C140.281 58.8454 140.248 58.9548 140.181 59.0469C140.114 59.1367 140.016 59.2058 139.887 59.2541C139.761 59.3025 139.607 59.3266 139.428 59.3266ZM139.428 59.1608C139.617 59.1608 139.764 59.1217 139.87 59.0434C139.976 58.9651 140.029 58.8603 140.029 58.7291C140.029 58.5909 139.974 58.4839 139.863 58.4079C139.755 58.3296 139.61 58.2904 139.428 58.2904C139.246 58.2904 139.101 58.3296 138.992 58.4079C138.884 58.4839 138.83 58.5898 138.83 58.7256C138.83 58.8592 138.882 58.9651 138.985 59.0434C139.092 59.1217 139.239 59.1608 139.428 59.1608ZM141.136 60.5183L142.179 58.2109L142.256 58.3215H140.76L140.888 58.2006V58.774H140.643V58.1004H142.418V58.2766L141.406 60.5183H141.136ZM143.6 60.5391C143.407 60.5391 143.24 60.5114 143.1 60.4562C142.962 60.4009 142.854 60.3214 142.778 60.2178C142.705 60.1119 142.668 59.9875 142.668 59.8447C142.668 59.7066 142.704 59.5891 142.775 59.4924C142.849 59.3934 142.955 59.3174 143.093 59.2644C143.233 59.2115 143.403 59.185 143.6 59.185C143.796 59.185 143.965 59.2115 144.105 59.2644C144.245 59.3174 144.353 59.3934 144.426 59.4924C144.502 59.5891 144.54 59.7066 144.54 59.8447C144.54 59.9875 144.502 60.1119 144.426 60.2178C144.35 60.3214 144.242 60.4009 144.101 60.4562C143.961 60.5114 143.794 60.5391 143.6 60.5391ZM143.6 60.3283C143.814 60.3283 143.982 60.2846 144.101 60.1971C144.223 60.1096 144.284 59.991 144.284 59.8413C144.284 59.6917 144.223 59.5742 144.101 59.489C143.982 59.4015 143.814 59.3577 143.6 59.3577C143.386 59.3577 143.219 59.4015 143.1 59.489C142.98 59.5742 142.92 59.6917 142.92 59.8413C142.92 59.991 142.98 60.1096 143.1 60.1971C143.219 60.2846 143.386 60.3283 143.6 60.3283ZM143.6 59.3266C143.421 59.3266 143.268 59.3025 143.141 59.2541C143.017 59.2058 142.921 59.1367 142.854 59.0469C142.788 58.9548 142.755 58.8454 142.755 58.7187C142.755 58.5852 142.789 58.4712 142.858 58.3768C142.929 58.28 143.028 58.2063 143.155 58.1557C143.281 58.105 143.43 58.0797 143.6 58.0797C143.771 58.0797 143.919 58.105 144.046 58.1557C144.175 58.2063 144.275 58.28 144.347 58.3768C144.418 58.4712 144.454 58.5852 144.454 58.7187C144.454 58.8454 144.42 58.9548 144.353 59.0469C144.287 59.1367 144.189 59.2058 144.06 59.2541C143.933 59.3025 143.78 59.3266 143.6 59.3266ZM143.6 59.1608C143.789 59.1608 143.937 59.1217 144.043 59.0434C144.149 58.9651 144.202 58.8603 144.202 58.7291C144.202 58.5909 144.146 58.4839 144.036 58.4079C143.928 58.3296 143.782 58.2904 143.6 58.2904C143.419 58.2904 143.274 58.3296 143.166 58.4079C143.057 58.4839 143.003 58.5898 143.003 58.7256C143.003 58.8592 143.054 58.9651 143.159 59.0434C143.265 59.1217 143.412 59.1608 143.6 59.1608ZM145.803 60.5391C145.61 60.5391 145.443 60.5114 145.302 60.4562C145.164 60.4009 145.057 60.3214 144.981 60.2178C144.907 60.1119 144.87 59.9875 144.87 59.8447C144.87 59.7066 144.906 59.5891 144.978 59.4924C145.051 59.3934 145.157 59.3174 145.295 59.2644C145.435 59.2115 145.605 59.185 145.803 59.185C145.999 59.185 146.167 59.2115 146.307 59.2644C146.448 59.3174 146.555 59.3934 146.629 59.4924C146.705 59.5891 146.743 59.7066 146.743 59.8447C146.743 59.9875 146.705 60.1119 146.629 60.2178C146.553 60.3214 146.445 60.4009 146.304 60.4562C146.163 60.5114 145.997 60.5391 145.803 60.5391ZM145.803 60.3283C146.018 60.3283 146.184 60.2846 146.304 60.1971C146.426 60.1096 146.487 59.991 146.487 59.8413C146.487 59.6917 146.426 59.5742 146.304 59.489C146.184 59.4015 146.018 59.3577 145.803 59.3577C145.589 59.3577 145.422 59.4015 145.302 59.489C145.182 59.5742 145.123 59.6917 145.123 59.8413C145.123 59.991 145.182 60.1096 145.302 60.1971C145.422 60.2846 145.589 60.3283 145.803 60.3283ZM145.803 59.3266C145.623 59.3266 145.471 59.3025 145.343 59.2541C145.219 59.2058 145.124 59.1367 145.057 59.0469C144.99 58.9548 144.957 58.8454 144.957 58.7187C144.957 58.5852 144.991 58.4712 145.061 58.3768C145.132 58.28 145.231 58.2063 145.357 58.1557C145.485 58.105 145.633 58.0797 145.803 58.0797C145.974 58.0797 146.122 58.105 146.248 58.1557C146.378 58.2063 146.478 58.28 146.549 58.3768C146.62 58.4712 146.656 58.5852 146.656 58.7187C146.656 58.8454 146.623 58.9548 146.556 59.0469C146.489 59.1367 146.392 59.2058 146.263 59.2541C146.136 59.3025 145.983 59.3266 145.803 59.3266ZM145.803 59.1608C145.992 59.1608 146.139 59.1217 146.245 59.0434C146.351 58.9651 146.404 58.8603 146.404 58.7291C146.404 58.5909 146.349 58.4839 146.238 58.4079C146.13 58.3296 145.985 58.2904 145.803 58.2904C145.621 58.2904 145.476 58.3296 145.368 58.4079C145.26 58.4839 145.205 58.5898 145.205 58.7256C145.205 58.8592 145.258 58.9651 145.361 59.0434C145.467 59.1217 145.614 59.1608 145.803 59.1608Z" fill="#1D2D39"/>
</g>
<defs>
<filter id="filter0_d_25_2250" x="0.80665" y="0.0958982" width="265.273" height="101.534" filterUnits="userSpaceOnUse" color-interpolation-filters="sRGB">
<feFlood flood-opacity="0" result="BackgroundImageFix"/>
<feColorMatrix in="SourceAlpha" type="matrix" values="0 0 0 0 0 0 0 0 0 0 0 0 0 0 0 0 0 0 127 0" result="hardAlpha"/>
<feOffset dy="3.56"/>
<feGaussianBlur stdDeviation="15.13"/>
<feComposite in2="hardAlpha" operator="out"/>
<feColorMatrix type="matrix" values="0 0 0 0 0 0 0 0 0 0 0 0 0 0 0 0 0 0 0.12 0"/>
<feBlend mode="normal" in2="BackgroundImageFix" result="effect1_dropShadow_25_2250"/>
<feBlend mode="normal" in="SourceGraphic" in2="effect1_dropShadow_25_2250" result="shape"/>
</filter>
</defs>
</svg>
